<svg width="362" height="153" viewBox="0 0 362 153" fill="none" xmlns="http://www.w3.org/2000/svg">
<g filter="url(#filter0_d_144_1176)">
<rect width="355" height="146" fill="white"/>
</g>
<path d="M63.68 25.54H73.46V24.78H61.44V22.42H76.32V27.9H63.68V25.54ZM62.16 25.54H64.98C64.8 27.44 64.54 29.66 64.3 31.1H61.42C61.72 29.6 62.02 27.38 62.16 25.54ZM63.24 28.7H75.32V31.1H62.52L63.24 28.7ZM74.56 28.7H77.48C77.48 28.7 77.46 29.36 77.42 29.7C77.26 32.3 77.04 33.64 76.52 34.22C76.04 34.76 75.5 34.94 74.84 35.02C74.26 35.1 73.3 35.12 72.28 35.1C72.24 34.26 71.9 33.16 71.46 32.46C72.24 32.54 73 32.56 73.38 32.54C73.68 32.54 73.86 32.52 74.06 32.36C74.3 32.1 74.46 31.18 74.56 29.04V28.7ZM67.3 22.94H70.14V35.9H67.3V22.94ZM66.78 29.58L69.02 30.54C67.26 32.8 64.44 34.74 61.56 35.76C61.16 35.08 60.34 34.02 59.74 33.48C62.5 32.72 65.34 31.22 66.78 29.58ZM62.46 18H68.68V20.18H62.46V18ZM70.74 18H78.32V20.16H70.74V18ZM62.4 16.7L64.96 17.46C64.14 19.42 62.76 21.5 61.46 22.78C61.06 22.28 60.1 21.26 59.56 20.8C60.7 19.8 61.8 18.24 62.4 16.7ZM70.7 16.7L73.34 17.38C72.68 19.2 71.52 21.04 70.36 22.18C69.88 21.7 68.82 20.86 68.22 20.48C69.3 19.56 70.22 18.12 70.7 16.7ZM63.66 20.88L65.36 19.36C66.08 19.88 67 20.68 67.46 21.24L65.66 22.92C65.26 22.34 64.36 21.48 63.66 20.88ZM72.38 20.9L74.22 19.36C74.94 19.84 75.9 20.58 76.38 21.1L74.44 22.78C74.02 22.24 73.1 21.44 72.38 20.9ZM81.3 24.62H99.94V27.8H81.3V24.62ZM110.24 27.58L111.6 27.24C111.86 27.96 112.16 28.92 112.28 29.48L110.86 29.92C110.76 29.32 110.48 28.32 110.24 27.58ZM112.5 29.74H114.46V35.68H112.5V29.74ZM107.32 30.1H109.04V31.74H111.04V33.28H107.32V30.1ZM109.86 29.74H111.78V31.76C111.78 33.4 111.38 34.96 108.8 35.82C108.58 35.38 107.98 34.62 107.58 34.28C109.58 33.7 109.86 32.72 109.86 31.7V29.74ZM105.1 20.14H109.8V21.84H105.1V20.14ZM114.3 20.14H119V21.84H114.3V20.14ZM118.04 17.62H120.84V32.68C120.84 33.98 120.66 34.76 119.9 35.24C119.14 35.72 118.18 35.78 116.8 35.78C116.72 35 116.38 33.7 116.02 32.96C116.66 33 117.44 33 117.7 33C117.96 33 118.04 32.9 118.04 32.64V17.62ZM105.38 17.62H111.66V24.36H105.38V22.46H108.94V19.52H105.38V17.62ZM119.5 17.62V19.52H115.46V22.46H119.5V24.36H112.7V17.62H119.5ZM103.66 17.62H106.42V35.9H103.66V17.62ZM107.5 27.52C107.4 27.16 107.14 26.36 106.94 25.94C107.16 25.88 107.4 25.78 107.6 25.58C107.8 25.4 108.5 24.72 108.88 23.94L110.44 24.78C109.88 25.48 109.12 26.2 108.46 26.64V26.68C108.46 26.68 107.5 27.18 107.5 27.52ZM107.5 27.54L107.48 26.52L108.16 26.12L110.66 26.02C110.56 26.38 110.44 26.9 110.42 27.18C108.26 27.32 107.76 27.42 107.5 27.54ZM107.44 29.92C107.36 29.6 107.12 28.82 106.94 28.4C107.26 28.36 107.6 28.16 108 27.86C108.4 27.56 109.76 26.4 110.64 25.18L111.96 26.14C110.92 27.24 109.6 28.34 108.34 29.1V29.16C108.34 29.16 107.44 29.6 107.44 29.92ZM107.44 29.94L107.4 28.84L108.06 28.4L111.28 28.06C111.3 28.44 111.38 28.94 111.44 29.24C108.3 29.66 107.76 29.78 107.44 29.94ZM115.54 27.62L116.86 27.22C117.18 27.94 117.54 28.9 117.68 29.46L116.3 29.96C116.16 29.36 115.82 28.36 115.54 27.62ZM112.78 27.56C112.68 27.2 112.42 26.4 112.22 25.98C112.44 25.92 112.68 25.82 112.88 25.62C113.08 25.44 113.78 24.76 114.16 23.98L115.72 24.82C115.16 25.52 114.4 26.24 113.74 26.68V26.72C113.74 26.72 112.78 27.22 112.78 27.56ZM112.78 27.56L112.76 26.54L113.44 26.14L115.94 26.04C115.84 26.4 115.72 26.92 115.7 27.2C113.54 27.34 113.04 27.44 112.78 27.56ZM112.76 29.96C112.68 29.64 112.44 28.86 112.26 28.44C112.58 28.38 112.92 28.2 113.32 27.88C113.72 27.58 115.08 26.38 115.96 25.14L117.3 26.1C116.24 27.24 114.92 28.36 113.66 29.14V29.2C113.66 29.2 112.76 29.64 112.76 29.96ZM112.76 29.96L112.72 28.86L113.38 28.42L116.6 28.08C116.62 28.46 116.7 28.96 116.76 29.26C113.62 29.68 113.08 29.8 112.76 29.96ZM114.04 31.74H116.22V33.28H114.04V31.74ZM115.28 30.1H117.08V33.8H115.28V30.1ZM133.8 24C132.6 24 131.68 23.08 131.68 21.92C131.68 20.72 132.6 19.8 133.8 19.8C135 19.8 135.92 20.72 135.92 21.92C135.92 23.08 135 24 133.8 24ZM133.8 33.4C132.6 33.4 131.68 32.48 131.68 31.32C131.68 30.12 132.6 29.2 133.8 29.2C135 29.2 135.92 30.12 135.92 31.32C135.92 32.48 135 33.4 133.8 33.4ZM155.32 28.26H163.14V30.64H155.32V28.26ZM155.28 32.2H163.2V34.68H155.28V32.2ZM155.26 17.08H157.92V23.56H155.26V17.08ZM160.5 17.08H163.2V23.56H160.5V17.08ZM157.92 25.68H160.38V33.42H157.92V25.68ZM154.22 24.3H164.18V35.68H161.42V26.78H156.84V35.9H154.22V24.3ZM149.06 24.48L150.94 23.36C153.94 26.38 154.08 32.76 152.76 34.52C152.16 35.4 151.4 35.72 150.44 35.74C150.04 35.74 149.52 35.74 149.06 35.72C149.02 35 148.84 33.96 148.46 33.24C148.98 33.3 149.5 33.32 149.84 33.32C150.22 33.32 150.5 33.24 150.74 32.72C151.32 31.76 151.4 26.86 149.06 24.48ZM150.66 25.7L152.3 26.84C151.06 28.08 148.82 29.62 147.12 30.48C146.82 29.9 146.28 29 145.82 28.5C147.44 27.92 149.6 26.72 150.66 25.7ZM151.54 27.98L153.22 29.16C151.76 30.94 149.1 32.96 146.92 34.08C146.62 33.46 146.06 32.54 145.58 32.02C147.7 31.24 150.26 29.52 151.54 27.98ZM146.36 22.28L148.22 21.34C148.7 22.06 149.34 23.06 149.62 23.68L147.64 24.76C147.42 24.1 146.84 23.06 146.36 22.28ZM149.38 21.2L151.2 20.22C151.6 20.78 152.14 21.58 152.4 22.08L150.5 23.2C150.26 22.68 149.76 21.82 149.38 21.2ZM152.82 20.82L154.46 22.4C152.62 24.36 149.9 25.98 147.3 27.06C147 26.52 146.42 25.66 145.94 25.2C148.52 24.18 151.18 22.54 152.82 20.82ZM152.08 16.86L153.62 18.6C151.92 19.8 149.4 20.68 147.16 21.18C146.86 20.58 146.34 19.64 145.86 19.12C148.04 18.66 150.5 17.8 152.08 16.86ZM153.68 19.16H158.92V21.84H153.68V19.16ZM159.5 19.2H164.92V21.86H159.5V19.2ZM169.72 18.24H174.54V32.02H169.72V29.38H171.84V20.86H169.72V18.24ZM168.14 18.24H170.82V33.9H168.14V18.24ZM179 16.9H181.78V35.9H179V16.9ZM174.88 24.02H186.32V26.72H174.88V24.02ZM176.66 27.44L178.88 28C178.28 30.96 177.28 33.86 175.74 35.62C175.3 34.96 174.42 33.98 173.8 33.48C175.14 32.14 176.14 29.74 176.66 27.44ZM183.18 18.1L186.2 19.08C185.42 20.78 184.64 22.62 184 23.82L181.8 22.96C182.32 21.62 182.9 19.62 183.18 18.1ZM174.8 19.26L177.14 18.22C177.8 19.62 178.52 21.44 178.74 22.64L176.22 23.84C176.04 22.64 175.42 20.72 174.8 19.26ZM181.94 28.46L184.22 27.34C185.14 29.54 186.3 32.42 186.76 34.18L184.28 35.54C183.88 33.7 182.82 30.74 181.94 28.46ZM190.4 18.04H206.8V20.9H190.4V18.04ZM191.38 24.82H205.98V27.68H191.38V24.82ZM189.44 32.18H207.82V35.04H189.44V32.18ZM197.04 18.8H200.12V34.02H197.04V18.8ZM214.76 21.96H225.58V23.96H214.76V21.96ZM222.62 21.22L223.88 19.98C224.5 20.3 225.26 20.8 225.62 21.22L224.3 22.56C223.96 22.14 223.22 21.58 222.62 21.22ZM223.16 24.3L225.36 24.74C224.38 28.14 222.48 30.82 219.94 32.46C219.64 32.02 218.86 31.12 218.4 30.74C220.76 29.4 222.42 27.14 223.16 24.3ZM214.52 29.3C215.94 29.2 217.94 29.02 219.96 28.82L220.02 30.72C218.18 30.96 216.3 31.18 214.74 31.38L214.52 29.3ZM216.96 26.06V26.92H217.76V26.06H216.96ZM215.16 24.6H219.66V28.38H215.16V24.6ZM219.8 20.5H222.18C222.28 25.08 222.82 29.46 223.8 29.78C224 29.86 224.12 29.1 224.2 28C224.62 28.44 225.5 29.14 225.96 29.4C225.64 32.02 224.36 32.78 222.9 32.04C220.52 31.12 220.06 26 219.8 20.5ZM211.5 17.72H228.88V35.96H226V20.32H214.24V35.96H211.5V17.72ZM213.24 32.58H227.56V35.18H213.24V32.58ZM234.8 20.16H240.98V33.86H234.8V31.32H238.36V22.68H234.8V20.16ZM233.12 20.16H235.74V35.28H233.12V20.16ZM234.72 25.38H239.6V27.88H234.72V25.38ZM235.84 16.9L239.02 17.34C238.54 18.76 238.02 20.2 237.62 21.16L235.3 20.66C235.54 19.58 235.78 18.04 235.84 16.9ZM243.5 19.96H249.18V22.6H243.5V19.96ZM248.18 19.96H250.86C250.86 19.96 250.86 20.88 250.84 21.22C250.6 30.12 250.4 33.36 249.56 34.46C248.94 35.34 248.32 35.58 247.44 35.74C246.64 35.88 245.4 35.86 244.2 35.82C244.16 35.04 243.76 33.8 243.24 33C244.52 33.12 245.72 33.12 246.26 33.12C246.66 33.12 246.88 33.04 247.14 32.76C247.78 32.08 248 28.58 248.18 20.5V19.96ZM243.36 16.96L246.16 17.62C245.34 20.56 243.98 23.66 242.62 25.58C242.1 25.1 240.9 24.26 240.24 23.88C241.56 22.24 242.72 19.54 243.36 16.96ZM242.34 26.06L244.62 24.78C245.52 26.14 246.82 28.04 247.42 29.22L244.96 30.72C244.44 29.5 243.24 27.54 242.34 26.06ZM264.44 32.72H270.58V35.2H264.44V32.72ZM265.24 18.72H270.2V21.16H265.24V18.72ZM263.24 28.32H271.74V35.78H268.96V30.74H265.9V35.84H263.24V28.32ZM269.2 18.72H269.7L270.2 18.62L272.04 19.4C270.64 24.48 267.42 27.62 263.2 29.4C262.86 28.74 262.14 27.74 261.58 27.22C265.22 25.92 268.18 22.94 269.2 19.18V18.72ZM265.16 16.88L267.92 17.56C267.04 20.24 265.54 22.88 263.94 24.52C263.46 24 262.34 23.06 261.7 22.64C263.22 21.3 264.5 19.12 265.16 16.88ZM265.48 20C266.62 22.62 269.18 25.52 273.26 26.64C272.68 27.2 271.84 28.36 271.46 29.1C267.34 27.6 264.74 24.18 263.5 21.18L265.48 20ZM254.6 25.68H256.94V32.98H254.6V25.68ZM257.34 20.06V22.06H259.34V20.06H257.34ZM254.84 17.6H262V24.52H254.84V17.6ZM257.62 23.6H260.18V32.42H257.62V23.6ZM253.8 32.48C256 32.12 259.32 31.42 262.38 30.74L262.66 33.3C259.78 34 256.66 34.72 254.28 35.26L253.8 32.48ZM258.68 26.56H262.2V29.08H258.68V26.56ZM276.88 18.78H293.14V35.56H289.94V21.74H279.92V35.56H276.88V18.78ZM278.36 30.98H291.88V33.98H278.36V30.98Z" fill="black"/>
<path d="M17.958 52.482H29.442V54.444H17.958V52.482ZM20.316 57.468V59.25H26.886V57.468H20.316ZM18.354 55.704H28.956V61.014H18.354V55.704ZM20.046 61.194C21.648 63.786 25.05 65.244 29.712 65.676C29.262 66.144 28.722 67.008 28.452 67.602C23.574 66.936 20.244 65.118 18.282 61.734L20.046 61.194ZM22.512 50.826H24.636V59.052C24.636 62.724 23.718 66.072 18.552 67.62C18.3 67.134 17.67 66.27 17.202 65.82C22.044 64.74 22.512 61.986 22.512 59.034V50.826ZM16.59 50.664L18.606 51.312C17.382 54.372 15.402 57.594 13.35 59.628C13.17 59.124 12.594 57.936 12.234 57.414C13.944 55.794 15.618 53.238 16.59 50.664ZM14.844 55.686L16.878 53.634L16.896 53.652V67.656H14.844V55.686ZM32.322 56.172H48.522V58.08H32.322V56.172ZM33.888 52.662H44.184V54.534H33.888V52.662ZM37.056 62.454H45.102V64.074H37.056V62.454ZM37.056 65.28H45.102V67.098H37.056V65.28ZM38.136 50.718H40.26V57.234H38.136V50.718ZM46.056 51.24L47.91 52.194C44.382 57.108 38.892 60.726 33.06 62.868C32.808 62.4 32.16 61.5 31.764 61.068C37.614 59.196 42.906 55.758 46.056 51.24ZM35.85 59.52H46.47V67.566H44.22V61.284H38.01V67.638H35.85V59.52ZM52.068 57.864H67.818V61.788H65.712V59.61H54.066V61.788H52.068V57.864ZM57.288 50.898H59.16V55.56H60.618V50.898H62.58V57.162H57.288V50.898ZM51.852 52.68H67.962V54.354H51.852V52.68ZM54.3 50.916H56.262V53.346C56.262 54.966 55.65 56.712 53.202 57.792C52.95 57.36 52.392 56.73 51.978 56.388C54.012 55.686 54.3 54.372 54.3 53.346V50.916ZM58.728 59.898H60.87V67.602H58.728V59.898ZM53.832 60.96H64.794V62.67H55.92V66.558H53.832V60.96ZM63.966 60.96H66.09V64.614C66.09 65.532 65.892 66.072 65.208 66.36C64.506 66.648 63.57 66.666 62.292 66.666C62.202 66.108 61.896 65.316 61.626 64.794C62.418 64.83 63.39 64.83 63.624 64.83C63.894 64.83 63.966 64.776 63.966 64.578V60.96ZM63.606 50.862H65.532V55.002C65.532 55.524 65.586 55.704 65.874 55.704C66.072 55.704 66.72 55.704 66.954 55.704C67.242 55.704 67.71 55.668 67.962 55.596C67.998 56.082 68.052 56.784 68.124 57.234C67.836 57.324 67.386 57.342 66.972 57.342C66.684 57.342 65.946 57.342 65.694 57.342C63.966 57.342 63.606 56.658 63.606 54.984V50.862ZM78.438 50.772L80.562 51.258C79.806 54.102 78.528 56.928 77.088 58.71C76.71 58.332 75.846 57.63 75.36 57.306C76.728 55.758 77.826 53.274 78.438 50.772ZM77.934 58.782L80.022 59.214C79.518 61.5 78.582 63.804 77.574 65.262C77.16 64.92 76.242 64.362 75.738 64.092C76.746 62.832 77.52 60.78 77.934 58.782ZM78.834 53.94H86.214V55.938H78.024L78.834 53.94ZM80.904 54.822H83.046V65.208C83.046 66.252 82.866 66.846 82.218 67.206C81.588 67.548 80.706 67.638 79.554 67.638C79.446 67.008 79.122 66.054 78.816 65.46C79.572 65.496 80.328 65.478 80.58 65.478C80.814 65.478 80.904 65.424 80.904 65.19V54.822ZM83.676 59.25L85.62 58.602C86.556 60.456 87.33 62.85 87.582 64.488L85.512 65.208C85.314 63.588 84.558 61.104 83.676 59.25ZM85.638 53.94H85.926L86.268 53.886L87.78 54.156C87.564 55.632 87.24 57.306 87.006 58.386L85.152 58.062C85.314 57.09 85.512 55.488 85.638 54.228V53.94ZM74.586 50.79L76.62 51.42C75.45 54.498 73.578 57.738 71.616 59.79C71.418 59.268 70.842 58.08 70.464 57.558C72.102 55.92 73.668 53.364 74.586 50.79ZM72.84 55.758L74.892 53.706L74.91 53.724V67.602H72.84V55.758ZM90.984 52.968H106.644V55.074H90.984V52.968ZM97.554 50.718H99.822V67.62H97.554V50.718ZM97.806 58.854L99.606 59.538C97.842 62.724 94.944 65.478 91.74 66.954C91.398 66.414 90.696 65.532 90.21 65.1C93.324 63.894 96.294 61.446 97.806 58.854ZM99.732 58.998C101.244 61.482 104.196 63.822 107.292 64.956C106.752 65.424 106.05 66.324 105.69 66.936C102.558 65.496 99.714 62.778 97.95 59.7L99.732 58.998ZM93.162 58.206L94.53 56.838C95.34 57.522 96.51 58.512 97.086 59.124L95.664 60.636C95.124 59.988 93.99 58.944 93.162 58.206ZM93.882 55.182L95.988 55.578C95.322 58.206 94.044 60.456 92.37 61.86C92.01 61.464 91.182 60.762 90.696 60.438C92.28 59.286 93.378 57.378 93.882 55.182ZM101.766 58.278L103.17 56.982C104.286 57.828 105.996 59.106 106.824 59.88L105.33 61.374C104.574 60.564 102.918 59.232 101.766 58.278ZM102.378 55.182L104.466 55.56C103.98 57.72 102.99 59.628 101.784 60.834C101.37 60.492 100.452 59.934 99.948 59.7C101.154 58.674 102 57 102.378 55.182ZM110.712 60.042H119.298V61.914H110.712V60.042ZM114.024 58.44H116.058V65.712H114.024V58.44ZM110.118 64.956C112.476 64.632 116.13 64.02 119.514 63.426L119.622 65.28C116.454 65.892 113.034 66.504 110.586 66.954L110.118 64.956ZM110.298 51.78H119.694V53.634H110.298V51.78ZM115.572 54.534L117.12 53.598C118.074 54.804 119.208 56.424 119.658 57.486L118.02 58.548C117.588 57.468 116.508 55.776 115.572 54.534ZM120.396 52.392H122.394V63.318H120.396V52.392ZM123.852 50.916H125.958V64.92C125.958 66.036 125.724 66.612 125.058 66.936C124.356 67.278 123.33 67.35 121.926 67.35C121.836 66.774 121.494 65.838 121.188 65.28C122.142 65.316 123.114 65.316 123.42 65.316C123.744 65.316 123.852 65.208 123.852 64.902V50.916ZM111.306 58.386C111.18 57.954 110.856 56.982 110.622 56.424C110.91 56.352 111.18 56.064 111.468 55.65C111.756 55.254 112.602 53.778 113.07 52.302L115.176 53.094C114.492 54.588 113.412 56.226 112.476 57.306V57.342C112.476 57.342 111.306 57.99 111.306 58.386ZM111.306 58.386L111.27 56.874L112.242 56.262L117.714 55.92C117.948 56.46 118.344 57.162 118.578 57.594C112.71 58.08 111.882 58.134 111.306 58.386ZM136.578 57.072H138.864V65.154C138.864 66.378 138.576 66.972 137.676 67.296C136.776 67.62 135.48 67.656 133.752 67.638C133.626 67.008 133.23 66.054 132.888 65.46C134.166 65.514 135.642 65.514 136.056 65.496C136.452 65.496 136.578 65.406 136.578 65.1V57.072ZM130.314 51.978H142.896V54.102H130.314V51.978ZM142.248 51.978H142.86L143.346 51.852L145.056 53.13C143.22 55.11 140.52 57.306 138.018 58.62C137.694 58.152 137.01 57.432 136.578 57.072C138.738 55.92 141.222 53.868 142.248 52.5V51.978ZM152.562 58.278H154.11V59.682H152.562V58.278ZM155.946 52.716H158.016V67.566H155.946V52.716ZM149.79 55.398H163.38V57.414H151.86V67.566H149.79V55.398ZM162.318 55.398H164.442V65.442C164.442 66.414 164.226 66.918 163.56 67.224C162.912 67.53 161.958 67.566 160.68 67.566C160.572 67.026 160.266 66.216 159.996 65.73C160.77 65.766 161.688 65.766 161.958 65.766C162.228 65.748 162.318 65.676 162.318 65.406V55.398ZM153.696 58.278H154.902C154.902 60.366 155.028 62.454 156.36 64.11C156.054 64.29 155.496 64.722 155.262 64.992C153.858 63.156 153.696 60.582 153.696 58.278ZM153.516 59.466L154.866 59.646C154.578 61.896 153.93 63.786 152.814 65.028C152.58 64.812 152.022 64.398 151.716 64.218C152.778 63.12 153.3 61.428 153.516 59.466ZM159.708 59.376L161.04 59.592C160.752 61.734 160.122 63.642 159.078 64.884C158.844 64.668 158.304 64.254 157.962 64.074C158.952 62.958 159.474 61.266 159.708 59.376ZM158.736 58.278H160.554V59.682H158.736V58.278ZM159.852 58.278H161.112C161.112 60.384 161.22 62.436 162.534 64.092C162.192 64.236 161.598 64.65 161.346 64.884C160.014 63.102 159.852 60.582 159.852 58.278ZM149.196 51.726H164.982V53.85H149.196V51.726ZM169.788 52.158H171.93V56.154C171.93 59.376 171.606 64.398 169.752 67.638C169.356 67.296 168.384 66.738 167.862 66.54C169.644 63.516 169.788 59.106 169.788 56.154V52.158ZM171.228 54.138H183.342V58.386H171.228V56.784H181.218V55.74H171.228V54.138ZM172.128 59.088H176.142V60.708H172.128V59.088ZM175.296 59.088H177.276V65.748C177.276 66.594 177.114 67.062 176.556 67.35C175.998 67.638 175.242 67.656 174.216 67.656C174.144 67.152 173.874 66.432 173.64 65.946C174.216 65.964 174.846 65.964 175.044 65.964C175.224 65.964 175.296 65.91 175.296 65.73V59.088ZM171.3 64.578C172.236 64.29 173.532 63.804 174.864 63.318L175.188 64.776C174.072 65.316 172.902 65.838 171.858 66.27L171.3 64.578ZM172.128 61.572L173.496 60.762C174.09 61.266 174.72 62.004 174.99 62.544L173.514 63.426C173.298 62.904 172.686 62.112 172.128 61.572ZM177.87 59.088H182.334V60.708H177.87V59.088ZM181.632 59.088H183.666V65.676C183.666 66.558 183.504 67.026 182.928 67.332C182.352 67.62 181.578 67.638 180.516 67.638C180.426 67.116 180.174 66.378 179.922 65.892C180.516 65.91 181.164 65.91 181.362 65.91C181.56 65.91 181.632 65.856 181.632 65.658V59.088ZM177.474 64.452C178.428 64.146 179.778 63.642 181.164 63.12L181.488 64.56C180.336 65.118 179.112 65.676 178.05 66.144L177.474 64.452ZM177.978 61.518L179.364 60.672C179.976 61.158 180.642 61.86 180.93 62.418L179.436 63.318C179.184 62.796 178.554 62.04 177.978 61.518ZM182.982 50.88L183.684 52.59C180.03 53.22 174.738 53.634 170.274 53.778C170.238 53.274 169.986 52.572 169.806 52.14C174.306 51.942 179.562 51.474 182.982 50.88ZM194.592 60.798L196.266 61.518C194.52 63.21 191.55 64.452 188.58 64.992C188.328 64.542 187.806 63.84 187.428 63.462C190.254 63.03 193.152 62.076 194.592 60.798ZM197.364 60.834C198.444 63.534 200.784 65.262 204.51 65.874C204.078 66.288 203.538 67.098 203.304 67.638C199.236 66.756 196.896 64.686 195.546 61.212L197.364 60.834ZM201.9 61.734L203.448 62.868C202.332 63.642 200.928 64.398 199.848 64.866L198.552 63.822C199.614 63.3 201.054 62.418 201.9 61.734ZM187.752 60.294H204.168V61.914H187.752V60.294ZM194.826 52.95H204.042V54.75H194.826V52.95ZM195.294 56.964H203.646V58.782H195.294V56.964ZM192.252 50.718H194.286V59.682H192.252V50.718ZM198.336 50.718H200.478V58.062H198.336V50.718ZM187.734 55.29H193.26V56.928H187.734V55.29ZM189.066 55.848H191.028C190.902 57.81 190.47 59.232 188.508 60.078C188.31 59.646 187.806 58.998 187.41 58.674C188.76 58.116 188.994 57.162 189.066 55.848ZM188.49 50.952H190.308V52.77H193.044V54.48H188.49V50.952ZM191.334 67.764L191.208 66.252L192.036 65.64L197.166 64.668C197.076 65.172 197.004 65.946 197.022 66.36C192.432 67.332 191.748 67.512 191.334 67.764ZM191.334 67.764C191.19 67.314 190.812 66.504 190.524 66.144C190.92 65.928 191.478 65.442 191.478 64.524V62.724L193.566 62.706V65.748C193.566 65.748 191.334 67.044 191.334 67.764ZM194.43 59.394L196.554 58.8C196.932 59.448 197.31 60.294 197.454 60.87L195.204 61.536C195.114 60.978 194.772 60.078 194.43 59.394ZM215.796 52.878H223.626V54.822H215.796V52.878ZM215.616 50.664L217.596 51.024C217.074 53.58 216.138 55.992 214.932 57.54C214.59 57.198 213.78 56.55 213.312 56.262C214.446 54.966 215.238 52.842 215.616 50.664ZM217.92 54.156H220.008V67.62H217.92V54.156ZM221.304 56.838H223.266V63.408C223.266 64.236 223.14 64.758 222.654 65.064C222.168 65.37 221.556 65.388 220.728 65.388C220.674 64.866 220.404 64.074 220.17 63.588C220.548 63.588 220.944 63.588 221.106 63.588C221.25 63.588 221.304 63.534 221.304 63.372V56.838ZM214.698 56.838H221.97V58.746H216.588V65.442H214.698V56.838ZM209.082 58.656H212.574V60.15H209.082V58.656ZM209.28 56.19H213.492V62.67H209.262V61.122H211.602V57.738H209.28V56.19ZM210.27 52.806L211.134 51.312C212.07 51.726 213.492 52.392 214.212 52.806L213.33 54.48C212.646 54.03 211.26 53.292 210.27 52.806ZM210.414 50.466L212.088 51.078C211.08 52.968 209.352 54.822 207.624 55.956C207.516 55.542 207.066 54.48 206.796 54.03C208.182 53.202 209.622 51.888 210.414 50.466ZM210.918 63.426L212.376 62.814C212.97 63.93 213.744 65.442 214.086 66.342L212.538 67.098C212.214 66.18 211.494 64.596 210.918 63.426ZM207.876 67.584C207.786 67.098 207.498 66.234 207.21 65.802C207.552 65.658 207.912 65.388 207.912 64.704V56.19H209.766V66.198C209.766 66.198 207.876 66.954 207.876 67.584ZM207.876 67.584L207.678 65.946L208.38 65.316L212.484 63.966C212.52 64.452 212.682 65.172 212.79 65.568C208.92 66.972 208.272 67.278 207.876 67.584ZM209.46 54.12H212.646V55.524H209.46V54.12ZM227.082 57.918H233.004V59.736H227.082V57.918ZM226.65 60.906H243.066V62.76H226.65V60.906ZM227.118 55.056H242.58V56.838H227.118V55.056ZM227.712 63.678H241.878V65.46H227.712V63.678ZM233.688 55.758H235.83V67.62H233.688V55.758ZM229.35 57.144H231.348V60.6H229.35V57.144ZM238.296 57.144H240.312V60.6H238.296V57.144ZM230.592 50.718H232.716V54.66H230.592V50.718ZM236.838 50.718H238.962V54.66H236.838V50.718ZM226.758 51.744H234.516V53.634H226.758V51.744ZM235.128 51.744H242.886V53.634H235.128V51.744ZM236.55 57.828H242.472V59.646H236.55V57.828ZM248.178 56.91H262.236V58.368H248.178V56.91ZM247.188 56.91H249.186V59.988C249.186 62.256 248.844 65.586 247.188 67.692C246.864 67.296 246.018 66.558 245.622 66.324C247.044 64.47 247.188 61.842 247.188 59.952V56.91ZM251.4 58.08H253.326V61.86H251.4V58.08ZM255.612 58.08H257.538V61.86H255.612V58.08ZM250.914 63.21H255.09V64.614H250.914V63.21ZM255.63 62.292H257.628V65.298C257.628 65.784 257.736 65.856 258.384 65.856C258.672 65.856 259.968 65.856 260.364 65.856C260.85 65.856 260.958 65.676 261.03 64.668C261.408 64.938 262.182 65.19 262.704 65.298C262.524 66.954 262.002 67.404 260.562 67.404C260.148 67.404 258.51 67.404 258.114 67.404C256.116 67.404 255.63 66.918 255.63 65.316V62.292ZM248.196 58.998H261.714V62.418H248.196V61.104H259.716V60.33H248.196V58.998ZM246.576 51.222H253.992V52.608H246.576V51.222ZM254.676 51.222H262.218V52.608H254.676V51.222ZM246.99 53.166H253.776V56.478H251.886V54.318H248.826V56.514H246.99V53.166ZM254.982 53.166H261.876V56.478H259.95V54.318H256.836V56.514H254.982V53.166ZM249.042 55.182L250.032 54.3C250.59 54.678 251.256 55.236 251.58 55.65L250.536 56.622C250.23 56.208 249.6 55.596 249.042 55.182ZM257.034 55.182L258.024 54.282C258.6 54.642 259.302 55.218 259.644 55.65L258.618 56.64C258.294 56.19 257.628 55.578 257.034 55.182ZM253.02 56.28L254.964 55.65C255.27 56.172 255.576 56.874 255.666 57.36L253.596 58.026C253.542 57.558 253.29 56.838 253.02 56.28ZM249.618 67.494L249.582 66.18L250.482 65.64L255.162 65.334C255.126 65.802 255.126 66.45 255.144 66.846C250.752 67.188 250.05 67.296 249.618 67.494ZM249.618 67.494C249.564 67.044 249.294 66.234 249.078 65.91C249.384 65.82 249.726 65.658 249.726 65.028V62.112H251.724V66.288C251.724 66.288 249.618 66.918 249.618 67.494ZM256.224 63.21H261.462V64.614H256.224V63.21ZM267.294 53.634H272.82V65.766H267.294V63.858H270.858V55.524H267.294V53.634ZM266.034 53.634H267.996V67.098H266.034V53.634ZM267.204 58.44H271.812V60.312H267.204V58.44ZM268.59 50.7L270.948 51.042C270.534 52.266 270.084 53.544 269.724 54.39L267.996 54.012C268.248 53.076 268.5 51.69 268.59 50.7ZM275.196 53.508H280.452V55.47H275.196V53.508ZM279.714 53.508H281.712C281.712 53.508 281.712 54.21 281.694 54.48C281.46 62.58 281.244 65.442 280.506 66.396C280.002 67.098 279.498 67.296 278.76 67.404C278.076 67.512 276.978 67.494 275.934 67.44C275.898 66.846 275.61 65.928 275.214 65.352C276.384 65.442 277.464 65.46 277.914 65.46C278.274 65.46 278.472 65.388 278.706 65.136C279.282 64.524 279.516 61.428 279.714 53.922V53.508ZM275.25 50.718L277.32 51.204C276.618 53.868 275.448 56.604 274.224 58.332C273.828 57.972 272.946 57.36 272.442 57.072C273.648 55.56 274.674 53.112 275.25 50.718ZM274.368 58.692L276.06 57.738C276.942 58.98 278.13 60.708 278.688 61.77L276.852 62.886C276.366 61.788 275.232 60.024 274.368 58.692ZM285.168 55.56H301.188V57.792H285.168V55.56ZM294.402 56.46C295.482 60.582 297.768 64.002 301.584 65.514C301.044 66 300.324 66.936 299.964 67.566C295.842 65.64 293.592 61.914 292.224 56.964L294.402 56.46ZM291.918 50.718H294.294C294.204 56.208 294.168 63.84 286.446 67.566C286.104 66.972 285.438 66.198 284.808 65.73C292.188 62.436 291.864 55.596 291.918 50.718ZM306.084 54.12H310.602V55.65H306.084V54.12ZM314.4 54.12H318.936V55.65H314.4V54.12ZM318.09 51.438H320.268V64.992C320.268 66.252 320.016 66.864 319.224 67.206C318.432 67.566 317.244 67.62 315.498 67.62C315.39 67.008 315.03 65.982 314.724 65.388C315.858 65.478 317.208 65.46 317.586 65.442C317.964 65.442 318.09 65.334 318.09 64.974V51.438ZM306.264 51.438H311.934V58.422H306.264V56.694H309.9V53.184H306.264V51.438ZM319.26 51.438V53.184H315.228V56.73H319.26V58.458H313.176V51.438H319.26ZM305.022 51.438H307.164V67.62H305.022V51.438ZM323.85 53.382H340.23V55.344H323.85V53.382ZM325.974 59.52H330.654V61.104H325.974V59.52ZM325.974 62.274H330.654V63.876H325.974V62.274ZM333.516 56.766H335.514V64.146H333.516V56.766ZM329.898 56.586H331.986V65.496C331.986 66.414 331.806 66.918 331.194 67.224C330.6 67.548 329.772 67.566 328.656 67.566C328.548 67.026 328.242 66.234 327.972 65.73C328.638 65.766 329.376 65.766 329.592 65.748C329.826 65.748 329.898 65.676 329.898 65.46V56.586ZM337.134 56.28H339.258V65.262C339.258 66.306 339.06 66.864 338.34 67.188C337.656 67.512 336.684 67.584 335.352 67.566C335.244 66.99 334.902 66.072 334.596 65.514C335.514 65.568 336.45 65.568 336.756 65.55C337.044 65.55 337.134 65.478 337.134 65.226V56.28ZM326.334 51.42L328.386 50.7C329.034 51.402 329.754 52.356 330.06 53.04L327.882 53.814C327.63 53.166 326.964 52.14 326.334 51.42ZM335.568 50.664L337.926 51.366C337.188 52.518 336.396 53.67 335.766 54.462L333.822 53.796C334.434 52.95 335.172 51.636 335.568 50.664ZM324.984 56.586H326.928V60.762C326.928 62.868 326.694 65.802 325.362 67.62C325.038 67.278 324.192 66.648 323.742 66.414C324.876 64.794 324.984 62.49 324.984 60.726V56.586ZM326.244 56.586H330.924V58.278H326.244V56.586ZM19.47 89.12L18.894 87.662C20.406 87.194 21.234 86.312 21.234 85.268L21.108 83.504L22.098 85.124C21.81 85.394 21.432 85.52 21.036 85.52C20.136 85.52 19.308 84.926 19.308 83.9C19.308 82.892 20.118 82.28 21.09 82.28C22.35 82.28 23.034 83.252 23.034 84.764C23.034 86.798 21.702 88.454 19.47 89.12ZM39.918 82.118H47.406V84.296H39.918V82.118ZM32.214 90.56H48.666V92.738H32.214V90.56ZM38.694 76.934H41.016V91.766H38.694V76.934ZM57.36 84.656H61.986V86.348H57.36V84.656ZM57.36 87.68H62.004V89.372H57.36V87.68ZM53.868 90.722H66.018V92.702H53.868V90.722ZM52.518 81.416H67.224V93.62H65.028V83.396H54.588V93.62H52.518V81.416ZM56.442 82.73H58.368V91.604H56.442V82.73ZM61.14 82.73H63.084V91.586H61.14V82.73ZM58.476 78.68L61.032 79.22C60.6 80.552 60.204 81.956 59.844 82.892L57.864 82.37C58.116 81.326 58.404 79.814 58.476 78.68ZM51.762 77.744H68.034V79.796H51.762V77.744ZM71.76 78.626H77.988V80.48H71.76V78.626ZM73.92 90.902H78.438V92.648H73.92V90.902ZM73.92 88.022H78.492V89.66H73.92V88.022ZM70.986 81.956H80.202V83.828H70.986V81.956ZM74.136 76.862H76.134V83.198H74.136V76.862ZM78.87 77.51L80.814 78.068C78.978 82.784 75.828 86.438 71.76 88.634C71.526 88.166 70.896 87.266 70.518 86.834C74.388 84.998 77.304 81.758 78.87 77.51ZM74.604 85.16H78.402V86.888H74.604V93.584H72.66V86.402L73.83 85.16H74.604ZM77.538 85.16H79.59V93.332H77.538V85.16ZM80.778 77.726H86.07V79.742H82.902V93.602H80.778V77.726ZM85.566 77.726H85.98L86.304 77.636L87.87 78.608C87.24 80.336 86.43 82.388 85.71 83.99C87.222 85.592 87.546 87.014 87.546 88.202C87.546 89.552 87.24 90.434 86.538 90.902C86.178 91.154 85.746 91.316 85.26 91.37C84.828 91.424 84.252 91.442 83.694 91.406C83.676 90.83 83.46 89.894 83.118 89.318C83.586 89.354 83.946 89.372 84.27 89.354C84.54 89.354 84.81 89.3 85.008 89.192C85.35 88.994 85.476 88.58 85.476 87.968C85.476 86.978 85.062 85.646 83.586 84.26C84.324 82.496 85.17 79.76 85.566 78.464V77.726ZM91.92 77.456H98.004V79.256H91.92V77.456ZM92.46 80.552H97.824V82.136H92.46V80.552ZM92.424 83.252H97.86V84.746H92.424V83.252ZM93.954 85.538H96.834V90.29H93.954V88.832H95.646V86.978H93.954V85.538ZM93.234 85.538H94.476V91.19H93.234V85.538ZM94.296 78.77H95.772V84.206H94.296V78.77ZM97.284 77.456H99.066V91.19C99.066 92.072 98.904 92.666 98.346 93.008C97.77 93.332 96.996 93.404 95.898 93.386C95.826 92.864 95.484 91.964 95.214 91.46C95.988 91.496 96.726 91.478 96.978 91.478C97.212 91.478 97.284 91.406 97.284 91.136V77.456ZM91.11 77.456H92.838V84.764C92.838 87.41 92.712 91.154 91.776 93.548C91.434 93.278 90.642 92.846 90.21 92.702C91.056 90.47 91.11 87.212 91.11 84.764V77.456ZM100.866 83.648H106.896V85.466H100.866V83.648ZM100.866 87.212H106.896V89.03H100.866V87.212ZM100.92 90.83H107.274V92.792H100.92V90.83ZM101.154 76.718L102.972 77.168C102.198 80.084 100.902 83.126 99.462 85.106C99.228 84.692 98.598 83.828 98.22 83.432C99.48 81.794 100.524 79.238 101.154 76.718ZM101.964 80.066H107.058V81.992H101.964V93.638H100.11V81.758L101.604 80.066H101.964ZM103.368 80.984H105.132V91.802H103.368V80.984ZM103.026 77.564L104.592 76.952C104.988 77.798 105.384 78.914 105.546 79.634L103.926 80.336C103.782 79.58 103.404 78.428 103.026 77.564ZM113.448 77.06L115.464 76.574C115.968 77.312 116.436 78.32 116.598 79.022L114.456 79.544C114.33 78.878 113.898 77.852 113.448 77.06ZM109.956 78.824H120.09V80.786H109.956V78.824ZM115.554 89.822L117.012 88.598C118.092 89.48 119.676 90.776 120.432 91.604L118.902 93.008C118.2 92.144 116.688 90.794 115.554 89.822ZM110.874 85.358C110.766 84.944 110.442 83.972 110.208 83.414C110.568 83.342 110.91 83.072 111.324 82.676C111.756 82.262 113.088 80.768 113.898 79.274L115.86 80.21C114.78 81.722 113.304 83.324 111.936 84.368V84.422C111.936 84.422 110.874 84.998 110.874 85.358ZM110.874 85.358L110.82 83.864L111.774 83.27L116.418 83.054C116.418 83.594 116.454 84.35 116.508 84.782C112.08 85.07 111.324 85.16 110.874 85.358ZM117.048 81.362L119.01 81.992C117.336 85.376 114.51 88.13 111.36 89.804C111.09 89.372 110.46 88.454 110.064 88.04C113.052 86.672 115.68 84.296 117.048 81.362ZM118.236 84.746L120.198 85.502C118.164 89.066 114.762 91.928 111.144 93.656C110.892 93.188 110.244 92.234 109.848 91.802C113.34 90.398 116.508 87.878 118.236 84.746ZM124.014 76.916H126.156V91.118C126.156 92.288 125.904 92.846 125.202 93.188C124.5 93.512 123.42 93.566 121.836 93.566C121.764 92.99 121.44 92.072 121.152 91.496C122.16 91.55 123.24 91.55 123.564 91.532C123.888 91.532 124.014 91.424 124.014 91.1V76.916ZM120.846 78.68H122.88V88.832H120.846V78.68ZM129.594 83.918H145.758V85.79H129.594V83.918ZM131.088 81.146H141.546V82.91H131.088V81.146ZM134.526 89.246H142.536V90.596H134.526V89.246ZM134.526 91.496H142.536V93.134H134.526V91.496ZM135.426 80.156H137.568V85.07H135.426V80.156ZM143.922 80.696L145.524 81.686C141.852 85.412 135.858 87.752 130.026 89.084C129.828 88.634 129.36 87.77 129.054 87.356C134.886 86.276 140.7 84.044 143.922 80.696ZM133.014 86.744H144.228V93.584H142.014V88.364H135.12V93.584H133.014V86.744ZM129.576 77.69H137.298V79.544H129.576V77.69ZM132.852 76.7H134.994V80.624H132.852V76.7ZM140.412 76.7H142.554V80.624H140.412V76.7ZM137.946 77.69H145.686V79.544H137.946V77.69ZM152.724 91.082H161.76V92.972H152.724V91.082ZM154.614 76.52L156.666 77.24C155.172 79.778 152.778 82.082 150.456 83.504C150.114 83.09 149.322 82.262 148.854 81.902C151.176 80.714 153.372 78.716 154.614 76.52ZM161.166 78.446H161.616L161.976 78.338L163.524 79.328C160.824 83.702 155.1 86.294 149.556 87.5C149.358 86.924 148.89 86.042 148.494 85.556C153.606 84.638 159.078 82.208 161.166 78.77V78.446ZM153.696 79.472C156 82.37 160.59 84.548 165.774 85.376C165.27 85.862 164.676 86.798 164.37 87.392C159.114 86.366 154.65 83.918 151.878 80.318L153.696 79.472ZM151.626 86.87H162.678V93.584H160.374V88.814H153.804V93.656H151.626V86.87ZM154.56 78.446H161.652V80.3H153.264L154.56 78.446ZM180.354 77.906L181.794 76.718C182.604 77.276 183.666 78.122 184.17 78.716L182.658 80.012C182.19 79.4 181.182 78.5 180.354 77.906ZM168.438 79.778H184.638V81.884H168.438V79.778ZM169.104 83.954H176.898V86.042H169.104V83.954ZM171.84 85.142H174V91.244H171.84V85.142ZM168.42 90.938C170.598 90.614 174.126 90.002 177.366 89.39L177.528 91.316C174.558 91.964 171.372 92.63 169.032 93.116L168.42 90.938ZM177.276 76.79H179.598C179.436 84.188 180.804 91.37 182.514 91.37C182.91 91.37 183.108 90.38 183.216 88.112C183.702 88.616 184.494 89.138 185.106 89.354C184.782 92.792 184.044 93.638 182.334 93.638C178.428 93.638 177.294 85.124 177.276 76.79ZM191.604 91.082H200.64V92.972H191.604V91.082ZM193.494 76.52L195.546 77.24C194.052 79.778 191.658 82.082 189.336 83.504C188.994 83.09 188.202 82.262 187.734 81.902C190.056 80.714 192.252 78.716 193.494 76.52ZM200.046 78.446H200.496L200.856 78.338L202.404 79.328C199.704 83.702 193.98 86.294 188.436 87.5C188.238 86.924 187.77 86.042 187.374 85.556C192.486 84.638 197.958 82.208 200.046 78.77V78.446ZM192.576 79.472C194.88 82.37 199.47 84.548 204.654 85.376C204.15 85.862 203.556 86.798 203.25 87.392C197.994 86.366 193.53 83.918 190.758 80.318L192.576 79.472ZM190.506 86.87H201.558V93.584H199.254V88.814H192.684V93.656H190.506V86.87ZM193.44 78.446H200.532V80.3H192.144L193.44 78.446ZM212.988 88.256H215.85V89.696H212.988V88.256ZM214.518 86.168H218.568V87.644H214.518V86.168ZM213.636 78.734H223.5V80.246H213.636V78.734ZM213.132 83.09H223.788V84.674H213.132V83.09ZM214.284 80.912H223.05V82.388H214.284V80.912ZM217.434 79.616H219.504V83.846H217.434V79.616ZM217.47 86.168H219.468V91.676C219.468 92.558 219.324 93.044 218.712 93.332C218.118 93.62 217.308 93.638 216.21 93.638C216.138 93.116 215.904 92.36 215.67 91.874C216.282 91.892 216.984 91.892 217.182 91.892C217.398 91.892 217.47 91.838 217.47 91.64V86.168ZM216.282 85.25L217.344 84.062C218.694 84.422 220.548 85.088 221.538 85.628L220.422 86.924C219.504 86.384 217.686 85.664 216.282 85.25ZM214.734 77.294L216.336 76.718C216.75 77.258 217.2 78.032 217.416 78.536L215.76 79.22C215.562 78.698 215.13 77.888 214.734 77.294ZM215.454 88.256H215.778L216.084 88.202L217.272 88.67C216.624 90.884 215.238 92.468 213.546 93.35C213.294 92.936 212.772 92.288 212.412 91.964C213.798 91.334 215.04 90.002 215.454 88.526V88.256ZM222.168 86.618L223.752 87.806C222.654 88.58 221.502 89.39 220.602 89.912L219.486 88.976C220.332 88.364 221.502 87.356 222.168 86.618ZM220.458 76.7L222.348 77.258C221.826 77.978 221.358 78.626 220.962 79.112L219.486 78.59C219.828 78.05 220.224 77.258 220.458 76.7ZM219.432 87.266C220.296 89.156 222.024 90.812 224.094 91.568C223.68 91.946 223.086 92.666 222.798 93.17C220.674 92.126 219.018 90.056 218.1 87.662L219.432 87.266ZM207.21 80.444H213.168V82.442H207.21V80.444ZM209.406 76.718H211.368V93.62H209.406V76.718ZM209.37 81.812L210.576 82.226C210.054 85.07 209.028 88.544 207.75 90.398C207.57 89.822 207.102 88.994 206.796 88.49C207.948 86.924 208.956 84.098 209.37 81.812ZM211.278 83.126C211.674 83.612 213.15 85.88 213.456 86.384L212.34 87.932C211.926 86.888 210.864 84.836 210.378 83.99L211.278 83.126ZM228.414 79.634H233.94V91.766H228.414V89.858H231.978V81.524H228.414V79.634ZM227.154 79.634H229.116V93.098H227.154V79.634ZM228.324 84.44H232.932V86.312H228.324V84.44ZM229.71 76.7L232.068 77.042C231.654 78.266 231.204 79.544 230.844 80.39L229.116 80.012C229.368 79.076 229.62 77.69 229.71 76.7ZM236.316 79.508H241.572V81.47H236.316V79.508ZM240.834 79.508H242.832C242.832 79.508 242.832 80.21 242.814 80.48C242.58 88.58 242.364 91.442 241.626 92.396C241.122 93.098 240.618 93.296 239.88 93.404C239.196 93.512 238.098 93.494 237.054 93.44C237.018 92.846 236.73 91.928 236.334 91.352C237.504 91.442 238.584 91.46 239.034 91.46C239.394 91.46 239.592 91.388 239.826 91.136C240.402 90.524 240.636 87.428 240.834 79.922V79.508ZM236.37 76.718L238.44 77.204C237.738 79.868 236.568 82.604 235.344 84.332C234.948 83.972 234.066 83.36 233.562 83.072C234.768 81.56 235.794 79.112 236.37 76.718ZM235.488 84.692L237.18 83.738C238.062 84.98 239.25 86.708 239.808 87.77L237.972 88.886C237.486 87.788 236.352 86.024 235.488 84.692ZM252.336 80.75V81.47H256.044V80.75H252.336ZM250.626 79.67H257.862V82.55H250.626V79.67ZM251.652 85.97V89.426H256.746V85.97H251.652ZM250.014 84.8H258.492V90.614H250.014V84.8ZM253.542 87.392V88.004H254.82V87.392H253.542ZM252.39 86.492H256.062V88.904H252.39V86.492ZM249.168 83.09H259.41V84.26H249.168V83.09ZM253.272 81.848H255.09V83.612H253.272V81.848ZM246.558 77.33H262.056V93.62H259.95V79.094H248.574V93.62H246.558V77.33ZM247.836 91.208H261.012V92.99H247.836V91.208ZM272.568 86.546H274.746V93.602H272.568V86.546ZM265.998 77.924H281.478V80.696H279.39V79.706H267.996V80.696H265.998V77.924ZM265.692 81.29H281.748V82.964H265.692V81.29ZM265.53 87.788H281.928V89.57H265.53V87.788ZM277.032 80.174L279.174 80.606C277.482 85.61 273.882 86.78 266.286 87.212C266.124 86.564 265.854 85.88 265.548 85.43C272.532 85.25 275.79 84.26 277.032 80.174ZM267.78 84.458L269.472 83.162C274.044 83.828 278.85 84.962 281.766 85.952L279.696 87.356C277.122 86.312 272.604 85.196 267.78 84.458ZM272.028 77.186L274.314 76.7C274.656 77.276 275.124 78.068 275.34 78.59L272.928 79.148C272.748 78.644 272.334 77.78 272.028 77.186ZM267.78 84.458C269.184 83.18 271.02 81.146 272.028 79.49L274.044 80.102C272.91 81.686 271.182 83.432 269.958 84.458H267.78ZM269.49 89.552L271.668 90.272C270.606 91.496 268.824 92.63 267.312 93.314C266.88 92.9 266.016 92.198 265.494 91.874C267.06 91.352 268.644 90.488 269.49 89.552ZM275.592 90.614L277.158 89.264C278.67 89.984 280.758 91.154 281.82 92.018L280.146 93.53C279.192 92.666 277.158 91.406 275.592 90.614ZM291.63 89.12L291.054 87.662C292.566 87.194 293.394 86.312 293.394 85.268L293.268 83.504L294.258 85.124C293.97 85.394 293.592 85.52 293.196 85.52C292.296 85.52 291.468 84.926 291.468 83.9C291.468 82.892 292.278 82.28 293.25 82.28C294.51 82.28 295.194 83.252 295.194 84.764C295.194 86.798 293.862 88.454 291.63 89.12ZM309.126 81.326H320.79V82.712H309.126V81.326ZM312.348 84.53V85.43H317.37V84.53H312.348ZM310.44 83.342H319.368V86.636H310.44V83.342ZM317.028 78.374V79.526H318.162V78.374H317.028ZM314.292 78.374V79.526H315.39V78.374H314.292ZM311.574 78.374V79.526H312.654V78.374H311.574ZM309.828 77.186H319.998V80.714H309.828V77.186ZM319.188 86.348L320.52 87.356C319.764 87.968 318.828 88.526 318.144 88.904L317.01 87.986C317.676 87.59 318.63 86.852 319.188 86.348ZM314.436 85.754L315.75 86.384C314.364 87.644 311.916 88.868 309.99 89.48C309.756 89.12 309.288 88.544 308.946 88.238C310.836 87.752 313.212 86.762 314.436 85.754ZM311.718 91.604L311.556 90.146L312.24 89.588L315.984 88.526C316.02 88.976 316.128 89.66 316.218 90.038C312.672 91.136 312.078 91.352 311.718 91.604ZM314.724 87.842L316.02 86.924C317.406 87.806 319.422 89.12 320.466 89.93L319.098 91.01C318.126 90.182 316.146 88.796 314.724 87.842ZM311.718 91.604C311.646 91.226 311.376 90.542 311.16 90.254C311.448 90.146 311.772 89.912 311.772 89.246V87.644H313.482V90.38C313.482 90.38 311.718 91.082 311.718 91.604ZM304.788 77.672L306.408 76.718C307.218 77.582 308.172 78.716 308.658 79.454L306.966 80.606C306.516 79.832 305.544 78.572 304.788 77.672ZM304.32 80.912H307.83V82.64H304.32V80.912ZM307.956 88.742C308.91 91.172 311.034 91.46 314.328 91.478C316.272 91.478 319.242 91.37 321.294 91.172C320.988 91.604 320.718 92.576 320.61 93.152C318.72 93.278 316.398 93.314 314.292 93.314C310.08 93.314 307.848 92.774 306.516 89.318L307.956 88.742ZM307.128 85.286H307.776L308.118 85.25L309.018 85.61C308.514 89.516 307.254 92.234 305.418 93.656C305.13 93.26 304.428 92.522 304.014 92.234C305.706 91.01 306.768 88.724 307.128 85.61V85.286ZM304.77 87.248V85.7L305.544 85.286H308.172V86.96H305.886C305.454 86.96 304.932 87.086 304.77 87.248ZM304.77 87.248C304.662 86.798 304.284 85.88 304.086 85.52C304.374 85.43 304.662 85.286 304.95 84.926C305.418 84.422 306.822 82.064 307.344 81.056V81.02L307.866 80.786L309.18 81.29C308.46 82.55 307.092 84.908 306.192 86.06C306.192 86.06 304.77 86.762 304.77 87.248ZM324.012 78.896H340.068V80.912H324.012V78.896ZM328.584 85.376H336.648V87.176H328.584V85.376ZM335.946 82.334H338.052V91.28C338.052 92.342 337.854 92.936 337.116 93.278C336.396 93.602 335.37 93.62 333.912 93.62C333.822 93.026 333.534 92.108 333.246 91.55C334.182 91.604 335.244 91.586 335.55 91.586C335.838 91.586 335.946 91.496 335.946 91.244V82.334ZM329.592 76.7L331.824 77.204C330.582 81.182 328.44 85.232 325.038 87.626C324.714 87.14 324.03 86.366 323.598 85.952C326.712 83.9 328.71 80.102 329.592 76.7ZM328.53 88.346H336.648V90.146H328.53V88.346ZM328.458 82.334H336.432V84.242H328.458V82.334ZM327.27 82.334H329.448V87.158C329.448 89.318 329.088 92.126 327.144 93.764C326.856 93.314 326.01 92.396 325.578 92.09C327.144 90.74 327.27 88.814 327.27 87.122V82.334ZM12.684 109.81H29.352V112.168H12.684V109.81ZM35.85 106.93H46.812V108.298H35.85V106.93ZM35.85 109.018H46.812V110.386H35.85V109.018ZM39.972 105.346H42.06V111.916H39.972V105.346ZM36.066 102.646L38.082 103.294C36.948 105.652 35.13 107.938 33.402 109.378C33.042 108.982 32.268 108.208 31.8 107.848C33.51 106.642 35.13 104.68 36.066 102.646ZM33.132 113.482H44.922V115.156H33.132V113.482ZM44.526 113.482H44.976L45.318 113.392L46.65 114.184C44.184 117.892 38.766 119.188 33.006 119.638C32.862 119.098 32.538 118.216 32.214 117.748C37.614 117.496 42.672 116.434 44.526 113.752V113.482ZM37.236 114.49C39.342 116.416 43.716 117.388 48.576 117.658C48.162 118.126 47.64 118.99 47.388 119.53C42.402 119.116 38.1 117.856 35.472 115.318L37.236 114.49ZM39.666 103.276L41.664 102.718C42.042 103.438 42.492 104.41 42.708 105.022L40.584 105.67C40.422 105.04 40.026 104.032 39.666 103.276ZM34.968 111.124H47.838V112.672H34.968V111.124ZM36.462 104.608H47.406V106.21H36.462V113.086H34.464V105.688L35.526 104.608H36.462ZM59.682 112.978H66.882V114.76H59.682V112.978ZM59.646 116.65H66.918V118.522H59.646V116.65ZM59.988 102.88H61.968V108.64H59.988V102.88ZM64.542 102.88H66.558V108.64H64.542V102.88ZM62.292 110.332H64.128V117.604H62.292V110.332ZM58.854 109.306H67.62V119.44H65.568V111.178H60.798V119.602H58.854V109.306ZM54.372 109.234L55.776 108.388C58.512 111.232 58.548 117.028 57.324 118.504C56.802 119.206 56.19 119.458 55.38 119.476C55.038 119.476 54.534 119.476 54.102 119.44C54.066 118.9 53.94 118.126 53.652 117.586C54.138 117.64 54.642 117.658 54.948 117.658C55.308 117.658 55.578 117.586 55.812 117.172C56.496 116.308 56.622 111.61 54.372 109.234ZM55.758 110.458L57 111.322C55.902 112.438 53.904 113.806 52.41 114.58C52.176 114.13 51.762 113.464 51.42 113.086C52.86 112.528 54.804 111.412 55.758 110.458ZM56.55 112.6L57.81 113.482C56.514 115.084 54.156 116.92 52.212 117.91C51.978 117.442 51.564 116.758 51.186 116.362C53.076 115.624 55.398 114.022 56.55 112.6ZM51.924 107.236L53.328 106.534C53.796 107.218 54.39 108.154 54.642 108.748L53.148 109.576C52.95 108.946 52.392 107.974 51.924 107.236ZM54.57 106.246L55.938 105.508C56.334 106.066 56.82 106.822 57.036 107.326L55.614 108.154C55.398 107.65 54.948 106.84 54.57 106.246ZM57.594 106.102L58.836 107.29C57.252 109 54.858 110.458 52.536 111.448C52.302 111.034 51.87 110.386 51.51 110.044C53.814 109.108 56.19 107.632 57.594 106.102ZM56.892 102.736L58.044 104.032C56.604 105.058 54.39 105.85 52.392 106.336C52.158 105.886 51.78 105.184 51.402 104.788C53.346 104.374 55.56 103.564 56.892 102.736ZM58.35 104.824H62.958V106.822H58.35V104.824ZM63.534 104.842H68.34V106.822H63.534V104.842ZM72.66 104.014H76.98V116.092H72.66V114.112H74.964V105.976H72.66V104.014ZM71.49 104.014H73.488V117.802H71.49V104.014ZM81.3 102.718H83.37V119.62H81.3V102.718ZM77.43 109.27H87.636V111.268H77.43V109.27ZM79.302 112.114L80.958 112.546C80.382 115.192 79.356 117.838 77.952 119.368C77.61 118.864 76.962 118.144 76.494 117.766C77.754 116.56 78.78 114.292 79.302 112.114ZM85.17 103.816L87.42 104.554C86.718 106.084 85.962 107.794 85.35 108.91L83.712 108.262C84.234 107.056 84.864 105.184 85.17 103.816ZM77.43 104.68L79.158 103.906C79.824 105.22 80.526 106.912 80.742 108.01L78.87 108.892C78.672 107.794 78.06 106.03 77.43 104.68ZM83.748 112.888L85.44 112.042C86.394 114.058 87.528 116.668 87.96 118.27L86.124 119.296C85.728 117.622 84.684 114.94 83.748 112.888ZM92.334 105.634H97.86V117.766H92.334V115.858H95.898V107.524H92.334V105.634ZM91.074 105.634H93.036V119.098H91.074V105.634ZM92.244 110.44H96.852V112.312H92.244V110.44ZM93.63 102.7L95.988 103.042C95.574 104.266 95.124 105.544 94.764 106.39L93.036 106.012C93.288 105.076 93.54 103.69 93.63 102.7ZM100.236 105.508H105.492V107.47H100.236V105.508ZM104.754 105.508H106.752C106.752 105.508 106.752 106.21 106.734 106.48C106.5 114.58 106.284 117.442 105.546 118.396C105.042 119.098 104.538 119.296 103.8 119.404C103.116 119.512 102.018 119.494 100.974 119.44C100.938 118.846 100.65 117.928 100.254 117.352C101.424 117.442 102.504 117.46 102.954 117.46C103.314 117.46 103.512 117.388 103.746 117.136C104.322 116.524 104.556 113.428 104.754 105.922V105.508ZM100.29 102.718L102.36 103.204C101.658 105.868 100.488 108.604 99.264 110.332C98.868 109.972 97.986 109.36 97.482 109.072C98.688 107.56 99.714 105.112 100.29 102.718ZM99.408 110.692L101.1 109.738C101.982 110.98 103.17 112.708 103.728 113.77L101.892 114.886C101.406 113.788 100.272 112.024 99.408 110.692ZM116.256 106.75V107.47H119.964V106.75H116.256ZM114.546 105.67H121.782V108.55H114.546V105.67ZM115.572 111.97V115.426H120.666V111.97H115.572ZM113.934 110.8H122.412V116.614H113.934V110.8ZM117.462 113.392V114.004H118.74V113.392H117.462ZM116.31 112.492H119.982V114.904H116.31V112.492ZM113.088 109.09H123.33V110.26H113.088V109.09ZM117.192 107.848H119.01V109.612H117.192V107.848ZM110.478 103.33H125.976V119.62H123.87V105.094H112.494V119.62H110.478V103.33ZM111.756 117.208H124.932V118.99H111.756V117.208ZM137.172 103.996H141.654V105.598H137.172V103.996ZM136.902 108.082V109.18H142.968V108.082H136.902ZM135.03 106.534H144.948V110.728H135.03V106.534ZM137.928 111.466L139.386 110.638C142.428 112.996 142.446 117.478 141.204 118.756C140.664 119.368 140.124 119.548 139.368 119.566C139.026 119.584 138.63 119.566 138.234 119.53C138.198 119.026 138.072 118.234 137.73 117.712C138.216 117.766 138.612 117.784 138.936 117.784C139.278 117.784 139.53 117.712 139.728 117.388C140.358 116.65 140.34 113.356 137.928 111.466ZM138.882 112.15L140.196 112.798C138.918 114.04 136.668 115.318 134.886 115.966C134.634 115.57 134.13 114.94 133.77 114.616C135.534 114.13 137.73 113.14 138.882 112.15ZM139.764 113.932L141.204 114.634C139.71 116.308 137.118 117.91 134.868 118.702C134.58 118.252 134.04 117.568 133.626 117.208C135.876 116.578 138.45 115.282 139.764 113.932ZM137.064 102.736L139.062 103.114C138.036 105.076 136.56 107.02 134.436 108.622C134.166 108.172 133.572 107.488 133.158 107.182C135.012 105.904 136.326 104.176 137.064 102.736ZM140.88 103.996H141.312L141.708 103.888L142.914 104.806C142.194 105.904 141.186 107.11 140.304 107.92C140.052 107.56 139.53 107.002 139.224 106.714C139.818 106.102 140.556 105.022 140.88 104.338V103.996ZM132.834 102.79L134.868 103.42C133.77 106.48 131.97 109.72 130.062 111.79C129.864 111.268 129.27 110.08 128.91 109.558C130.476 107.902 131.952 105.346 132.834 102.79ZM131.106 107.812L133.158 105.76V105.778V119.584H131.106V107.812ZM138.9 107.074H140.826V109.882H138.9V107.074ZM138.63 109.774L139.944 110.404C138.702 111.628 136.542 112.924 134.796 113.536C134.544 113.14 134.04 112.528 133.68 112.222C135.408 111.736 137.514 110.728 138.63 109.774ZM143.922 110.854L145.38 112.204C144.048 112.96 142.428 113.752 141.204 114.202L140.124 113.068C141.294 112.528 142.95 111.574 143.922 110.854ZM143.472 112.528C143.976 114.364 144.948 116.146 146.298 117.01C145.866 117.37 145.254 118.108 144.966 118.612C143.436 117.424 142.428 115.246 141.888 112.924L143.472 112.528ZM155.55 115.12L154.974 113.662C156.486 113.194 157.314 112.312 157.314 111.268L157.188 109.504L158.178 111.124C157.89 111.394 157.512 111.52 157.116 111.52C156.216 111.52 155.388 110.926 155.388 109.9C155.388 108.892 156.198 108.28 157.17 108.28C158.43 108.28 159.114 109.252 159.114 110.764C159.114 112.798 157.782 114.454 155.55 115.12ZM175.638 102.772L177.762 103.258C177.006 106.102 175.728 108.928 174.288 110.71C173.91 110.332 173.046 109.63 172.56 109.306C173.928 107.758 175.026 105.274 175.638 102.772ZM175.134 110.782L177.222 111.214C176.718 113.5 175.782 115.804 174.774 117.262C174.36 116.92 173.442 116.362 172.938 116.092C173.946 114.832 174.72 112.78 175.134 110.782ZM176.034 105.94H183.414V107.938H175.224L176.034 105.94ZM178.104 106.822H180.246V117.208C180.246 118.252 180.066 118.846 179.418 119.206C178.788 119.548 177.906 119.638 176.754 119.638C176.646 119.008 176.322 118.054 176.016 117.46C176.772 117.496 177.528 117.478 177.78 117.478C178.014 117.478 178.104 117.424 178.104 117.19V106.822ZM180.876 111.25L182.82 110.602C183.756 112.456 184.53 114.85 184.782 116.488L182.712 117.208C182.514 115.588 181.758 113.104 180.876 111.25ZM182.838 105.94H183.126L183.468 105.886L184.98 106.156C184.764 107.632 184.44 109.306 184.206 110.386L182.352 110.062C182.514 109.09 182.712 107.488 182.838 106.228V105.94ZM171.786 102.79L173.82 103.42C172.65 106.498 170.778 109.738 168.816 111.79C168.618 111.268 168.042 110.08 167.664 109.558C169.302 107.92 170.868 105.364 171.786 102.79ZM170.04 107.758L172.092 105.706L172.11 105.724V119.602H170.04V107.758ZM191.478 109.252V111.52H200.316V109.252H191.478ZM189.678 107.92H202.242V112.834H189.678V107.92ZM192.774 105.886H199.128V107.29H192.774V105.886ZM194.988 108.37H196.734V112.168H194.988V108.37ZM192.108 109.648L193.602 109.234C193.926 109.846 194.214 110.638 194.322 111.178L192.738 111.646C192.666 111.106 192.414 110.26 192.108 109.648ZM198.066 109.162L199.848 109.594C199.47 110.368 199.092 111.124 198.804 111.628L197.328 111.232C197.598 110.638 197.922 109.756 198.066 109.162ZM190.668 113.428H201.324V119.548H199.11V114.832H192.792V119.62H190.668V113.428ZM191.892 115.552H200.028V116.974H191.892V115.552ZM191.892 117.712H200.028V119.116H191.892V117.712ZM195.582 102.556L197.49 103.258C195.492 105.796 192.054 107.578 188.544 108.64C188.328 108.208 187.77 107.344 187.41 106.966C190.74 106.156 193.944 104.644 195.582 102.556ZM197.004 103.384C198.606 104.932 201.72 106.228 204.726 106.84C204.276 107.218 203.664 107.992 203.358 108.478C200.334 107.704 197.256 106.048 195.402 104.032L197.004 103.384ZM212.556 110.206H222.906V111.772H212.556V110.206ZM211.89 112.906H223.554V114.472H211.89V112.906ZM214.734 109.27H216.714V113.788H214.734V109.27ZM218.694 109.27H220.692V113.788H218.694V109.27ZM218.406 115.21L219.81 114.274C220.998 114.85 222.402 115.624 223.194 116.2L221.268 117.082C220.638 116.524 219.468 115.75 218.406 115.21ZM215.364 114.328L217.254 114.994C216.354 115.84 214.914 116.65 213.708 117.154C213.33 116.794 212.574 116.164 212.106 115.876C213.33 115.498 214.608 114.922 215.364 114.328ZM213.15 103.312H217.362V106.768H213.15V105.436H215.562V104.644H213.15V103.312ZM218.856 103.33H223.194V106.786H218.856V105.454H221.358V104.662H218.856V103.33ZM218.046 103.33H219.756V106.876C219.756 107.362 219.81 107.542 220.188 107.542C220.512 107.542 221.736 107.542 222.06 107.542C222.42 107.542 222.996 107.524 223.32 107.434C223.356 107.884 223.392 108.496 223.464 108.892C223.158 108.982 222.618 109.018 222.114 109.018C221.754 109.018 220.404 109.018 220.08 109.018C218.442 109.018 218.046 108.406 218.046 106.84V103.33ZM212.448 109.54L212.376 108.262L213.132 107.758L217.398 107.164C217.254 107.596 217.128 108.298 217.092 108.658C213.42 109.252 212.808 109.36 212.448 109.54ZM212.448 109.54C212.358 109.108 212.016 108.334 211.764 107.956C212.052 107.794 212.34 107.488 212.34 106.786V103.312H214.014V108.136C214.014 108.136 212.448 108.982 212.448 109.54ZM207.336 103.726L208.92 102.736C209.784 103.6 210.81 104.734 211.35 105.454L209.694 106.642C209.208 105.886 208.164 104.626 207.336 103.726ZM207.156 106.948H210.468V108.676H207.156V106.948ZM210.774 114.742C211.746 117.172 213.87 117.46 217.128 117.478C219.072 117.478 222.042 117.352 224.094 117.154C223.788 117.604 223.5 118.576 223.392 119.17C221.52 119.278 219.216 119.332 217.092 119.332C212.898 119.332 210.666 118.774 209.334 115.318L210.774 114.742ZM210.018 111.286H210.54L210.882 111.25L211.908 111.61C211.368 115.534 210.036 118.216 208.146 119.638C207.858 119.206 207.156 118.486 206.742 118.198C208.506 116.992 209.622 114.724 210.018 111.61V111.286ZM207.57 113.248V111.7L208.326 111.286H210.612V112.96H208.632C208.236 112.96 207.714 113.086 207.57 113.248ZM207.57 113.248C207.462 112.798 207.084 111.88 206.886 111.52C207.174 111.43 207.444 111.304 207.75 110.926C208.2 110.44 209.568 108.082 210.072 107.11V107.056L210.594 106.84L211.908 107.344C211.206 108.586 209.874 110.908 208.992 112.06C208.992 112.06 207.57 112.762 207.57 113.248ZM239.808 104.752V105.922H240.942V104.752H239.808ZM237.09 104.752V105.922H238.188V104.752H237.09ZM234.39 104.752V105.922H235.452V104.752H234.39ZM232.716 103.312H242.688V107.344H232.716V103.312ZM232.932 108.046H242.418V109.594H232.932V108.046ZM232.212 110.422H242.922V112.042H232.212V110.422ZM232.59 113.374H242.508V114.976H232.59V113.374ZM231.888 115.804H243.192V117.388H231.888V115.804ZM236.532 106.948H238.566V111.124H236.532V106.948ZM236.532 114.148H238.566V119.62H236.532V114.148ZM234.192 112.312L235.956 111.934C236.154 112.42 236.406 113.05 236.496 113.446L234.66 113.896C234.588 113.464 234.39 112.798 234.192 112.312ZM239.43 111.88L241.41 112.348C240.996 113.05 240.618 113.716 240.312 114.202L238.71 113.752C238.962 113.194 239.268 112.42 239.43 111.88ZM226.254 111.754C227.676 111.43 229.764 110.872 231.78 110.314L232.05 112.258C230.232 112.816 228.288 113.374 226.722 113.824L226.254 111.754ZM226.524 106.138H231.96V108.118H226.524V106.138ZM228.396 102.736H230.376V117.316C230.376 118.306 230.196 118.864 229.638 119.188C229.098 119.53 228.324 119.602 227.154 119.602C227.1 119.062 226.848 118.18 226.596 117.586C227.244 117.622 227.874 117.622 228.09 117.604C228.306 117.604 228.396 117.55 228.396 117.316V102.736ZM248.196 118.252C247.242 118.252 246.558 117.514 246.558 116.524C246.558 115.534 247.242 114.814 248.196 114.814C249.132 114.814 249.852 115.534 249.852 116.524C249.852 117.514 249.132 118.252 248.196 118.252ZM255.49 118.252C254.536 118.252 253.852 117.514 253.852 116.524C253.852 115.534 254.536 114.814 255.49 114.814C256.426 114.814 257.146 115.534 257.146 116.524C257.146 117.514 256.426 118.252 255.49 118.252ZM262.783 118.252C261.829 118.252 261.145 117.514 261.145 116.524C261.145 115.534 261.829 114.814 262.783 114.814C263.719 114.814 264.439 115.534 264.439 116.524C264.439 117.514 263.719 118.252 262.783 118.252ZM270.077 118.252C269.123 118.252 268.439 117.514 268.439 116.524C268.439 115.534 269.123 114.814 270.077 114.814C271.013 114.814 271.733 115.534 271.733 116.524C271.733 117.514 271.013 118.252 270.077 118.252ZM277.37 118.252C276.416 118.252 275.732 117.514 275.732 116.524C275.732 115.534 276.416 114.814 277.37 114.814C278.306 114.814 279.026 115.534 279.026 116.524C279.026 117.514 278.306 118.252 277.37 118.252ZM284.664 118.252C283.71 118.252 283.026 117.514 283.026 116.524C283.026 115.534 283.71 114.814 284.664 114.814C285.6 114.814 286.32 115.534 286.32 116.524C286.32 117.514 285.6 118.252 284.664 118.252Z" fill="black"/>
<defs>
<filter id="filter0_d_144_1176" x="0" y="0" width="362" height="153" filterUnits="userSpaceOnUse" color-interpolation-filters="sRGB">
<feFlood flood-opacity="0" result="BackgroundImageFix"/>
<feColorMatrix in="SourceAlpha" type="matrix" values="0 0 0 0 0 0 0 0 0 0 0 0 0 0 0 0 0 0 127 0" result="hardAlpha"/>
<feOffset dx="7" dy="7"/>
<feComposite in2="hardAlpha" operator="out"/>
<feColorMatrix type="matrix" values="0 0 0 0 0.5425 0 0 0 0 0 0 0 0 0 0.875 0 0 0 1 0"/>
<feBlend mode="normal" in2="BackgroundImageFix" result="effect1_dropShadow_144_1176"/>
<feBlend mode="normal" in="SourceGraphic" in2="effect1_dropShadow_144_1176" result="shape"/>
</filter>
</defs>
</svg>
