<svg width="22" height="21" viewBox="0 0 22 21" fill="none" xmlns="http://www.w3.org/2000/svg">
<g opacity="0.7">
<path d="M7.16051 19.4978C7.20189 19.4992 7.24423 19.4991 7.28618 19.4978C8.96954 19.2841 9.97231 17.5355 10.1798 15.9615C10.442 14.5368 9.90651 12.6644 8.37048 12.2699C8.14773 12.2158 7.91274 12.2246 7.68991 12.2747C5.79237 12.8223 4.85045 15.0282 5.03231 16.9005C5.05432 18.1055 5.88481 19.4541 7.16051 19.4978ZM14.2422 19.7552C15.2817 19.7784 16.1408 18.7478 16.3528 17.751C16.7939 15.777 16.0185 13.2617 14.0056 12.5361C13.8162 12.4848 13.6184 12.4711 13.4234 12.4923C12.0319 12.6606 11.3726 14.2044 11.3707 15.4756C11.3331 17.1509 12.0978 19.1262 13.7878 19.6775C13.9424 19.727 14.0938 19.7519 14.2422 19.7552ZM2.90773 13.5541C4.70869 13.5299 6.02597 11.7692 6.28171 10.0791C6.57713 8.86538 6.01133 7.19665 4.63894 7.03386C2.7175 6.96719 1.30947 8.98776 1.17029 10.777C0.992899 11.9564 1.61302 13.4274 2.90773 13.5541ZM18.6456 13.8929C19.4095 13.9357 20.1828 13.5067 20.4699 12.7301C21.2356 10.6527 20.0239 7.91849 17.8443 7.37155C16.9337 7.16866 16.093 7.84646 15.8245 8.69704C15.2548 10.5166 16.145 12.7026 17.783 13.618C18.0488 13.7866 18.347 13.8762 18.6456 13.8929ZM10.7734 9.73116C12.2711 9.79867 13.8293 9.09898 14.8531 7.99628C15.9638 6.70712 16.8957 5.18985 17.3112 3.51627C17.7764 2.31955 16.9182 0.876476 15.638 0.807635C14.0994 0.69132 12.7245 1.70266 11.1889 1.70995C9.87936 1.8496 8.7477 1.10831 7.60045 0.603959C6.62571 0.125376 5.2431 0.225876 4.68366 1.28852C4.23187 2.37785 4.76426 3.58685 5.20525 4.59356C6.1232 6.23744 7.10857 7.9661 8.691 9.04008C9.32446 9.48182 10.0417 9.69823 10.7734 9.73116Z" fill="#DDDDDD"/>
</g>
</svg>
