<svg width="21" height="21" viewBox="0 0 21 21" fill="none" xmlns="http://www.w3.org/2000/svg">
<g opacity="0.3">
<path d="M6.88402 19.4987C6.9254 19.5001 6.96774 19.5001 7.00969 19.4987C8.69305 19.2851 9.69582 17.5364 9.90331 15.9625C10.1655 14.5378 9.63002 12.6653 8.09399 12.2708C7.87124 12.2167 7.63625 12.2255 7.41343 12.2757C5.51588 12.8232 4.57397 15.0291 4.75582 16.9015C4.77783 18.1064 5.60832 19.455 6.88402 19.4987ZM13.9657 19.7561C15.0052 19.7793 15.8643 18.7488 16.0763 17.7519C16.5174 15.778 15.742 13.2626 13.7291 12.537C13.5397 12.4858 13.342 12.472 13.147 12.4932C11.7554 12.6616 11.0961 14.2053 11.0942 15.4766C11.0566 17.1518 11.8213 19.1271 13.5113 19.6785C13.6659 19.728 13.8173 19.7528 13.9657 19.7561ZM2.63124 13.5551C4.4322 13.5308 5.74948 11.7701 6.00522 10.0801C6.30064 8.86632 5.73484 7.19759 4.36246 7.0348C2.44101 6.96813 1.03298 8.9887 0.8938 10.778C0.71641 11.9573 1.33653 13.4283 2.63124 13.5551ZM18.3691 13.8939C19.133 13.9366 19.9063 13.5076 20.1934 12.731C20.9591 10.6536 19.7474 7.91942 17.5678 7.37248C16.6572 7.1696 15.8165 7.8474 15.548 8.69798C14.9783 10.5175 15.8685 12.7035 17.5065 13.6189C17.7723 13.7875 18.0705 13.8772 18.3691 13.8939ZM10.4969 9.7321C11.9946 9.79961 13.5528 9.09992 14.5767 7.99722C15.6874 6.70806 16.6192 5.19079 17.0347 3.51721C17.4999 2.32049 16.6417 0.877414 15.3615 0.808573C13.8229 0.692258 12.448 1.7036 10.9124 1.71088C9.60287 1.85054 8.47121 1.10925 7.32396 0.604897C6.34922 0.126314 4.96661 0.226814 4.40717 1.28946C3.95538 2.37879 4.48777 3.58779 4.92876 4.5945C5.84671 6.23837 6.83208 7.96704 8.41451 9.04102C9.04797 9.48275 9.76526 9.69917 10.4969 9.7321Z" fill="#DDDDDD"/>
</g>
</svg>
