<svg width="92" height="126" viewBox="0 0 92 126" fill="none" xmlns="http://www.w3.org/2000/svg">
<path d="M62.3114 111.515C84.5171 113.259 84.1684 102.098 84.1684 102.098C98.9334 92.7975 87.7724 74.7771 87.7724 74.7771C89.9814 54.0827 85.9123 46.177 85.9123 46.177C87.7724 29.7843 82.7732 25.5989 82.7732 25.5989C77.6578 5.95093 69.9846 5.60215 69.9846 5.60215C68.822 3.50946 65.9155 1.53303 63.474 0.719212C61.0325 -0.0946113 61.3813 5.25337 61.3813 5.25337C49.9878 -1.14095 49.4065 0.719212 49.4065 0.719212C50.8016 1.88182 52.8943 9.32248 52.8943 9.32248C47.1975 14.5542 47.7788 27.2266 47.7788 27.2266C51.3829 31.877 53.4756 31.9933 53.4756 31.9933C53.4756 31.9933 50.8016 39.6665 52.0805 44.6657C52.0805 44.6657 27.6658 81.1714 42.4309 106.865C42.4309 106.865 28.0146 120.467 14.0633 115.585C0.112077 110.702 14.0633 86.9844 14.0633 86.9844C14.0633 86.9844 15.598 81.4272 10.1105 85.3568C1.04216 91.8674 -5.11964 122.746 9.57568 124.723C50.4296 130.233 54.4289 110.888 62.3114 111.515Z" fill="black"/>
</svg>
