<svg width="22" height="22" viewBox="0 0 22 22" fill="none" xmlns="http://www.w3.org/2000/svg">
<path d="M15.4725 11.9181C15.8406 10.9766 16.824 10.2058 17.669 10.1964C18.514 10.187 18.9007 10.9426 18.5326 11.8841C18.1644 12.8256 17.181 13.5964 16.336 13.6058C15.4969 13.6151 15.1088 12.8698 15.4659 11.9351" fill="#FFE600"/>
<path d="M15.4725 11.9181C15.8406 10.9766 16.824 10.2058 17.669 10.1964C18.514 10.187 18.9007 10.9426 18.5326 11.8841C18.1644 12.8256 17.181 13.5964 16.336 13.6058C15.4969 13.6151 15.1088 12.8698 15.4659 11.9351" stroke="#FFE600" stroke-width="1.47825" stroke-linecap="round"/>
<path d="M13.0801 7.33059C13.2129 6.39259 14.0125 5.47971 14.8661 5.29161C15.7198 5.10354 16.3041 5.71149 16.1713 6.64951C16.0385 7.58751 15.2389 8.50039 14.3852 8.68849C13.5376 8.87524 12.9544 8.27702 13.0778 7.34751" fill="#FFE600"/>
<path d="M13.0801 7.33059C13.2129 6.39259 14.0125 5.47971 14.8661 5.29161C15.7198 5.10354 16.3041 5.71149 16.1713 6.64951C16.0385 7.58751 15.2389 8.50039 14.3852 8.68849C13.5376 8.87524 12.9544 8.27702 13.0778 7.34751" stroke="#FFE600" stroke-width="1.56196" stroke-linecap="round"/>
<path d="M11.9218 5.32306C11.8078 6.44927 11.0538 7.44505 10.2379 7.54726C9.42191 7.64946 8.85294 6.81937 8.96702 5.69317C9.0811 4.56696 9.83503 3.57117 10.651 3.46897C11.467 3.36677 12.0359 4.19686 11.9218 5.32306Z" fill="#FFE600" stroke="#FFE600" stroke-width="1.43505" stroke-linecap="round"/>
<path d="M4.24834 8.93438C3.81295 8.06108 3.96147 6.72792 4.58007 5.95668C5.19867 5.18545 6.0531 5.2682 6.48851 6.1415C6.9239 7.0148 6.77538 8.34796 6.15678 9.1192C5.54253 9.88501 4.69468 9.80956 4.2563 8.95006" fill="#FFE600"/>
<path d="M4.24834 8.93438C3.81295 8.06108 3.96147 6.72792 4.58007 5.95668C5.19867 5.18545 6.0531 5.2682 6.48851 6.1415C6.9239 7.0148 6.77538 8.34796 6.15678 9.1192C5.54253 9.88501 4.69468 9.80956 4.2563 8.95006" stroke="#FFE600" stroke-width="1.38114" stroke-linecap="round"/>
<path d="M4.35895 10.5012C3.64093 10.9576 3.00931 12.3389 3.15066 13.3014C3.4737 15.5007 5.70445 16.7461 7.49818 17.7049C9.41615 18.7299 11.8977 20.1062 13.9515 18.9299C14.5824 18.5685 14.8671 17.6058 14.9277 16.8588C15.0203 15.7169 14.2384 14.7883 13.9461 13.7297C13.6873 12.7922 13.8273 11.6162 13.2637 10.8793C12.4401 9.80268 11.0585 9.18798 9.71865 9.10661C9.02382 9.06441 8.34624 9.60326 7.64988 9.78869C6.61882 10.0631 5.55913 10.0953 4.53659 10.4229C4.47585 10.4424 4.35909 10.5013 4.35909 10.5013L4.35895 10.5012Z" fill="#FFE600" stroke="#FFE600" stroke-width="0.89702"/>
</svg>
