<svg width="128" height="130" viewBox="0 0 128 130" fill="none" xmlns="http://www.w3.org/2000/svg">
<g clip-path="url(#clip0_155_1380)">
<path d="M98.0733 64.6186C97.5934 57.0221 101.856 48.6343 107.594 45.8842C113.332 43.1339 118.373 47.0626 118.853 54.6591C119.333 62.2557 115.07 70.6435 109.332 73.3936C103.634 76.1244 98.616 72.271 98.0825 64.7555" fill="#FFE600"/>
<path d="M98.0733 64.6186C97.5934 57.0221 101.856 48.6343 107.594 45.8842C113.332 43.1339 118.373 47.0626 118.853 54.6591C119.333 62.2557 115.07 70.6435 109.332 73.3936C103.634 76.1244 98.616 72.271 98.0825 64.7555" stroke="#FFE600" stroke-width="1.47825" stroke-linecap="round"/>
<path d="M67.161 40.909C65.0858 34.0842 67.6423 25.3111 72.8713 21.3137C78.1002 17.3165 84.0214 19.6089 86.0967 26.4338C88.172 33.2586 85.6154 42.0317 80.3864 46.0291C75.1944 49.9982 69.3115 47.7688 67.1992 41.0318" fill="#FFE600"/>
<path d="M67.161 40.909C65.0858 34.0842 67.6423 25.3111 72.8713 21.3137C78.1002 17.3165 84.0214 19.6089 86.0967 26.4338C88.172 33.2586 85.6154 42.0317 80.3864 46.0291C75.1944 49.9982 69.3115 47.7688 67.1992 41.0318" stroke="#FFE600" stroke-width="1.56196" stroke-linecap="round"/>
<path d="M52.8744 30.8871C55.6755 38.9372 53.6946 48.1308 48.4497 51.4221C43.2049 54.7135 36.6826 50.8559 33.8814 42.8059C31.0803 34.7558 33.0612 25.5622 38.306 22.2709C43.5509 18.9795 50.0732 22.8371 52.8744 30.8871Z" fill="#FFE600" stroke="#FFE600" stroke-width="1.43505" stroke-linecap="round"/>
<path d="M11.974 79.93C6.22607 75.3529 3.00216 65.7807 4.77311 58.55C6.54412 51.3192 12.6394 49.1681 18.3875 53.7452C24.1354 58.3223 27.3593 67.8944 25.5883 75.1252C23.8298 82.3051 17.8026 84.4851 12.0781 80.0117" fill="#FFE600"/>
<path d="M11.974 79.93C6.22607 75.3529 3.00216 65.7807 4.77311 58.55C6.54412 51.3192 12.6394 49.1681 18.3875 53.7452C24.1354 58.3223 27.3593 67.8944 25.5883 75.1252C23.8298 82.3051 17.8026 84.4851 12.0781 80.0117" stroke="#FFE600" stroke-width="1.38114" stroke-linecap="round"/>
<path d="M17.7094 90.2731C14.2591 95.6712 14.3384 107.107 18.3628 113.228C27.5587 127.214 46.7445 128.624 62.0359 129.466C78.3862 130.367 99.6996 131.873 109.98 117.315C113.138 112.843 112.021 105.367 110.06 100.075C107.062 91.986 98.7732 88.1333 93.4132 81.836C88.6669 76.2595 85.8839 67.7871 79.6944 64.5491C70.6503 59.8178 59.2656 60.0135 49.8614 63.7171C44.9844 65.6377 42.0721 71.4696 37.9083 74.9488C31.7427 80.0996 24.6116 83.6876 18.6732 89.1742C18.3204 89.5001 17.7109 90.2738 17.7109 90.2738L17.7094 90.2731Z" fill="#FFE600" stroke="#FFE600" stroke-width="0.89702"/>
</g>
<defs>
<clipPath id="clip0_155_1380">
<rect width="128" height="130" fill="white"/>
</clipPath>
</defs>
</svg>
