<svg width="362" height="153" viewBox="0 0 362 153" fill="none" xmlns="http://www.w3.org/2000/svg">
<g filter="url(#filter0_d_144_1177)">
<rect width="355" height="146" fill="white"/>
</g>
<path d="M63.68 25.54H73.46V24.78H61.44V22.42H76.32V27.9H63.68V25.54ZM62.16 25.54H64.98C64.8 27.44 64.54 29.66 64.3 31.1H61.42C61.72 29.6 62.02 27.38 62.16 25.54ZM63.24 28.7H75.32V31.1H62.52L63.24 28.7ZM74.56 28.7H77.48C77.48 28.7 77.46 29.36 77.42 29.7C77.26 32.3 77.04 33.64 76.52 34.22C76.04 34.76 75.5 34.94 74.84 35.02C74.26 35.1 73.3 35.12 72.28 35.1C72.24 34.26 71.9 33.16 71.46 32.46C72.24 32.54 73 32.56 73.38 32.54C73.68 32.54 73.86 32.52 74.06 32.36C74.3 32.1 74.46 31.18 74.56 29.04V28.7ZM67.3 22.94H70.14V35.9H67.3V22.94ZM66.78 29.58L69.02 30.54C67.26 32.8 64.44 34.74 61.56 35.76C61.16 35.08 60.34 34.02 59.74 33.48C62.5 32.72 65.34 31.22 66.78 29.58ZM62.46 18H68.68V20.18H62.46V18ZM70.74 18H78.32V20.16H70.74V18ZM62.4 16.7L64.96 17.46C64.14 19.42 62.76 21.5 61.46 22.78C61.06 22.28 60.1 21.26 59.56 20.8C60.7 19.8 61.8 18.24 62.4 16.7ZM70.7 16.7L73.34 17.38C72.68 19.2 71.52 21.04 70.36 22.18C69.88 21.7 68.82 20.86 68.22 20.48C69.3 19.56 70.22 18.12 70.7 16.7ZM63.66 20.88L65.36 19.36C66.08 19.88 67 20.68 67.46 21.24L65.66 22.92C65.26 22.34 64.36 21.48 63.66 20.88ZM72.38 20.9L74.22 19.36C74.94 19.84 75.9 20.58 76.38 21.1L74.44 22.78C74.02 22.24 73.1 21.44 72.38 20.9ZM83.32 19.6H97.92V22.82H83.32V19.6ZM81.66 31.06H99.58V34.42H81.66V31.06ZM110.24 27.58L111.6 27.24C111.86 27.96 112.16 28.92 112.28 29.48L110.86 29.92C110.76 29.32 110.48 28.32 110.24 27.58ZM112.5 29.74H114.46V35.68H112.5V29.74ZM107.32 30.1H109.04V31.74H111.04V33.28H107.32V30.1ZM109.86 29.74H111.78V31.76C111.78 33.4 111.38 34.96 108.8 35.82C108.58 35.38 107.98 34.62 107.58 34.28C109.58 33.7 109.86 32.72 109.86 31.7V29.74ZM105.1 20.14H109.8V21.84H105.1V20.14ZM114.3 20.14H119V21.84H114.3V20.14ZM118.04 17.62H120.84V32.68C120.84 33.98 120.66 34.76 119.9 35.24C119.14 35.72 118.18 35.78 116.8 35.78C116.72 35 116.38 33.7 116.02 32.96C116.66 33 117.44 33 117.7 33C117.96 33 118.04 32.9 118.04 32.64V17.62ZM105.38 17.62H111.66V24.36H105.38V22.46H108.94V19.52H105.38V17.62ZM119.5 17.62V19.52H115.46V22.46H119.5V24.36H112.7V17.62H119.5ZM103.66 17.62H106.42V35.9H103.66V17.62ZM107.5 27.52C107.4 27.16 107.14 26.36 106.94 25.94C107.16 25.88 107.4 25.78 107.6 25.58C107.8 25.4 108.5 24.72 108.88 23.94L110.44 24.78C109.88 25.48 109.12 26.2 108.46 26.64V26.68C108.46 26.68 107.5 27.18 107.5 27.52ZM107.5 27.54L107.48 26.52L108.16 26.12L110.66 26.02C110.56 26.38 110.44 26.9 110.42 27.18C108.26 27.32 107.76 27.42 107.5 27.54ZM107.44 29.92C107.36 29.6 107.12 28.82 106.94 28.4C107.26 28.36 107.6 28.16 108 27.86C108.4 27.56 109.76 26.4 110.64 25.18L111.96 26.14C110.92 27.24 109.6 28.34 108.34 29.1V29.16C108.34 29.16 107.44 29.6 107.44 29.92ZM107.44 29.94L107.4 28.84L108.06 28.4L111.28 28.06C111.3 28.44 111.38 28.94 111.44 29.24C108.3 29.66 107.76 29.78 107.44 29.94ZM115.54 27.62L116.86 27.22C117.18 27.94 117.54 28.9 117.68 29.46L116.3 29.96C116.16 29.36 115.82 28.36 115.54 27.62ZM112.78 27.56C112.68 27.2 112.42 26.4 112.22 25.98C112.44 25.92 112.68 25.82 112.88 25.62C113.08 25.44 113.78 24.76 114.16 23.98L115.72 24.82C115.16 25.52 114.4 26.24 113.74 26.68V26.72C113.74 26.72 112.78 27.22 112.78 27.56ZM112.78 27.56L112.76 26.54L113.44 26.14L115.94 26.04C115.84 26.4 115.72 26.92 115.7 27.2C113.54 27.34 113.04 27.44 112.78 27.56ZM112.76 29.96C112.68 29.64 112.44 28.86 112.26 28.44C112.58 28.38 112.92 28.2 113.32 27.88C113.72 27.58 115.08 26.38 115.96 25.14L117.3 26.1C116.24 27.24 114.92 28.36 113.66 29.14V29.2C113.66 29.2 112.76 29.64 112.76 29.96ZM112.76 29.96L112.72 28.86L113.38 28.42L116.6 28.08C116.62 28.46 116.7 28.96 116.76 29.26C113.62 29.68 113.08 29.8 112.76 29.96ZM114.04 31.74H116.22V33.28H114.04V31.74ZM115.28 30.1H117.08V33.8H115.28V30.1ZM133.8 24C132.6 24 131.68 23.08 131.68 21.92C131.68 20.72 132.6 19.8 133.8 19.8C135 19.8 135.92 20.72 135.92 21.92C135.92 23.08 135 24 133.8 24ZM133.8 33.4C132.6 33.4 131.68 32.48 131.68 31.32C131.68 30.12 132.6 29.2 133.8 29.2C135 29.2 135.92 30.12 135.92 31.32C135.92 32.48 135 33.4 133.8 33.4ZM155.32 28.26H163.14V30.64H155.32V28.26ZM155.28 32.2H163.2V34.68H155.28V32.2ZM155.26 17.08H157.92V23.56H155.26V17.08ZM160.5 17.08H163.2V23.56H160.5V17.08ZM157.92 25.68H160.38V33.42H157.92V25.68ZM154.22 24.3H164.18V35.68H161.42V26.78H156.84V35.9H154.22V24.3ZM149.06 24.48L150.94 23.36C153.94 26.38 154.08 32.76 152.76 34.52C152.16 35.4 151.4 35.72 150.44 35.74C150.04 35.74 149.52 35.74 149.06 35.72C149.02 35 148.84 33.96 148.46 33.24C148.98 33.3 149.5 33.32 149.84 33.32C150.22 33.32 150.5 33.24 150.74 32.72C151.32 31.76 151.4 26.86 149.06 24.48ZM150.66 25.7L152.3 26.84C151.06 28.08 148.82 29.62 147.12 30.48C146.82 29.9 146.28 29 145.82 28.5C147.44 27.92 149.6 26.72 150.66 25.7ZM151.54 27.98L153.22 29.16C151.76 30.94 149.1 32.96 146.92 34.08C146.62 33.46 146.06 32.54 145.58 32.02C147.7 31.24 150.26 29.52 151.54 27.98ZM146.36 22.28L148.22 21.34C148.7 22.06 149.34 23.06 149.62 23.68L147.64 24.76C147.42 24.1 146.84 23.06 146.36 22.28ZM149.38 21.2L151.2 20.22C151.6 20.78 152.14 21.58 152.4 22.08L150.5 23.2C150.26 22.68 149.76 21.82 149.38 21.2ZM152.82 20.82L154.46 22.4C152.62 24.36 149.9 25.98 147.3 27.06C147 26.52 146.42 25.66 145.94 25.2C148.52 24.18 151.18 22.54 152.82 20.82ZM152.08 16.86L153.62 18.6C151.92 19.8 149.4 20.68 147.16 21.18C146.86 20.58 146.34 19.64 145.86 19.12C148.04 18.66 150.5 17.8 152.08 16.86ZM153.68 19.16H158.92V21.84H153.68V19.16ZM159.5 19.2H164.92V21.86H159.5V19.2ZM169.72 18.24H174.54V32.02H169.72V29.38H171.84V20.86H169.72V18.24ZM168.14 18.24H170.82V33.9H168.14V18.24ZM179 16.9H181.78V35.9H179V16.9ZM174.88 24.02H186.32V26.72H174.88V24.02ZM176.66 27.44L178.88 28C178.28 30.96 177.28 33.86 175.74 35.62C175.3 34.96 174.42 33.98 173.8 33.48C175.14 32.14 176.14 29.74 176.66 27.44ZM183.18 18.1L186.2 19.08C185.42 20.78 184.64 22.62 184 23.82L181.8 22.96C182.32 21.62 182.9 19.62 183.18 18.1ZM174.8 19.26L177.14 18.22C177.8 19.62 178.52 21.44 178.74 22.64L176.22 23.84C176.04 22.64 175.42 20.72 174.8 19.26ZM181.94 28.46L184.22 27.34C185.14 29.54 186.3 32.42 186.76 34.18L184.28 35.54C183.88 33.7 182.82 30.74 181.94 28.46ZM191.6 20.16H197.78V33.86H191.6V31.32H195.16V22.68H191.6V20.16ZM189.92 20.16H192.54V35.28H189.92V20.16ZM191.52 25.38H196.4V27.88H191.52V25.38ZM192.64 16.9L195.82 17.34C195.34 18.76 194.82 20.2 194.42 21.16L192.1 20.66C192.34 19.58 192.58 18.04 192.64 16.9ZM200.3 19.96H205.98V22.6H200.3V19.96ZM204.98 19.96H207.66C207.66 19.96 207.66 20.88 207.64 21.22C207.4 30.12 207.2 33.36 206.36 34.46C205.74 35.34 205.12 35.58 204.24 35.74C203.44 35.88 202.2 35.86 201 35.82C200.96 35.04 200.56 33.8 200.04 33C201.32 33.12 202.52 33.12 203.06 33.12C203.46 33.12 203.68 33.04 203.94 32.76C204.58 32.08 204.8 28.58 204.98 20.5V19.96ZM200.16 16.96L202.96 17.62C202.14 20.56 200.78 23.66 199.42 25.58C198.9 25.1 197.7 24.26 197.04 23.88C198.36 22.24 199.52 19.54 200.16 16.96ZM199.14 26.06L201.42 24.78C202.32 26.14 203.62 28.04 204.22 29.22L201.76 30.72C201.24 29.5 200.04 27.54 199.14 26.06ZM213.52 27.26H227.08V35.88H224.08V29.52H216.38V35.88H213.52V27.26ZM215.26 30.2H225.08V32.26H215.26V30.2ZM213.44 18.32H219.76V20.54H213.44V18.32ZM210.94 21.52H220.22V23.76H210.94V21.52ZM215.26 32.98H225.08V35.26H215.26V32.98ZM214.62 18.94H217.36V21.28C217.36 23.38 216.48 26.16 212.52 28C212.14 27.42 211.32 26.54 210.68 26.08C214.28 24.72 214.62 22.64 214.62 21.24V18.94ZM212.84 16.74L215.4 17.26C214.92 19.1 213.98 20.84 212.94 21.94C212.42 21.54 211.3 20.9 210.68 20.6C211.72 19.68 212.48 18.22 212.84 16.74ZM217 23.46C217.72 23.78 219.86 24.94 220.42 25.3L218.34 27.1C217.52 26.4 215.96 25.22 215.02 24.6L217 23.46ZM223.5 20.82V23.72H225.92V20.82H223.5ZM220.8 18.28H228.8V26.28H220.8V18.28ZM233.22 17.62H241.24V19.26H233.22V17.62ZM233.68 19.68H240.98V21.3H233.68V19.68ZM235.96 16.92H238.62V24.04H235.96V16.92ZM241.94 17.62H250.24V19.26H241.94V17.62ZM241.92 21.74H250.58V23.38H241.92V21.74ZM233.08 21.74H241.46V23.38H233.08V21.74ZM242.36 19.68H249.84V21.3H242.36V19.68ZM244.54 16.92H247.24V24.04H244.54V16.92ZM237.54 30.74H240.42V32.62C240.42 33.18 240.56 33.24 241.42 33.24C241.78 33.24 243.12 33.24 243.6 33.24C244.24 33.24 244.38 33.06 244.48 31.88C245.04 32.28 246.24 32.68 247 32.84C246.68 35.12 245.9 35.7 243.88 35.7C243.28 35.7 241.62 35.7 241.04 35.7C238.18 35.7 237.54 34.94 237.54 32.66V30.74ZM239.94 30.58L241.8 29.04C242.72 29.56 243.86 30.4 244.4 31.08L242.42 32.76C241.94 32.1 240.86 31.18 239.94 30.58ZM245.8 31.8L248.14 30.48C249.4 31.52 250.78 32.98 251.36 34.14L248.82 35.58C248.34 34.48 247.04 32.9 245.8 31.8ZM234.7 30.7L237.22 31.62C236.7 33.18 235.94 34.68 234.6 35.68L232.26 34.04C233.4 33.26 234.26 32.02 234.7 30.7ZM234.44 24.32H249.2V30.28H234.32V28.58H246.34V26.02H234.44V24.32ZM233.04 26.48H250.7V28.1H233.04V26.48ZM255.14 20.48H269.56V23.32H255.14V20.48ZM268.42 20.48H269.08L269.64 20.34L271.88 21.8C269 26.12 264.2 30.54 259.68 33.24C259.22 32.6 258.32 31.68 257.64 31.14C261.92 28.74 266.52 24.36 268.42 21.14V20.48ZM261.02 18L263.64 16.58C264.38 17.56 265.46 18.94 265.96 19.82L263.16 21.42C262.74 20.52 261.74 19.06 261.02 18ZM258.54 30.6C259.2 30.6 259.74 31.2 260.84 31.86C262.12 32.7 263.88 32.84 266.06 32.84C267.94 32.84 271.04 32.64 272.96 32.32C272.66 33.1 272.18 34.62 272.14 35.4C270.74 35.5 267.96 35.62 265.94 35.62C263.44 35.62 261.88 35.32 260.48 34.52C259.58 33.98 258.9 33.32 258.46 33.32C257.84 33.32 256.96 34.76 256.22 36L254.14 33.26C255.64 31.66 257.36 30.6 258.54 30.6ZM286.04 32.72H292.18V35.2H286.04V32.72ZM286.84 18.72H291.8V21.16H286.84V18.72ZM284.84 28.32H293.34V35.78H290.56V30.74H287.5V35.84H284.84V28.32ZM290.8 18.72H291.3L291.8 18.62L293.64 19.4C292.24 24.48 289.02 27.62 284.8 29.4C284.46 28.74 283.74 27.74 283.18 27.22C286.82 25.92 289.78 22.94 290.8 19.18V18.72ZM286.76 16.88L289.52 17.56C288.64 20.24 287.14 22.88 285.54 24.52C285.06 24 283.94 23.06 283.3 22.64C284.82 21.3 286.1 19.12 286.76 16.88ZM287.08 20C288.22 22.62 290.78 25.52 294.86 26.64C294.28 27.2 293.44 28.36 293.06 29.1C288.94 27.6 286.34 24.18 285.1 21.18L287.08 20ZM276.2 25.68H278.54V32.98H276.2V25.68ZM278.94 20.06V22.06H280.94V20.06H278.94ZM276.44 17.6H283.6V24.52H276.44V17.6ZM279.22 23.6H281.78V32.42H279.22V23.6ZM275.4 32.48C277.6 32.12 280.92 31.42 283.98 30.74L284.26 33.3C281.38 34 278.26 34.72 275.88 35.26L275.4 32.48ZM280.28 26.56H283.8V29.08H280.28V26.56Z" fill="black"/>
<path d="M17.958 52.482H29.442V54.444H17.958V52.482ZM20.316 57.468V59.25H26.886V57.468H20.316ZM18.354 55.704H28.956V61.014H18.354V55.704ZM20.046 61.194C21.648 63.786 25.05 65.244 29.712 65.676C29.262 66.144 28.722 67.008 28.452 67.602C23.574 66.936 20.244 65.118 18.282 61.734L20.046 61.194ZM22.512 50.826H24.636V59.052C24.636 62.724 23.718 66.072 18.552 67.62C18.3 67.134 17.67 66.27 17.202 65.82C22.044 64.74 22.512 61.986 22.512 59.034V50.826ZM16.59 50.664L18.606 51.312C17.382 54.372 15.402 57.594 13.35 59.628C13.17 59.124 12.594 57.936 12.234 57.414C13.944 55.794 15.618 53.238 16.59 50.664ZM14.844 55.686L16.878 53.634L16.896 53.652V67.656H14.844V55.686ZM32.322 56.172H48.522V58.08H32.322V56.172ZM33.888 52.662H44.184V54.534H33.888V52.662ZM37.056 62.454H45.102V64.074H37.056V62.454ZM37.056 65.28H45.102V67.098H37.056V65.28ZM38.136 50.718H40.26V57.234H38.136V50.718ZM46.056 51.24L47.91 52.194C44.382 57.108 38.892 60.726 33.06 62.868C32.808 62.4 32.16 61.5 31.764 61.068C37.614 59.196 42.906 55.758 46.056 51.24ZM35.85 59.52H46.47V67.566H44.22V61.284H38.01V67.638H35.85V59.52ZM52.068 57.864H67.818V61.788H65.712V59.61H54.066V61.788H52.068V57.864ZM57.288 50.898H59.16V55.56H60.618V50.898H62.58V57.162H57.288V50.898ZM51.852 52.68H67.962V54.354H51.852V52.68ZM54.3 50.916H56.262V53.346C56.262 54.966 55.65 56.712 53.202 57.792C52.95 57.36 52.392 56.73 51.978 56.388C54.012 55.686 54.3 54.372 54.3 53.346V50.916ZM58.728 59.898H60.87V67.602H58.728V59.898ZM53.832 60.96H64.794V62.67H55.92V66.558H53.832V60.96ZM63.966 60.96H66.09V64.614C66.09 65.532 65.892 66.072 65.208 66.36C64.506 66.648 63.57 66.666 62.292 66.666C62.202 66.108 61.896 65.316 61.626 64.794C62.418 64.83 63.39 64.83 63.624 64.83C63.894 64.83 63.966 64.776 63.966 64.578V60.96ZM63.606 50.862H65.532V55.002C65.532 55.524 65.586 55.704 65.874 55.704C66.072 55.704 66.72 55.704 66.954 55.704C67.242 55.704 67.71 55.668 67.962 55.596C67.998 56.082 68.052 56.784 68.124 57.234C67.836 57.324 67.386 57.342 66.972 57.342C66.684 57.342 65.946 57.342 65.694 57.342C63.966 57.342 63.606 56.658 63.606 54.984V50.862ZM71.274 57.918H87.438V59.79H71.274V57.918ZM72.768 55.146H83.226V56.91H72.768V55.146ZM76.206 63.246H84.216V64.596H76.206V63.246ZM76.206 65.496H84.216V67.134H76.206V65.496ZM77.106 54.156H79.248V59.07H77.106V54.156ZM85.602 54.696L87.204 55.686C83.532 59.412 77.538 61.752 71.706 63.084C71.508 62.634 71.04 61.77 70.734 61.356C76.566 60.276 82.38 58.044 85.602 54.696ZM74.694 60.744H85.908V67.584H83.694V62.364H76.8V67.584H74.694V60.744ZM71.256 51.69H78.978V53.544H71.256V51.69ZM74.532 50.7H76.674V54.624H74.532V50.7ZM82.092 50.7H84.234V54.624H82.092V50.7ZM79.626 51.69H87.366V53.544H79.626V51.69ZM97.878 50.772L100.002 51.258C99.246 54.102 97.968 56.928 96.528 58.71C96.15 58.332 95.286 57.63 94.8 57.306C96.168 55.758 97.266 53.274 97.878 50.772ZM97.374 58.782L99.462 59.214C98.958 61.5 98.022 63.804 97.014 65.262C96.6 64.92 95.682 64.362 95.178 64.092C96.186 62.832 96.96 60.78 97.374 58.782ZM98.274 53.94H105.654V55.938H97.464L98.274 53.94ZM100.344 54.822H102.486V65.208C102.486 66.252 102.306 66.846 101.658 67.206C101.028 67.548 100.146 67.638 98.994 67.638C98.886 67.008 98.562 66.054 98.256 65.46C99.012 65.496 99.768 65.478 100.02 65.478C100.254 65.478 100.344 65.424 100.344 65.19V54.822ZM103.116 59.25L105.06 58.602C105.996 60.456 106.77 62.85 107.022 64.488L104.952 65.208C104.754 63.588 103.998 61.104 103.116 59.25ZM105.078 53.94H105.366L105.708 53.886L107.22 54.156C107.004 55.632 106.68 57.306 106.446 58.386L104.592 58.062C104.754 57.09 104.952 55.488 105.078 54.228V53.94ZM94.026 50.79L96.06 51.42C94.89 54.498 93.018 57.738 91.056 59.79C90.858 59.268 90.282 58.08 89.904 57.558C91.542 55.92 93.108 53.364 94.026 50.79ZM92.28 55.758L94.332 53.706L94.35 53.724V67.602H92.28V55.758ZM112.944 61.302H126.12V63.12H112.944V61.302ZM111.72 58.008H125.544V59.646H111.72V58.008ZM120 58.764H122.142V65.406C122.142 66.432 121.944 66.954 121.224 67.26C120.522 67.584 119.568 67.62 118.272 67.602C118.164 67.026 117.822 66.18 117.516 65.64C118.38 65.676 119.37 65.676 119.64 65.658C119.928 65.64 120 65.586 120 65.352V58.764ZM118.794 62.004L120.36 62.76C118.236 64.812 114.618 66.36 111.198 67.062C110.91 66.54 110.334 65.73 109.902 65.298C113.304 64.776 116.94 63.57 118.794 62.004ZM110.442 52.428H125.994V55.668H123.762V54.228H112.566V55.686H110.442V52.428ZM112.962 59.088L115.14 59.322C114.816 60.6 114.366 62.13 114.006 63.12H111.972C112.296 62.058 112.71 60.402 112.962 59.088ZM116.868 51.132L119.064 50.556C119.37 51.204 119.73 52.086 119.892 52.644L117.588 53.328C117.48 52.752 117.156 51.816 116.868 51.132ZM118.884 53.832H121.062V55.344C121.062 55.74 121.116 55.938 121.566 55.938C121.89 55.938 123.024 55.938 123.384 55.938C123.834 55.938 124.644 55.902 124.968 55.794C125.022 56.37 125.058 56.892 125.148 57.414C124.806 57.522 124.068 57.558 123.492 57.558C123.006 57.558 121.494 57.558 121.044 57.558C119.244 57.558 118.884 56.784 118.884 55.326V53.832ZM115.32 53.526H117.408C117.138 56.118 116.22 57.432 111.396 57.99C111.252 57.504 110.802 56.748 110.442 56.352C114.546 56.01 115.122 55.29 115.32 53.526ZM134.778 56.784H144.516V58.422H136.65V64.65H134.778V56.784ZM136.074 51.258H143.868V57.324H141.924V52.842H137.946V57.324H136.074V51.258ZM138.558 59.16H142.338V63.138H138.558V61.77H140.772V60.528H138.558V59.16ZM143.292 56.784H145.254V62.814C145.254 63.66 145.11 64.128 144.57 64.416C144.03 64.686 143.292 64.704 142.302 64.704C142.248 64.2 142.014 63.48 141.798 63.012C142.32 63.03 142.878 63.03 143.04 63.03C143.238 63.03 143.292 62.976 143.292 62.796V56.784ZM137.586 59.16H139.134V63.696H137.586V59.16ZM138.99 53.94H142.788V55.29H140.538V57.648H138.99V53.94ZM129.828 51.672L131.448 50.718C132.258 51.582 133.212 52.716 133.698 53.454L132.006 54.606C131.556 53.832 130.584 52.572 129.828 51.672ZM129.396 54.912H133.194V56.64H129.396V54.912ZM133.05 62.742C134.004 65.172 136.128 65.46 139.386 65.478C141.312 65.478 144.282 65.37 146.334 65.172C146.028 65.604 145.758 66.576 145.65 67.152C143.76 67.278 141.456 67.314 139.35 67.314C135.174 67.314 132.942 66.774 131.61 63.318L133.05 62.742ZM132.33 59.286H132.978L133.32 59.25L134.22 59.61C133.698 63.552 132.33 66.252 130.422 67.674C130.134 67.26 129.432 66.522 129.018 66.234C130.8 65.028 131.934 62.76 132.33 59.61V59.286ZM129.738 61.248V59.7L130.512 59.286H133.158V60.96H130.836C130.404 60.96 129.882 61.086 129.738 61.248ZM129.738 61.248C129.612 60.798 129.234 59.88 129.036 59.484C129.342 59.412 129.63 59.286 129.972 58.908C130.494 58.404 132.096 56.1 132.708 55.11V55.056L133.248 54.822L134.562 55.416C133.734 56.658 132.186 58.89 131.178 60.06C131.178 60.06 129.738 60.762 129.738 61.248ZM156.018 57.072H158.304V65.154C158.304 66.378 158.016 66.972 157.116 67.296C156.216 67.62 154.92 67.656 153.192 67.638C153.066 67.008 152.67 66.054 152.328 65.46C153.606 65.514 155.082 65.514 155.496 65.496C155.892 65.496 156.018 65.406 156.018 65.1V57.072ZM149.754 51.978H162.336V54.102H149.754V51.978ZM161.688 51.978H162.3L162.786 51.852L164.496 53.13C162.66 55.11 159.96 57.306 157.458 58.62C157.134 58.152 156.45 57.432 156.018 57.072C158.178 55.92 160.662 53.868 161.688 52.5V51.978ZM170.004 54.12H174.522V55.65H170.004V54.12ZM178.32 54.12H182.856V55.65H178.32V54.12ZM182.01 51.438H184.188V64.992C184.188 66.252 183.936 66.864 183.144 67.206C182.352 67.566 181.164 67.62 179.418 67.62C179.31 67.008 178.95 65.982 178.644 65.388C179.778 65.478 181.128 65.46 181.506 65.442C181.884 65.442 182.01 65.334 182.01 64.974V51.438ZM170.184 51.438H175.854V58.422H170.184V56.694H173.82V53.184H170.184V51.438ZM183.18 51.438V53.184H179.148V56.73H183.18V58.458H177.096V51.438H183.18ZM168.942 51.438H171.084V67.62H168.942V51.438ZM194.43 63.12L193.854 61.662C195.366 61.194 196.194 60.312 196.194 59.268L196.068 57.504L197.058 59.124C196.77 59.394 196.392 59.52 195.996 59.52C195.096 59.52 194.268 58.926 194.268 57.9C194.268 56.892 195.078 56.28 196.05 56.28C197.31 56.28 197.994 57.252 197.994 58.764C197.994 60.798 196.662 62.454 194.43 63.12ZM215.4 60.492H222.204V62.436H215.4V60.492ZM211.404 61.176C212.754 64.704 215.796 65.334 219.342 65.334C220.152 65.352 222.87 65.334 223.896 65.298C223.608 65.784 223.266 66.774 223.14 67.386H219.216C214.788 67.386 211.494 66.45 209.694 61.842L211.404 61.176ZM208.974 52.554H222.006V54.534H208.974V52.554ZM207.372 56.298H223.41V58.296H207.372V56.298ZM214.212 50.718H216.444V57.414H214.212V50.718ZM214.212 57.612H216.444V66.144L214.212 65.334V57.612ZM209.892 59.052L212.124 59.322C211.638 62.346 210.612 65.784 208.398 67.62C208.02 67.224 207.246 66.558 206.778 66.234C208.794 64.65 209.622 61.59 209.892 59.052ZM226.83 53.22H242.886V55.29H226.83V53.22ZM232.698 59.052H242.13V61.05H232.698V59.052ZM231.996 65.172H242.814V67.17H231.996V65.172ZM236.37 56.064H238.548V66.234H236.37V56.064ZM232.5 50.7L234.75 51.24C233.418 55.578 231.15 59.952 227.298 62.58C227.082 61.968 226.578 61.014 226.254 60.492C229.512 58.368 231.564 54.336 232.5 50.7ZM228.9 58.242H231.078V67.584H228.9V58.242ZM245.964 57.81H262.632V60.168H245.964V57.81ZM274.944 50.7L276.852 51.222C276.024 53.22 274.602 55.092 273.054 56.262C272.784 55.866 272.118 55.038 271.722 54.66C273.09 53.742 274.296 52.284 274.944 50.7ZM275.196 52.32H281.91V53.958H274.188L275.196 52.32ZM275.16 53.382C276.186 55.29 278.616 57.18 282.324 57.81C281.928 58.224 281.388 59.034 281.118 59.556C277.356 58.674 274.854 56.388 273.72 54.174L275.16 53.382ZM270.048 53.31H271.884V64.56H270.048V53.31ZM268.482 50.718L270.48 51.312C269.472 54.462 267.852 57.864 266.052 60.024C265.89 59.502 265.35 58.26 265.008 57.702C266.43 55.992 267.726 53.364 268.482 50.718ZM267.06 55.776L269.058 53.778L269.112 53.814V67.602H267.06V55.776ZM272.604 60.492H281.64V62.364H272.604V60.492ZM273.594 62.85L275.448 63.39C274.818 64.614 273.828 65.928 272.91 66.738C272.55 66.432 271.74 65.91 271.29 65.676C272.226 64.956 273.072 63.894 273.594 62.85ZM278.544 63.534L280.128 62.778C280.974 63.66 281.856 64.866 282.27 65.712L280.596 66.612C280.236 65.748 279.354 64.452 278.544 63.534ZM275.952 58.962H277.968V67.566H275.952V58.962ZM279.3 52.914L281.316 53.418C279.768 56.64 276.744 58.512 273.108 59.592C272.91 59.142 272.298 58.26 271.92 57.846C275.34 57.072 278.112 55.506 279.3 52.914ZM293.952 65.118H299.622V66.972H293.952V65.118ZM294.726 52.428H299.298V54.264H294.726V52.428ZM293.07 60.906H300.504V67.512H298.452V62.724H295.05V67.566H293.07V60.906ZM298.542 52.428H298.92L299.298 52.356L300.666 52.932C299.352 57.45 296.31 60.33 292.656 61.878C292.404 61.374 291.864 60.636 291.432 60.24C294.69 59.052 297.534 56.298 298.542 52.77V52.428ZM294.798 50.7L296.85 51.204C296.04 53.634 294.708 55.974 293.25 57.45C292.89 57.072 292.062 56.37 291.576 56.064C292.98 54.804 294.168 52.788 294.798 50.7ZM294.852 53.436C295.878 55.866 298.218 58.656 301.89 59.808C301.458 60.222 300.846 61.068 300.558 61.626C296.85 60.186 294.492 57.036 293.394 54.372L294.852 53.436ZM285.42 58.656H287.184V65.208H285.42V58.656ZM287.436 53.238V55.524H289.812V53.238H287.436ZM285.564 51.384H291.792V57.378H285.564V51.384ZM288.084 56.622H289.992V64.668H288.084V56.622ZM284.628 64.866C286.536 64.524 289.416 63.894 292.116 63.282L292.314 65.19C289.776 65.82 287.04 66.468 284.988 66.936L284.628 64.866ZM288.84 59.484H291.972V61.374H288.84V59.484ZM312.078 56.118H319.566V58.296H312.078V56.118ZM304.374 64.56H320.826V66.738H304.374V64.56ZM310.854 50.934H313.176V65.766H310.854V50.934ZM330.51 63.12L329.934 61.662C331.446 61.194 332.274 60.312 332.274 59.268L332.148 57.504L333.138 59.124C332.85 59.394 332.472 59.52 332.076 59.52C331.176 59.52 330.348 58.926 330.348 57.9C330.348 56.892 331.158 56.28 332.13 56.28C333.39 56.28 334.074 57.252 334.074 58.764C334.074 60.798 332.742 62.454 330.51 63.12ZM17.652 78.716H29.172V80.318H17.652V78.716ZM18.966 83.414H27.66V84.944H18.966V83.414ZM18.966 81.092H27.66V82.604H18.966V81.092ZM20.784 87.302V88.814H25.698V87.302H20.784ZM18.768 85.772H27.822V90.362H18.768V85.772ZM21.558 77.204L23.538 76.448C23.952 77.006 24.492 77.816 24.744 78.32L22.656 79.166C22.44 78.662 21.936 77.816 21.558 77.204ZM13.206 77.708L14.808 76.718C15.672 77.564 16.68 78.698 17.22 79.418L15.582 80.624C15.078 79.85 14.034 78.59 13.206 77.708ZM12.756 80.912H16.572V82.64H12.756V80.912ZM16.41 88.742C17.382 91.172 19.488 91.46 22.746 91.478C24.672 91.478 27.642 91.352 29.676 91.172C29.388 91.604 29.1 92.576 28.992 93.17C27.12 93.278 24.816 93.332 22.71 93.332C18.534 93.332 16.302 92.774 14.97 89.318L16.41 88.742ZM15.978 85.286H16.482L16.824 85.25L17.868 85.628C17.256 89.606 15.78 92.27 13.674 93.638C13.404 93.224 12.702 92.486 12.306 92.198C14.25 91.028 15.528 88.778 15.978 85.61V85.286ZM13.098 87.248V85.7L13.872 85.286H16.59L16.572 86.96H14.196C13.764 86.96 13.242 87.086 13.098 87.248ZM13.098 87.248C12.972 86.798 12.594 85.88 12.396 85.484C12.702 85.412 12.99 85.286 13.332 84.908C13.872 84.404 15.492 82.1 16.104 81.11V81.056L16.662 80.822L17.976 81.416C17.13 82.658 15.564 84.89 14.538 86.06C14.538 86.06 13.098 86.762 13.098 87.248ZM39.126 82.244H48.342V84.116H39.126V82.244ZM38.55 78.626H48.828V80.534H38.55V78.626ZM38.568 85.52H48.756V87.41H38.568V85.52ZM42.618 76.7H44.742V83.306H42.618V76.7ZM44.904 83.882H47.01V91.334C47.01 92.378 46.812 92.936 46.11 93.242C45.39 93.566 44.418 93.602 43.068 93.602C42.996 93.008 42.672 92.144 42.384 91.586C43.266 91.622 44.256 91.622 44.526 91.604C44.814 91.604 44.904 91.55 44.904 91.298V83.882ZM39.288 88.616L41.088 87.644C41.808 88.508 42.798 89.75 43.266 90.542L41.358 91.658C40.944 90.866 40.026 89.57 39.288 88.616ZM33.582 77.816H38.226V90.128H33.582V88.202H36.21V79.742H33.582V77.816ZM33.69 82.928H37.182V84.818H33.69V82.928ZM32.574 77.816H34.572V91.73H32.574V77.816ZM58.998 76.772L61.122 77.258C60.366 80.102 59.088 82.928 57.648 84.71C57.27 84.332 56.406 83.63 55.92 83.306C57.288 81.758 58.386 79.274 58.998 76.772ZM58.494 84.782L60.582 85.214C60.078 87.5 59.142 89.804 58.134 91.262C57.72 90.92 56.802 90.362 56.298 90.092C57.306 88.832 58.08 86.78 58.494 84.782ZM59.394 79.94H66.774V81.938H58.584L59.394 79.94ZM61.464 80.822H63.606V91.208C63.606 92.252 63.426 92.846 62.778 93.206C62.148 93.548 61.266 93.638 60.114 93.638C60.006 93.008 59.682 92.054 59.376 91.46C60.132 91.496 60.888 91.478 61.14 91.478C61.374 91.478 61.464 91.424 61.464 91.19V80.822ZM64.236 85.25L66.18 84.602C67.116 86.456 67.89 88.85 68.142 90.488L66.072 91.208C65.874 89.588 65.118 87.104 64.236 85.25ZM66.198 79.94H66.486L66.828 79.886L68.34 80.156C68.124 81.632 67.8 83.306 67.566 84.386L65.712 84.062C65.874 83.09 66.072 81.488 66.198 80.228V79.94ZM55.146 76.79L57.18 77.42C56.01 80.498 54.138 83.738 52.176 85.79C51.978 85.268 51.402 84.08 51.024 83.558C52.662 81.92 54.228 79.364 55.146 76.79ZM53.4 81.758L55.452 79.706L55.47 79.724V93.602H53.4V81.758ZM77.214 80.336H80.4V81.866H77.214V80.336ZM82.632 80.336H85.836V81.866H82.632V80.336ZM85.188 77.672H87.24V91.118C87.24 92.288 87.006 92.864 86.268 93.188C85.53 93.548 84.396 93.584 82.704 93.584C82.614 93.008 82.29 92.054 82.002 91.514C83.1 91.568 84.36 91.568 84.72 91.55C85.062 91.55 85.188 91.442 85.188 91.1V77.672ZM75.954 77.672H77.952V93.566H75.954V77.672ZM77.34 77.672H81.066V84.584H77.34V82.946H79.446V79.31H77.34V77.672ZM86.196 77.672V79.31H83.568V82.946H86.196V84.584H81.876V77.672H86.196ZM74.082 76.754L76.08 77.33C75.054 80.48 73.398 83.9 71.562 86.06C71.382 85.52 70.86 84.296 70.518 83.72C71.976 82.028 73.308 79.382 74.082 76.754ZM72.66 81.686L74.658 79.706L74.712 79.742V93.602H72.66V81.686ZM102.432 86.276L103.62 86.024C103.998 86.906 104.358 88.112 104.484 88.832L103.224 89.156C103.116 88.418 102.774 87.194 102.432 86.276ZM98.4 81.002V81.902H103.782V81.002H98.4ZM98.4 78.752V79.634H103.782V78.752H98.4ZM96.654 77.312H105.618V83.36H96.654V77.312ZM98.04 87.374C99.516 87.284 101.64 87.122 103.782 86.978L103.8 88.382C101.82 88.58 99.804 88.796 98.22 88.94L98.04 87.374ZM104.808 84.188H106.572V89.336C106.572 90.11 106.41 90.488 105.87 90.722C105.348 90.938 104.574 90.956 103.494 90.956C103.422 90.524 103.206 89.948 103.008 89.57C103.638 89.588 104.322 89.588 104.52 89.588C104.736 89.588 104.808 89.534 104.808 89.354V84.188ZM100.164 77.834H101.928V84.638H100.164V77.834ZM100.056 84.638H101.874V88.274H100.056V84.638ZM95.304 84.188H105.312V85.7H95.304V84.188ZM95.952 83.648H97.734V90.776H95.952V83.648ZM90.948 77.672L92.568 76.718C93.378 77.582 94.332 78.716 94.818 79.454L93.126 80.606C92.676 79.832 91.704 78.572 90.948 77.672ZM90.516 80.948H94.206V82.676H90.516V80.948ZM94.17 88.742C95.124 91.172 97.248 91.46 100.506 91.478C102.432 91.478 105.402 91.37 107.454 91.172C107.148 91.604 106.878 92.576 106.77 93.152C104.88 93.278 102.576 93.314 100.47 93.314C96.294 93.314 94.062 92.774 92.73 89.318L94.17 88.742ZM93.306 85.286H93.954L94.296 85.25L95.196 85.61C94.674 89.534 93.396 92.252 91.506 93.674C91.236 93.26 90.516 92.522 90.12 92.234C91.848 91.028 92.928 88.742 93.306 85.61V85.286ZM90.858 87.248V85.7L91.632 85.286H94.278V86.96H91.956C91.524 86.96 91.002 87.086 90.858 87.248ZM90.858 87.248C90.732 86.798 90.354 85.88 90.156 85.502C90.462 85.412 90.75 85.286 91.092 84.908C91.614 84.404 93.18 82.1 93.774 81.11V81.056L94.314 80.822L95.628 81.398C94.8 82.64 93.288 84.89 92.298 86.06C92.298 86.06 90.858 86.762 90.858 87.248ZM114.42 82.028V83.144H121.98V82.028H114.42ZM114.42 84.908V86.024H121.98V84.908H114.42ZM114.42 79.166V80.282H121.98V79.166H114.42ZM112.332 77.276H124.176V87.914H112.332V77.276ZM119.028 86.456H121.224V90.776C121.224 91.352 121.35 91.442 121.998 91.442C122.304 91.442 123.51 91.442 123.888 91.442C124.518 91.442 124.626 91.136 124.716 89.012C125.148 89.372 126.102 89.732 126.696 89.876C126.462 92.738 125.886 93.476 124.086 93.476C123.636 93.476 122.124 93.476 121.71 93.476C119.55 93.476 119.028 92.828 119.028 90.776V86.456ZM114.618 87.194H116.94C116.634 90.47 115.788 92.594 110.928 93.692C110.748 93.116 110.172 92.234 109.722 91.766C113.898 90.992 114.384 89.606 114.618 87.194ZM136.578 83.072H138.864V91.154C138.864 92.378 138.576 92.972 137.676 93.296C136.776 93.62 135.48 93.656 133.752 93.638C133.626 93.008 133.23 92.054 132.888 91.46C134.166 91.514 135.642 91.514 136.056 91.496C136.452 91.496 136.578 91.406 136.578 91.1V83.072ZM130.314 77.978H142.896V80.102H130.314V77.978ZM142.248 77.978H142.86L143.346 77.852L145.056 79.13C143.22 81.11 140.52 83.306 138.018 84.62C137.694 84.152 137.01 83.432 136.578 83.072C138.738 81.92 141.222 79.868 142.248 78.5V77.978ZM152.058 84.53H161.544V83.504H150.33V81.722H163.668V86.312H152.058V84.53ZM150.978 84.53H153.066C152.904 86.114 152.67 87.968 152.454 89.174H150.312C150.582 87.914 150.852 86.06 150.978 84.53ZM151.698 87.374H162.966V89.174H151.158L151.698 87.374ZM162.39 87.374H164.568C164.568 87.374 164.55 87.878 164.514 88.148C164.334 90.542 164.118 91.712 163.65 92.216C163.272 92.63 162.84 92.774 162.264 92.828C161.778 92.9 160.896 92.9 159.978 92.882C159.942 92.252 159.69 91.442 159.366 90.902C160.14 90.992 160.878 91.01 161.22 90.992C161.508 90.992 161.67 90.974 161.832 90.83C162.084 90.578 162.264 89.696 162.39 87.626V87.374ZM155.82 82.136H157.926V93.62H155.82V82.136ZM155.388 88.004L157.062 88.724C155.496 90.794 152.868 92.612 150.312 93.548C150.024 93.044 149.412 92.252 148.944 91.856C151.428 91.118 154.056 89.624 155.388 88.004ZM151.212 77.816H156.846V79.454H151.212V77.816ZM158.646 77.816H165.396V79.454H158.646V77.816ZM151.302 76.556L153.21 77.114C152.49 78.86 151.284 80.66 150.132 81.812C149.826 81.434 149.106 80.678 148.692 80.336C149.736 79.4 150.744 77.978 151.302 76.556ZM158.754 76.556L160.716 77.06C160.14 78.644 159.132 80.228 158.106 81.218C157.746 80.858 156.954 80.228 156.504 79.94C157.476 79.112 158.304 77.834 158.754 76.556ZM152.364 80.066L153.642 78.932C154.29 79.436 155.1 80.156 155.496 80.66L154.146 81.902C153.786 81.38 152.994 80.606 152.364 80.066ZM160.212 80.102L161.598 78.968C162.246 79.418 163.092 80.102 163.524 80.57L162.066 81.83C161.688 81.344 160.86 80.606 160.212 80.102ZM168.204 83.81H184.872V86.168H168.204V83.81ZM193.062 77.636H203.88V93.458H201.828V79.508H195.024V93.602H193.062V77.636ZM195.492 81.722H201.414V83.288H195.492V81.722ZM194.07 90.668H202.818V92.558H194.07V90.668ZM197.562 79.886H199.236V85.664H197.562V79.886ZM197.508 86.348V88.22H199.344V86.348H197.508ZM195.96 84.854H200.982V89.714H195.96V84.854ZM190.83 76.772L192.81 77.366C191.766 80.48 190.038 83.81 188.166 85.934C188.004 85.412 187.464 84.152 187.122 83.594C188.634 81.938 190.02 79.346 190.83 76.772ZM189.354 81.704L191.388 79.67L191.406 79.688V93.638H189.354V81.704ZM215.202 86.978H222.402V88.76H215.202V86.978ZM215.166 90.65H222.438V92.522H215.166V90.65ZM215.508 76.88H217.488V82.64H215.508V76.88ZM220.062 76.88H222.078V82.64H220.062V76.88ZM217.812 84.332H219.648V91.604H217.812V84.332ZM214.374 83.306H223.14V93.44H221.088V85.178H216.318V93.602H214.374V83.306ZM209.892 83.234L211.296 82.388C214.032 85.232 214.068 91.028 212.844 92.504C212.322 93.206 211.71 93.458 210.9 93.476C210.558 93.476 210.054 93.476 209.622 93.44C209.586 92.9 209.46 92.126 209.172 91.586C209.658 91.64 210.162 91.658 210.468 91.658C210.828 91.658 211.098 91.586 211.332 91.172C212.016 90.308 212.142 85.61 209.892 83.234ZM211.278 84.458L212.52 85.322C211.422 86.438 209.424 87.806 207.93 88.58C207.696 88.13 207.282 87.464 206.94 87.086C208.38 86.528 210.324 85.412 211.278 84.458ZM212.07 86.6L213.33 87.482C212.034 89.084 209.676 90.92 207.732 91.91C207.498 91.442 207.084 90.758 206.706 90.362C208.596 89.624 210.918 88.022 212.07 86.6ZM207.444 81.236L208.848 80.534C209.316 81.218 209.91 82.154 210.162 82.748L208.668 83.576C208.47 82.946 207.912 81.974 207.444 81.236ZM210.09 80.246L211.458 79.508C211.854 80.066 212.34 80.822 212.556 81.326L211.134 82.154C210.918 81.65 210.468 80.84 210.09 80.246ZM213.114 80.102L214.356 81.29C212.772 83 210.378 84.458 208.056 85.448C207.822 85.034 207.39 84.386 207.03 84.044C209.334 83.108 211.71 81.632 213.114 80.102ZM212.412 76.736L213.564 78.032C212.124 79.058 209.91 79.85 207.912 80.336C207.678 79.886 207.3 79.184 206.922 78.788C208.866 78.374 211.08 77.564 212.412 76.736ZM213.87 78.824H218.478V80.822H213.87V78.824ZM219.054 78.842H223.86V80.822H219.054V78.842ZM228.18 78.014H232.5V90.092H228.18V88.112H230.484V79.976H228.18V78.014ZM227.01 78.014H229.008V91.802H227.01V78.014ZM236.82 76.718H238.89V93.62H236.82V76.718ZM232.95 83.27H243.156V85.268H232.95V83.27ZM234.822 86.114L236.478 86.546C235.902 89.192 234.876 91.838 233.472 93.368C233.13 92.864 232.482 92.144 232.014 91.766C233.274 90.56 234.3 88.292 234.822 86.114ZM240.69 77.816L242.94 78.554C242.238 80.084 241.482 81.794 240.87 82.91L239.232 82.262C239.754 81.056 240.384 79.184 240.69 77.816ZM232.95 78.68L234.678 77.906C235.344 79.22 236.046 80.912 236.262 82.01L234.39 82.892C234.192 81.794 233.58 80.03 232.95 78.68ZM239.268 86.888L240.96 86.042C241.914 88.058 243.048 90.668 243.48 92.27L241.644 93.296C241.248 91.622 240.204 88.94 239.268 86.888ZM246.972 77.816H261.57V79.94H246.972V77.816ZM247.818 83.99H260.868V86.114H247.818V83.99ZM246.09 90.704H262.488V92.828H246.09V90.704ZM253.11 78.374H255.396V92.072H253.11V78.374ZM268.68 81.236H278.724V82.748H268.68V81.236ZM275.916 80.264L276.87 79.328C277.482 79.616 278.22 80.084 278.58 80.48L277.59 81.506C277.23 81.11 276.51 80.606 275.916 80.264ZM276.654 83.252L278.328 83.576C277.428 86.762 275.682 89.21 273.324 90.722C273.108 90.398 272.514 89.714 272.154 89.426C274.404 88.148 275.952 86.006 276.654 83.252ZM268.482 88.112C269.796 87.968 271.686 87.734 273.576 87.482L273.63 88.922C271.884 89.192 270.12 89.462 268.68 89.678L268.482 88.112ZM270.534 84.674V85.826H271.74V84.674H270.534ZM269.148 83.522H273.18V86.96H269.148V83.522ZM273.504 79.688H275.304C275.43 84.17 276.042 88.4 277.23 88.688C277.428 88.742 277.572 88.04 277.662 86.978C277.986 87.32 278.634 87.824 278.994 88.004C278.724 90.236 277.752 90.92 276.564 90.38C274.314 89.66 273.774 84.872 273.504 79.688ZM265.998 77.492H281.424V93.674H279.282V79.436H268.032V93.674H265.998V77.492ZM267.276 90.992H280.452V92.918H267.276V90.992ZM286.734 79.634H292.26V91.766H286.734V89.858H290.298V81.524H286.734V79.634ZM285.474 79.634H287.436V93.098H285.474V79.634ZM286.644 84.44H291.252V86.312H286.644V84.44ZM288.03 76.7L290.388 77.042C289.974 78.266 289.524 79.544 289.164 80.39L287.436 80.012C287.688 79.076 287.94 77.69 288.03 76.7ZM294.636 79.508H299.892V81.47H294.636V79.508ZM299.154 79.508H301.152C301.152 79.508 301.152 80.21 301.134 80.48C300.9 88.58 300.684 91.442 299.946 92.396C299.442 93.098 298.938 93.296 298.2 93.404C297.516 93.512 296.418 93.494 295.374 93.44C295.338 92.846 295.05 91.928 294.654 91.352C295.824 91.442 296.904 91.46 297.354 91.46C297.714 91.46 297.912 91.388 298.146 91.136C298.722 90.524 298.956 87.428 299.154 79.922V79.508ZM294.69 76.718L296.76 77.204C296.058 79.868 294.888 82.604 293.664 84.332C293.268 83.972 292.386 83.36 291.882 83.072C293.088 81.56 294.114 79.112 294.69 76.718ZM293.808 84.692L295.5 83.738C296.382 84.98 297.57 86.708 298.128 87.77L296.292 88.886C295.806 87.788 294.672 86.024 293.808 84.692ZM311.178 76.736H313.644C313.536 80.462 313.428 89.156 305.904 93.584C305.508 93.008 304.806 92.324 304.104 91.838C311.43 87.896 311.088 79.814 311.178 76.736ZM313.446 78.932C313.59 80.39 314.166 88.49 321.186 91.622C320.538 92.126 319.926 92.864 319.602 93.476C312.222 89.966 311.628 80.966 311.358 79.166L313.446 78.932ZM331.212 83.09H333.426C333.678 87.41 335.694 91.28 337.26 91.28C337.692 91.262 337.872 90.506 337.98 88.706C338.466 89.138 339.276 89.57 339.852 89.75C339.546 92.756 338.772 93.404 337.134 93.404C333.984 93.422 331.554 88.598 331.212 83.09ZM326.208 85.448H339.456V87.464H326.208V85.448ZM326.154 77.546H338.178V83.414H326.154V81.416H335.982V79.526H326.154V77.546ZM325.038 93.728L324.876 91.874L325.848 91.154L331.752 89.822C331.77 90.416 331.878 91.37 331.986 91.856C326.496 93.206 325.596 93.404 325.038 93.728ZM325.038 93.728C324.876 93.17 324.408 92.234 324.066 91.802C324.48 91.568 325.002 91.064 325.002 90.254V77.546H327.27V91.73C327.27 91.73 325.038 92.9 325.038 93.728ZM20.118 102.772L22.242 103.258C21.486 106.102 20.208 108.928 18.768 110.71C18.39 110.332 17.526 109.63 17.04 109.306C18.408 107.758 19.506 105.274 20.118 102.772ZM19.614 110.782L21.702 111.214C21.198 113.5 20.262 115.804 19.254 117.262C18.84 116.92 17.922 116.362 17.418 116.092C18.426 114.832 19.2 112.78 19.614 110.782ZM20.514 105.94H27.894V107.938H19.704L20.514 105.94ZM22.584 106.822H24.726V117.208C24.726 118.252 24.546 118.846 23.898 119.206C23.268 119.548 22.386 119.638 21.234 119.638C21.126 119.008 20.802 118.054 20.496 117.46C21.252 117.496 22.008 117.478 22.26 117.478C22.494 117.478 22.584 117.424 22.584 117.19V106.822ZM25.356 111.25L27.3 110.602C28.236 112.456 29.01 114.85 29.262 116.488L27.192 117.208C26.994 115.588 26.238 113.104 25.356 111.25ZM27.318 105.94H27.606L27.948 105.886L29.46 106.156C29.244 107.632 28.92 109.306 28.686 110.386L26.832 110.062C26.994 109.09 27.192 107.488 27.318 106.228V105.94ZM16.266 102.79L18.3 103.42C17.13 106.498 15.258 109.738 13.296 111.79C13.098 111.268 12.522 110.08 12.144 109.558C13.782 107.92 15.348 105.364 16.266 102.79ZM14.52 107.758L16.572 105.706L16.59 105.724V119.602H14.52V107.758ZM32.376 108.568H48.486V110.458H32.376V108.568ZM44.994 102.646L46.794 103.852C43.554 105.904 38.442 107.308 34.23 108.136C33.888 107.65 33.24 106.75 32.772 106.336C37.254 105.724 42.204 104.392 44.994 102.646ZM39.99 110.746H42.096V119.62H39.99V110.746ZM35.292 112.222H45.876V114.112H37.434V118.702H35.292V112.222ZM44.922 112.222H47.082V116.506C47.082 117.46 46.902 117.964 46.218 118.27C45.57 118.558 44.67 118.576 43.446 118.576C43.356 118 43.068 117.226 42.816 116.722C43.536 116.758 44.364 116.758 44.598 116.74C44.832 116.74 44.922 116.686 44.922 116.488V112.222ZM33.978 104.158L35.472 102.88C39.216 103.744 44.49 105.4 47.388 106.732L45.732 108.226C43.14 106.948 37.902 105.148 33.978 104.158ZM38.424 106.516L40.62 107.11C39.18 110.566 36.732 113.896 33.294 115.822C32.97 115.336 32.304 114.58 31.854 114.184C35.094 112.528 37.398 109.45 38.424 106.516ZM51.528 104.428H59.646V106.246H51.528V104.428ZM52.806 114.868H67.044V116.596H52.806V114.868ZM51.816 117.55H67.908V119.314H51.816V117.55ZM58.746 112.906H60.924V118.504H58.746V112.906ZM54.462 103.186L56.37 102.664C56.766 103.384 57.162 104.356 57.342 104.968L55.344 105.616C55.2 104.95 54.804 103.942 54.462 103.186ZM52.878 105.202H54.84V108.802C54.84 109.342 54.93 109.54 55.38 109.54C55.758 109.54 57.288 109.54 57.684 109.54C58.116 109.54 58.782 109.486 59.124 109.414C59.16 109.918 59.232 110.728 59.304 111.178C58.962 111.304 58.314 111.322 57.738 111.322C57.288 111.322 55.722 111.322 55.38 111.322C53.382 111.322 52.878 110.656 52.878 108.766V105.202ZM66.09 111.34L66.972 113.086C63.228 113.77 57.792 114.058 53.274 114.076C53.238 113.554 53.004 112.798 52.824 112.348C57.414 112.276 62.724 111.934 66.09 111.34ZM61.23 105.976L62.4 105.166C63.498 105.886 64.938 106.948 65.676 107.632L64.452 108.55C63.768 107.848 62.328 106.732 61.23 105.976ZM59.718 107.272L61.068 106.57C61.914 107.362 63.048 108.514 63.606 109.216L62.184 110.044C61.68 109.306 60.582 108.118 59.718 107.272ZM61.932 102.772L63.984 103.114C63.084 105.022 61.806 106.822 59.808 108.316C59.466 107.866 58.8 107.218 58.314 106.948C60.132 105.778 61.32 104.176 61.932 102.772ZM66.288 103.942H66.684L67.08 103.888L68.376 104.32C67.296 108.91 64.506 110.908 60.474 111.916C60.24 111.412 59.808 110.692 59.448 110.278C62.94 109.612 65.478 107.758 66.288 104.248V103.942ZM62.76 103.942H66.72V105.58H61.284L62.76 103.942ZM81.984 102.718H84V115.426H81.984V102.718ZM76.764 109.918L85.854 105.832L86.664 107.668L77.61 111.808L76.764 109.918ZM78.618 104.464H80.67V116.164C80.67 117.19 80.814 117.334 81.804 117.334C82.272 117.334 84.378 117.334 84.9 117.334C85.764 117.334 85.926 116.92 86.052 115.084C86.538 115.426 87.366 115.768 87.942 115.876C87.672 118.396 87.06 119.26 85.062 119.26C84.522 119.26 82.092 119.26 81.588 119.26C79.248 119.26 78.618 118.612 78.618 116.164V104.464ZM70.986 112.69C72.696 112.384 75.306 111.808 77.772 111.25L77.988 113.248C75.756 113.842 73.362 114.436 71.508 114.886L70.986 112.69ZM74.082 102.718H76.134V119.62H74.082V102.718ZM71.778 104.104L73.65 104.41C73.434 106.822 72.966 109.342 72.336 110.944C71.958 110.692 71.094 110.278 70.626 110.098C71.256 108.64 71.616 106.3 71.778 104.104ZM72.444 106.228H77.88V108.28H72.03L72.444 106.228ZM85.296 106.228H85.098L85.818 105.706L87.438 106.21L87.366 106.552C87.33 108.982 87.168 112.204 86.826 114.328L85.08 113.842C85.242 111.952 85.314 108.676 85.296 106.228ZM90.804 110.404H106.752V112.312H90.804V110.404ZM98.868 113.662H105.6V115.516H98.868V113.662ZM97.86 111.376H100.038V118.036H97.86V111.376ZM95.07 114.256C96.06 116.884 98.346 117.298 101.496 117.316C102.486 117.334 105.96 117.316 107.256 117.28C106.95 117.748 106.626 118.702 106.518 119.332H101.37C97.23 119.332 94.764 118.594 93.288 114.832L95.07 114.256ZM93.504 112.69L95.664 112.996C95.07 115.966 93.774 118.234 91.776 119.656C91.452 119.26 90.624 118.468 90.156 118.144C91.992 117.01 93.09 115.102 93.504 112.69ZM94.566 107.182V108.082H102.828V107.182H94.566ZM94.566 104.86V105.76H102.828V104.86H94.566ZM92.478 103.33H105.024V109.612H92.478V103.33ZM112.116 118.252C111.162 118.252 110.478 117.514 110.478 116.524C110.478 115.534 111.162 114.814 112.116 114.814C113.052 114.814 113.772 115.534 113.772 116.524C113.772 117.514 113.052 118.252 112.116 118.252ZM119.41 118.252C118.456 118.252 117.772 117.514 117.772 116.524C117.772 115.534 118.456 114.814 119.41 114.814C120.346 114.814 121.066 115.534 121.066 116.524C121.066 117.514 120.346 118.252 119.41 118.252ZM126.703 118.252C125.749 118.252 125.065 117.514 125.065 116.524C125.065 115.534 125.749 114.814 126.703 114.814C127.639 114.814 128.359 115.534 128.359 116.524C128.359 117.514 127.639 118.252 126.703 118.252ZM133.997 118.252C133.043 118.252 132.359 117.514 132.359 116.524C132.359 115.534 133.043 114.814 133.997 114.814C134.933 114.814 135.653 115.534 135.653 116.524C135.653 117.514 134.933 118.252 133.997 118.252ZM141.29 118.252C140.336 118.252 139.652 117.514 139.652 116.524C139.652 115.534 140.336 114.814 141.29 114.814C142.226 114.814 142.946 115.534 142.946 116.524C142.946 117.514 142.226 118.252 141.29 118.252ZM148.584 118.252C147.63 118.252 146.946 117.514 146.946 116.524C146.946 115.534 147.63 114.814 148.584 114.814C149.52 114.814 150.24 115.534 150.24 116.524C150.24 117.514 149.52 118.252 148.584 118.252Z" fill="black"/>
<defs>
<filter id="filter0_d_144_1177" x="0" y="0" width="362" height="153" filterUnits="userSpaceOnUse" color-interpolation-filters="sRGB">
<feFlood flood-opacity="0" result="BackgroundImageFix"/>
<feColorMatrix in="SourceAlpha" type="matrix" values="0 0 0 0 0 0 0 0 0 0 0 0 0 0 0 0 0 0 127 0" result="hardAlpha"/>
<feOffset dx="7" dy="7"/>
<feComposite in2="hardAlpha" operator="out"/>
<feColorMatrix type="matrix" values="0 0 0 0 0.5425 0 0 0 0 0 0 0 0 0 0.875 0 0 0 1 0"/>
<feBlend mode="normal" in2="BackgroundImageFix" result="effect1_dropShadow_144_1177"/>
<feBlend mode="normal" in="SourceGraphic" in2="effect1_dropShadow_144_1177" result="shape"/>
</filter>
</defs>
</svg>
