<svg width="362" height="153" viewBox="0 0 362 153" fill="none" xmlns="http://www.w3.org/2000/svg">
<g filter="url(#filter0_d_144_1178)">
<rect width="355" height="146" fill="white"/>
</g>
<path d="M117.68 25.54H127.46V24.78H115.44V22.42H130.32V27.9H117.68V25.54ZM116.16 25.54H118.98C118.8 27.44 118.54 29.66 118.3 31.1H115.42C115.72 29.6 116.02 27.38 116.16 25.54ZM117.24 28.7H129.32V31.1H116.52L117.24 28.7ZM128.56 28.7H131.48C131.48 28.7 131.46 29.36 131.42 29.7C131.26 32.3 131.04 33.64 130.52 34.22C130.04 34.76 129.5 34.94 128.84 35.02C128.26 35.1 127.3 35.12 126.28 35.1C126.24 34.26 125.9 33.16 125.46 32.46C126.24 32.54 127 32.56 127.38 32.54C127.68 32.54 127.86 32.52 128.06 32.36C128.3 32.1 128.46 31.18 128.56 29.04V28.7ZM121.3 22.94H124.14V35.9H121.3V22.94ZM120.78 29.58L123.02 30.54C121.26 32.8 118.44 34.74 115.56 35.76C115.16 35.08 114.34 34.02 113.74 33.48C116.5 32.72 119.34 31.22 120.78 29.58ZM116.46 18H122.68V20.18H116.46V18ZM124.74 18H132.32V20.16H124.74V18ZM116.4 16.7L118.96 17.46C118.14 19.42 116.76 21.5 115.46 22.78C115.06 22.28 114.1 21.26 113.56 20.8C114.7 19.8 115.8 18.24 116.4 16.7ZM124.7 16.7L127.34 17.38C126.68 19.2 125.52 21.04 124.36 22.18C123.88 21.7 122.82 20.86 122.22 20.48C123.3 19.56 124.22 18.12 124.7 16.7ZM117.66 20.88L119.36 19.36C120.08 19.88 121 20.68 121.46 21.24L119.66 22.92C119.26 22.34 118.36 21.48 117.66 20.88ZM126.38 20.9L128.22 19.36C128.94 19.84 129.9 20.58 130.38 21.1L128.44 22.78C128.02 22.24 127.1 21.44 126.38 20.9ZM136.94 18.8H152.26V21.78H136.94V18.8ZM138.38 25.18H150.64V28.14H138.38V25.18ZM135.82 31.86H153.3V34.84H135.82V31.86ZM164.24 27.58L165.6 27.24C165.86 27.96 166.16 28.92 166.28 29.48L164.86 29.92C164.76 29.32 164.48 28.32 164.24 27.58ZM166.5 29.74H168.46V35.68H166.5V29.74ZM161.32 30.1H163.04V31.74H165.04V33.28H161.32V30.1ZM163.86 29.74H165.78V31.76C165.78 33.4 165.38 34.96 162.8 35.82C162.58 35.38 161.98 34.62 161.58 34.28C163.58 33.7 163.86 32.72 163.86 31.7V29.74ZM159.1 20.14H163.8V21.84H159.1V20.14ZM168.3 20.14H173V21.84H168.3V20.14ZM172.04 17.62H174.84V32.68C174.84 33.98 174.66 34.76 173.9 35.24C173.14 35.72 172.18 35.78 170.8 35.78C170.72 35 170.38 33.7 170.02 32.96C170.66 33 171.44 33 171.7 33C171.96 33 172.04 32.9 172.04 32.64V17.62ZM159.38 17.62H165.66V24.36H159.38V22.46H162.94V19.52H159.38V17.62ZM173.5 17.62V19.52H169.46V22.46H173.5V24.36H166.7V17.62H173.5ZM157.66 17.62H160.42V35.9H157.66V17.62ZM161.5 27.52C161.4 27.16 161.14 26.36 160.94 25.94C161.16 25.88 161.4 25.78 161.6 25.58C161.8 25.4 162.5 24.72 162.88 23.94L164.44 24.78C163.88 25.48 163.12 26.2 162.46 26.64V26.68C162.46 26.68 161.5 27.18 161.5 27.52ZM161.5 27.54L161.48 26.52L162.16 26.12L164.66 26.02C164.56 26.38 164.44 26.9 164.42 27.18C162.26 27.32 161.76 27.42 161.5 27.54ZM161.44 29.92C161.36 29.6 161.12 28.82 160.94 28.4C161.26 28.36 161.6 28.16 162 27.86C162.4 27.56 163.76 26.4 164.64 25.18L165.96 26.14C164.92 27.24 163.6 28.34 162.34 29.1V29.16C162.34 29.16 161.44 29.6 161.44 29.92ZM161.44 29.94L161.4 28.84L162.06 28.4L165.28 28.06C165.3 28.44 165.38 28.94 165.44 29.24C162.3 29.66 161.76 29.78 161.44 29.94ZM169.54 27.62L170.86 27.22C171.18 27.94 171.54 28.9 171.68 29.46L170.3 29.96C170.16 29.36 169.82 28.36 169.54 27.62ZM166.78 27.56C166.68 27.2 166.42 26.4 166.22 25.98C166.44 25.92 166.68 25.82 166.88 25.62C167.08 25.44 167.78 24.76 168.16 23.98L169.72 24.82C169.16 25.52 168.4 26.24 167.74 26.68V26.72C167.74 26.72 166.78 27.22 166.78 27.56ZM166.78 27.56L166.76 26.54L167.44 26.14L169.94 26.04C169.84 26.4 169.72 26.92 169.7 27.2C167.54 27.34 167.04 27.44 166.78 27.56ZM166.76 29.96C166.68 29.64 166.44 28.86 166.26 28.44C166.58 28.38 166.92 28.2 167.32 27.88C167.72 27.58 169.08 26.38 169.96 25.14L171.3 26.1C170.24 27.24 168.92 28.36 167.66 29.14V29.2C167.66 29.2 166.76 29.64 166.76 29.96ZM166.76 29.96L166.72 28.86L167.38 28.42L170.6 28.08C170.62 28.46 170.7 28.96 170.76 29.26C167.62 29.68 167.08 29.8 166.76 29.96ZM168.04 31.74H170.22V33.28H168.04V31.74ZM169.28 30.1H171.08V33.8H169.28V30.1ZM187.8 24C186.6 24 185.68 23.08 185.68 21.92C185.68 20.72 186.6 19.8 187.8 19.8C189 19.8 189.92 20.72 189.92 21.92C189.92 23.08 189 24 187.8 24ZM187.8 33.4C186.6 33.4 185.68 32.48 185.68 31.32C185.68 30.12 186.6 29.2 187.8 29.2C189 29.2 189.92 30.12 189.92 31.32C189.92 32.48 189 33.4 187.8 33.4ZM207.66 19.96H217.34V27.12H214.64V22.66H207.66V19.96ZM207.16 25.78H218.6V28.52H207.16V25.78ZM210.16 17.12H212.96V24.38C212.96 28.78 212.28 33.36 206.72 35.96C206.32 35.3 205.36 34.22 204.74 33.74C209.6 31.6 210.16 27.92 210.16 24.36V17.12ZM199.72 26.88C201.54 26.46 204.22 25.68 206.72 24.94L207.16 27.58C204.9 28.3 202.42 29.06 200.44 29.66L199.72 26.88ZM200.06 20.52H206.82V23.2H200.06V20.52ZM202.18 16.9H205.04V32.92C205.04 34.18 204.86 34.88 204.14 35.32C203.44 35.76 202.52 35.86 201.24 35.86C201.16 35.12 200.82 33.96 200.48 33.2C201.02 33.24 201.66 33.24 201.88 33.22C202.1 33.22 202.18 33.14 202.18 32.9V16.9ZM212.38 29.98L214.82 28.56C216.08 30.3 218.06 32.72 218.98 34.22L216.32 35.92C215.52 34.38 213.66 31.84 212.38 29.98ZM236.7 19.4V20.26H237.5V19.4H236.7ZM233.76 19.4V20.26H234.54V19.4H233.76ZM230.84 19.4V20.26H231.6V19.4H230.84ZM228.62 17.52H239.84V22.12H228.62V17.52ZM228.88 22.68H239.6V24.7H228.88V22.68ZM228.12 25.34H240.1V27.48H228.12V25.34ZM228.54 28.74H239.62V30.86H228.54V28.74ZM227.7 31.48H240.4V33.56H227.7V31.48ZM232.68 21.62H235.42V26.3H232.68V21.62ZM232.68 29.78H235.42V35.9H232.68V29.78ZM230.2 27.8L232.56 27.32C232.74 27.82 232.98 28.48 233.06 28.9L230.6 29.46C230.54 29.02 230.36 28.32 230.2 27.8ZM235.96 27.24L238.6 27.84C238.14 28.62 237.74 29.3 237.44 29.8L235.3 29.22C235.54 28.62 235.82 27.82 235.96 27.24ZM221.34 26.78C222.96 26.46 225.36 25.88 227.62 25.3L227.98 27.9C225.94 28.5 223.74 29.08 221.94 29.56L221.34 26.78ZM221.68 20.56H227.82V23.22H221.68V20.56ZM223.56 16.92H226.22V32.92C226.22 34.18 226.02 34.92 225.34 35.36C224.66 35.82 223.74 35.92 222.42 35.92C222.36 35.2 222.04 34 221.7 33.22C222.34 33.26 223 33.26 223.24 33.24C223.48 33.24 223.56 33.18 223.56 32.92V16.92Z" fill="black"/>
<path d="M21 60.492H27.804V62.436H21V60.492ZM17.004 61.176C18.354 64.704 21.396 65.334 24.942 65.334C25.752 65.352 28.47 65.334 29.496 65.298C29.208 65.784 28.866 66.774 28.74 67.386H24.816C20.388 67.386 17.094 66.45 15.294 61.842L17.004 61.176ZM14.574 52.554H27.606V54.534H14.574V52.554ZM12.972 56.298H29.01V58.296H12.972V56.298ZM19.812 50.718H22.044V57.414H19.812V50.718ZM19.812 57.612H22.044V66.144L19.812 65.334V57.612ZM15.492 59.052L17.724 59.322C17.238 62.346 16.212 65.784 13.998 67.62C13.62 67.224 12.846 66.558 12.378 66.234C14.394 64.65 15.222 61.59 15.492 59.052ZM32.394 57.918H48.558V59.79H32.394V57.918ZM33.888 55.146H44.346V56.91H33.888V55.146ZM37.326 63.246H45.336V64.596H37.326V63.246ZM37.326 65.496H45.336V67.134H37.326V65.496ZM38.226 54.156H40.368V59.07H38.226V54.156ZM46.722 54.696L48.324 55.686C44.652 59.412 38.658 61.752 32.826 63.084C32.628 62.634 32.16 61.77 31.854 61.356C37.686 60.276 43.5 58.044 46.722 54.696ZM35.814 60.744H47.028V67.584H44.814V62.364H37.92V67.584H35.814V60.744ZM32.376 51.69H40.098V53.544H32.376V51.69ZM35.652 50.7H37.794V54.624H35.652V50.7ZM43.212 50.7H45.354V54.624H43.212V50.7ZM40.746 51.69H48.486V53.544H40.746V51.69ZM59.88 60.492H66.684V62.436H59.88V60.492ZM55.884 61.176C57.234 64.704 60.276 65.334 63.822 65.334C64.632 65.352 67.35 65.334 68.376 65.298C68.088 65.784 67.746 66.774 67.62 67.386H63.696C59.268 67.386 55.974 66.45 54.174 61.842L55.884 61.176ZM53.454 52.554H66.486V54.534H53.454V52.554ZM51.852 56.298H67.89V58.296H51.852V56.298ZM58.692 50.718H60.924V57.414H58.692V50.718ZM58.692 57.612H60.924V66.144L58.692 65.334V57.612ZM54.372 59.052L56.604 59.322C56.118 62.346 55.092 65.784 52.878 67.62C52.5 67.224 51.726 66.558 51.258 66.234C53.274 64.65 54.102 61.59 54.372 59.052ZM71.274 57.918H87.438V59.79H71.274V57.918ZM72.768 55.146H83.226V56.91H72.768V55.146ZM76.206 63.246H84.216V64.596H76.206V63.246ZM76.206 65.496H84.216V67.134H76.206V65.496ZM77.106 54.156H79.248V59.07H77.106V54.156ZM85.602 54.696L87.204 55.686C83.532 59.412 77.538 61.752 71.706 63.084C71.508 62.634 71.04 61.77 70.734 61.356C76.566 60.276 82.38 58.044 85.602 54.696ZM74.694 60.744H85.908V67.584H83.694V62.364H76.8V67.584H74.694V60.744ZM71.256 51.69H78.978V53.544H71.256V51.69ZM74.532 50.7H76.674V54.624H74.532V50.7ZM82.092 50.7H84.234V54.624H82.092V50.7ZM79.626 51.69H87.366V53.544H79.626V51.69ZM97.23 63.12L96.654 61.662C98.166 61.194 98.994 60.312 98.994 59.268L98.868 57.504L99.858 59.124C99.57 59.394 99.192 59.52 98.796 59.52C97.896 59.52 97.068 58.926 97.068 57.9C97.068 56.892 97.878 56.28 98.85 56.28C100.11 56.28 100.794 57.252 100.794 58.764C100.794 60.798 99.462 62.454 97.23 63.12ZM117.318 50.772L119.442 51.258C118.686 54.102 117.408 56.928 115.968 58.71C115.59 58.332 114.726 57.63 114.24 57.306C115.608 55.758 116.706 53.274 117.318 50.772ZM116.814 58.782L118.902 59.214C118.398 61.5 117.462 63.804 116.454 65.262C116.04 64.92 115.122 64.362 114.618 64.092C115.626 62.832 116.4 60.78 116.814 58.782ZM117.714 53.94H125.094V55.938H116.904L117.714 53.94ZM119.784 54.822H121.926V65.208C121.926 66.252 121.746 66.846 121.098 67.206C120.468 67.548 119.586 67.638 118.434 67.638C118.326 67.008 118.002 66.054 117.696 65.46C118.452 65.496 119.208 65.478 119.46 65.478C119.694 65.478 119.784 65.424 119.784 65.19V54.822ZM122.556 59.25L124.5 58.602C125.436 60.456 126.21 62.85 126.462 64.488L124.392 65.208C124.194 63.588 123.438 61.104 122.556 59.25ZM124.518 53.94H124.806L125.148 53.886L126.66 54.156C126.444 55.632 126.12 57.306 125.886 58.386L124.032 58.062C124.194 57.09 124.392 55.488 124.518 54.228V53.94ZM113.466 50.79L115.5 51.42C114.33 54.498 112.458 57.738 110.496 59.79C110.298 59.268 109.722 58.08 109.344 57.558C110.982 55.92 112.548 53.364 113.466 50.79ZM111.72 55.758L113.772 53.706L113.79 53.724V67.602H111.72V55.758ZM135.534 54.336H138.72V55.866H135.534V54.336ZM140.952 54.336H144.156V55.866H140.952V54.336ZM143.508 51.672H145.56V65.118C145.56 66.288 145.326 66.864 144.588 67.188C143.85 67.548 142.716 67.584 141.024 67.584C140.934 67.008 140.61 66.054 140.322 65.514C141.42 65.568 142.68 65.568 143.04 65.55C143.382 65.55 143.508 65.442 143.508 65.1V51.672ZM134.274 51.672H136.272V67.566H134.274V51.672ZM135.66 51.672H139.386V58.584H135.66V56.946H137.766V53.31H135.66V51.672ZM144.516 51.672V53.31H141.888V56.946H144.516V58.584H140.196V51.672H144.516ZM132.402 50.754L134.4 51.33C133.374 54.48 131.718 57.9 129.882 60.06C129.702 59.52 129.18 58.296 128.838 57.72C130.296 56.028 131.628 53.382 132.402 50.754ZM130.98 55.686L132.978 53.706L133.032 53.742V67.602H130.98V55.686ZM149.304 52.968H164.964V55.074H149.304V52.968ZM155.874 50.718H158.142V67.62H155.874V50.718ZM156.126 58.854L157.926 59.538C156.162 62.724 153.264 65.478 150.06 66.954C149.718 66.414 149.016 65.532 148.53 65.1C151.644 63.894 154.614 61.446 156.126 58.854ZM158.052 58.998C159.564 61.482 162.516 63.822 165.612 64.956C165.072 65.424 164.37 66.324 164.01 66.936C160.878 65.496 158.034 62.778 156.27 59.7L158.052 58.998ZM151.482 58.206L152.85 56.838C153.66 57.522 154.83 58.512 155.406 59.124L153.984 60.636C153.444 59.988 152.31 58.944 151.482 58.206ZM152.202 55.182L154.308 55.578C153.642 58.206 152.364 60.456 150.69 61.86C150.33 61.464 149.502 60.762 149.016 60.438C150.6 59.286 151.698 57.378 152.202 55.182ZM160.086 58.278L161.49 56.982C162.606 57.828 164.316 59.106 165.144 59.88L163.65 61.374C162.894 60.564 161.238 59.232 160.086 58.278ZM160.698 55.182L162.786 55.56C162.3 57.72 161.31 59.628 160.104 60.834C159.69 60.492 158.772 59.934 158.268 59.7C159.474 58.674 160.32 57 160.698 55.182ZM169.032 60.042H177.618V61.914H169.032V60.042ZM172.344 58.44H174.378V65.712H172.344V58.44ZM168.438 64.956C170.796 64.632 174.45 64.02 177.834 63.426L177.942 65.28C174.774 65.892 171.354 66.504 168.906 66.954L168.438 64.956ZM168.618 51.78H178.014V53.634H168.618V51.78ZM173.892 54.534L175.44 53.598C176.394 54.804 177.528 56.424 177.978 57.486L176.34 58.548C175.908 57.468 174.828 55.776 173.892 54.534ZM178.716 52.392H180.714V63.318H178.716V52.392ZM182.172 50.916H184.278V64.92C184.278 66.036 184.044 66.612 183.378 66.936C182.676 67.278 181.65 67.35 180.246 67.35C180.156 66.774 179.814 65.838 179.508 65.28C180.462 65.316 181.434 65.316 181.74 65.316C182.064 65.316 182.172 65.208 182.172 64.902V50.916ZM169.626 58.386C169.5 57.954 169.176 56.982 168.942 56.424C169.23 56.352 169.5 56.064 169.788 55.65C170.076 55.254 170.922 53.778 171.39 52.302L173.496 53.094C172.812 54.588 171.732 56.226 170.796 57.306V57.342C170.796 57.342 169.626 57.99 169.626 58.386ZM169.626 58.386L169.59 56.874L170.562 56.262L176.034 55.92C176.268 56.46 176.664 57.162 176.898 57.594C171.03 58.08 170.202 58.134 169.626 58.386ZM194.898 57.072H197.184V65.154C197.184 66.378 196.896 66.972 195.996 67.296C195.096 67.62 193.8 67.656 192.072 67.638C191.946 67.008 191.55 66.054 191.208 65.46C192.486 65.514 193.962 65.514 194.376 65.496C194.772 65.496 194.898 65.406 194.898 65.1V57.072ZM188.634 51.978H201.216V54.102H188.634V51.978ZM200.568 51.978H201.18L201.666 51.852L203.376 53.13C201.54 55.11 198.84 57.306 196.338 58.62C196.014 58.152 195.33 57.432 194.898 57.072C197.058 55.92 199.542 53.868 200.568 52.5V51.978ZM207.084 57.81H223.752V60.168H207.084V57.81ZM236.064 50.7L237.972 51.222C237.144 53.22 235.722 55.092 234.174 56.262C233.904 55.866 233.238 55.038 232.842 54.66C234.21 53.742 235.416 52.284 236.064 50.7ZM236.316 52.32H243.03V53.958H235.308L236.316 52.32ZM236.28 53.382C237.306 55.29 239.736 57.18 243.444 57.81C243.048 58.224 242.508 59.034 242.238 59.556C238.476 58.674 235.974 56.388 234.84 54.174L236.28 53.382ZM231.168 53.31H233.004V64.56H231.168V53.31ZM229.602 50.718L231.6 51.312C230.592 54.462 228.972 57.864 227.172 60.024C227.01 59.502 226.47 58.26 226.128 57.702C227.55 55.992 228.846 53.364 229.602 50.718ZM228.18 55.776L230.178 53.778L230.232 53.814V67.602H228.18V55.776ZM233.724 60.492H242.76V62.364H233.724V60.492ZM234.714 62.85L236.568 63.39C235.938 64.614 234.948 65.928 234.03 66.738C233.67 66.432 232.86 65.91 232.41 65.676C233.346 64.956 234.192 63.894 234.714 62.85ZM239.664 63.534L241.248 62.778C242.094 63.66 242.976 64.866 243.39 65.712L241.716 66.612C241.356 65.748 240.474 64.452 239.664 63.534ZM237.072 58.962H239.088V67.566H237.072V58.962ZM240.42 52.914L242.436 53.418C240.888 56.64 237.864 58.512 234.228 59.592C234.03 59.142 233.418 58.26 233.04 57.846C236.46 57.072 239.232 55.506 240.42 52.914ZM248.772 57.324H258.51V59.43H248.772V57.324ZM257.808 57.324H260.076C260.076 57.324 260.058 57.99 260.04 58.26C259.842 63.732 259.626 65.874 258.996 66.612C258.546 67.224 258.042 67.386 257.358 67.494C256.728 67.584 255.684 67.566 254.622 67.53C254.586 66.9 254.298 65.964 253.902 65.352C254.91 65.442 255.846 65.46 256.296 65.46C256.62 65.46 256.818 65.406 257.016 65.208C257.448 64.74 257.646 62.724 257.808 57.72V57.324ZM251.994 57.936H254.334C253.992 61.986 253.218 65.748 247.854 67.746C247.584 67.152 246.954 66.234 246.45 65.766C251.274 64.182 251.706 61.14 251.994 57.936ZM250.086 51.33L252.354 51.888C251.328 55.02 249.492 57.81 247.422 59.538C247.026 59.106 246.108 58.296 245.604 57.918C247.638 56.478 249.258 54.048 250.086 51.33ZM253.29 51.006H257.412V53.004H253.29V51.006ZM255.342 51.006H257.736C258.582 53.634 260.418 56.19 262.956 57.486C262.488 57.954 261.768 58.89 261.408 59.484C258.726 57.792 256.782 54.912 255.81 52.122H255.342V51.006ZM271.632 56.154L273.144 54.858C274.044 55.578 275.178 56.604 275.7 57.324L274.08 58.764C273.612 58.026 272.532 56.928 271.632 56.154ZM269.49 53.904C271.308 59.826 275.268 63.858 282.288 65.28C281.802 65.748 281.172 66.72 280.866 67.296C273.486 65.586 269.67 61.248 267.438 54.498L269.49 53.904ZM266.322 52.212H278.958V54.354H266.322V52.212ZM278.436 52.23H278.85L279.21 52.122L280.722 52.824C278.688 61.23 273.306 65.658 266.502 67.584C266.286 67.026 265.62 66 265.17 65.55C271.776 63.876 276.744 60.114 278.436 52.662V52.23ZM293.952 65.118H299.622V66.972H293.952V65.118ZM294.726 52.428H299.298V54.264H294.726V52.428ZM293.07 60.906H300.504V67.512H298.452V62.724H295.05V67.566H293.07V60.906ZM298.542 52.428H298.92L299.298 52.356L300.666 52.932C299.352 57.45 296.31 60.33 292.656 61.878C292.404 61.374 291.864 60.636 291.432 60.24C294.69 59.052 297.534 56.298 298.542 52.77V52.428ZM294.798 50.7L296.85 51.204C296.04 53.634 294.708 55.974 293.25 57.45C292.89 57.072 292.062 56.37 291.576 56.064C292.98 54.804 294.168 52.788 294.798 50.7ZM294.852 53.436C295.878 55.866 298.218 58.656 301.89 59.808C301.458 60.222 300.846 61.068 300.558 61.626C296.85 60.186 294.492 57.036 293.394 54.372L294.852 53.436ZM285.42 58.656H287.184V65.208H285.42V58.656ZM287.436 53.238V55.524H289.812V53.238H287.436ZM285.564 51.384H291.792V57.378H285.564V51.384ZM288.084 56.622H289.992V64.668H288.084V56.622ZM284.628 64.866C286.536 64.524 289.416 63.894 292.116 63.282L292.314 65.19C289.776 65.82 287.04 66.468 284.988 66.936L284.628 64.866ZM288.84 59.484H291.972V61.374H288.84V59.484ZM311.07 63.12L310.494 61.662C312.006 61.194 312.834 60.312 312.834 59.268L312.708 57.504L313.698 59.124C313.41 59.394 313.032 59.52 312.636 59.52C311.736 59.52 310.908 58.926 310.908 57.9C310.908 56.892 311.718 56.28 312.69 56.28C313.95 56.28 314.634 57.252 314.634 58.764C314.634 60.798 313.302 62.454 311.07 63.12ZM324.192 51.924H339.888V54.138H324.192V51.924ZM332.886 57.954L334.56 56.55C336.486 57.954 339.258 60.024 340.572 61.464L338.736 63.12C337.548 61.698 334.884 59.484 332.886 57.954ZM332.166 52.734L334.578 53.58C332.526 57.378 329.25 61.05 325.11 63.21C324.768 62.634 324.084 61.734 323.634 61.248C327.486 59.43 330.672 55.938 332.166 52.734ZM330.852 57.09L333.228 54.732V67.584H330.852V57.09ZM16.482 80.894H25.482V82.712H16.482V80.894ZM17.328 84.08H19.308V91.334H17.328V84.08ZM18.408 84.08H24.69V90.146H18.408V88.346H22.692V85.844H18.408V84.08ZM13.35 77.564H27.75V79.616H15.438V93.638H13.35V77.564ZM26.544 77.564H28.668V91.154C28.668 92.27 28.452 92.882 27.75 93.224C27.066 93.584 26.076 93.638 24.546 93.638C24.474 93.044 24.15 92.054 23.826 91.514C24.78 91.55 25.824 91.55 26.13 91.55C26.436 91.532 26.544 91.424 26.544 91.118V77.564ZM34.014 79.634H39.54V91.766H34.014V89.858H37.578V81.524H34.014V79.634ZM32.754 79.634H34.716V93.098H32.754V79.634ZM33.924 84.44H38.532V86.312H33.924V84.44ZM35.31 76.7L37.668 77.042C37.254 78.266 36.804 79.544 36.444 80.39L34.716 80.012C34.968 79.076 35.22 77.69 35.31 76.7ZM41.916 79.508H47.172V81.47H41.916V79.508ZM46.434 79.508H48.432C48.432 79.508 48.432 80.21 48.414 80.48C48.18 88.58 47.964 91.442 47.226 92.396C46.722 93.098 46.218 93.296 45.48 93.404C44.796 93.512 43.698 93.494 42.654 93.44C42.618 92.846 42.33 91.928 41.934 91.352C43.104 91.442 44.184 91.46 44.634 91.46C44.994 91.46 45.192 91.388 45.426 91.136C46.002 90.524 46.236 87.428 46.434 79.922V79.508ZM41.97 76.718L44.04 77.204C43.338 79.868 42.168 82.604 40.944 84.332C40.548 83.972 39.666 83.36 39.162 83.072C40.368 81.56 41.394 79.112 41.97 76.718ZM41.088 84.692L42.78 83.738C43.662 84.98 44.85 86.708 45.408 87.77L43.572 88.886C43.086 87.788 41.952 86.024 41.088 84.692ZM60.672 91.118H66.342V92.972H60.672V91.118ZM61.446 78.428H66.018V80.264H61.446V78.428ZM59.79 86.906H67.224V93.512H65.172V88.724H61.77V93.566H59.79V86.906ZM65.262 78.428H65.64L66.018 78.356L67.386 78.932C66.072 83.45 63.03 86.33 59.376 87.878C59.124 87.374 58.584 86.636 58.152 86.24C61.41 85.052 64.254 82.298 65.262 78.77V78.428ZM61.518 76.7L63.57 77.204C62.76 79.634 61.428 81.974 59.97 83.45C59.61 83.072 58.782 82.37 58.296 82.064C59.7 80.804 60.888 78.788 61.518 76.7ZM61.572 79.436C62.598 81.866 64.938 84.656 68.61 85.808C68.178 86.222 67.566 87.068 67.278 87.626C63.57 86.186 61.212 83.036 60.114 80.372L61.572 79.436ZM52.14 84.656H53.904V91.208H52.14V84.656ZM54.156 79.238V81.524H56.532V79.238H54.156ZM52.284 77.384H58.512V83.378H52.284V77.384ZM54.804 82.622H56.712V90.668H54.804V82.622ZM51.348 90.866C53.256 90.524 56.136 89.894 58.836 89.282L59.034 91.19C56.496 91.82 53.76 92.468 51.708 92.936L51.348 90.866ZM55.56 85.484H58.692V87.374H55.56V85.484ZM77.376 85.934H87.636V87.824H77.376V85.934ZM81.3 78.158H85.962L85.512 79.598H80.418L81.3 78.158ZM83.568 83.756H85.62V91.1C85.62 92.126 85.458 92.72 84.756 93.044C84.09 93.368 83.118 93.404 81.786 93.404C81.714 92.81 81.444 91.928 81.174 91.334C82.02 91.37 82.938 91.37 83.226 91.352C83.496 91.352 83.568 91.298 83.568 91.064V83.756ZM81.678 76.7L83.784 77.258C82.38 79.04 80.22 80.696 78.114 81.686C77.808 81.29 77.16 80.678 76.764 80.336C78.798 79.562 80.67 78.086 81.678 76.7ZM78.33 88.706L79.986 87.77C80.796 88.616 81.75 89.786 82.146 90.596L80.382 91.658C80.022 90.848 79.122 89.606 78.33 88.706ZM79.86 80.048L81.156 79.112C82.146 79.886 83.262 81.02 83.748 81.866L82.362 82.892C81.912 82.064 80.832 80.876 79.86 80.048ZM72.444 81.794H75.774V83.648H72.444V81.794ZM70.86 85.646H75.63V87.5H70.86V85.646ZM74.838 76.718H76.836V93.62H74.838V76.718ZM71.58 77.456H73.452V83.648H71.58V77.456ZM71.76 86.42H73.632V87.518C73.632 89.012 73.452 91.82 72.246 93.656C71.904 93.332 71.13 92.828 70.662 92.63C71.634 91.064 71.76 88.742 71.76 87.446V86.42ZM85.206 78.158H85.584L85.944 78.068L87.258 78.698C85.728 82.766 82.254 85.034 78.294 86.204C78.078 85.736 77.592 85.034 77.232 84.638C80.76 83.792 84.018 81.65 85.206 78.482V78.158ZM77.214 82.1C78.168 81.974 79.41 81.758 80.76 81.524L80.904 82.928C79.752 83.162 78.6 83.396 77.556 83.594L77.214 82.1ZM94.278 83.252V85.52H103.116V83.252H94.278ZM92.478 81.92H105.042V86.834H92.478V81.92ZM95.574 79.886H101.928V81.29H95.574V79.886ZM97.788 82.37H99.534V86.168H97.788V82.37ZM94.908 83.648L96.402 83.234C96.726 83.846 97.014 84.638 97.122 85.178L95.538 85.646C95.466 85.106 95.214 84.26 94.908 83.648ZM100.866 83.162L102.648 83.594C102.27 84.368 101.892 85.124 101.604 85.628L100.128 85.232C100.398 84.638 100.722 83.756 100.866 83.162ZM93.468 87.428H104.124V93.548H101.91V88.832H95.592V93.62H93.468V87.428ZM94.692 89.552H102.828V90.974H94.692V89.552ZM94.692 91.712H102.828V93.116H94.692V91.712ZM98.382 76.556L100.29 77.258C98.292 79.796 94.854 81.578 91.344 82.64C91.128 82.208 90.57 81.344 90.21 80.966C93.54 80.156 96.744 78.644 98.382 76.556ZM99.804 77.384C101.406 78.932 104.52 80.228 107.526 80.84C107.076 81.218 106.464 81.992 106.158 82.478C103.134 81.704 100.056 80.048 98.202 78.032L99.804 77.384ZM117.318 80.21L118.686 79.058C120.324 79.634 122.61 80.606 123.834 81.308L122.358 82.604C121.26 81.902 118.992 80.858 117.318 80.21ZM115.644 81.236H124.68V82.802H117.552V90.542H115.644V81.236ZM123.924 81.236H125.85V88.742C125.85 89.588 125.688 90.02 125.13 90.308C124.608 90.56 123.834 90.578 122.772 90.578C122.7 90.092 122.466 89.408 122.25 88.976C122.844 88.994 123.456 88.994 123.654 88.994C123.87 88.994 123.924 88.922 123.924 88.742V81.236ZM115.842 77.312H124.428V78.914H115.842V77.312ZM116.814 83.774H124.536V85.268H116.814V83.774ZM116.814 86.294H124.536V87.86H116.814V86.294ZM119.748 81.974H121.584V90.488H119.748V81.974ZM123.654 77.312H124.14L124.572 77.204L125.85 78.248C124.572 79.436 122.79 80.714 121.134 81.506C120.882 81.146 120.36 80.588 120.054 80.3C121.404 79.652 122.97 78.518 123.654 77.69V77.312ZM110.406 77.708L112.008 76.718C112.872 77.564 113.88 78.698 114.42 79.418L112.782 80.624C112.278 79.85 111.234 78.59 110.406 77.708ZM109.956 80.912H113.772V82.64H109.956V80.912ZM113.61 88.742C114.582 91.172 116.688 91.46 119.946 91.478C121.872 91.478 124.842 91.352 126.876 91.172C126.588 91.604 126.3 92.576 126.192 93.17C124.32 93.278 122.016 93.332 119.91 93.332C115.734 93.332 113.502 92.774 112.17 89.318L113.61 88.742ZM113.178 85.286H113.682L114.024 85.25L115.068 85.628C114.456 89.606 112.98 92.27 110.874 93.638C110.604 93.224 109.902 92.486 109.506 92.198C111.45 91.028 112.728 88.778 113.178 85.61V85.286ZM110.298 87.248V85.7L111.072 85.286H113.79L113.772 86.96H111.396C110.964 86.96 110.442 87.086 110.298 87.248ZM110.298 87.248C110.172 86.798 109.794 85.88 109.596 85.484C109.902 85.412 110.19 85.286 110.532 84.908C111.072 84.404 112.692 82.1 113.304 81.11V81.056L113.862 80.822L115.176 81.416C114.33 82.658 112.764 84.89 111.738 86.06C111.738 86.06 110.298 86.762 110.298 87.248ZM133.212 80.714L135.102 81.488C133.86 83.702 131.862 86.096 130.062 87.59C129.9 87.104 129.36 85.88 129.036 85.358C130.548 84.224 132.204 82.46 133.212 80.714ZM132.726 76.736L134.778 77.546C133.662 79.22 131.952 80.984 130.35 82.1C130.116 81.614 129.594 80.714 129.27 80.282C130.584 79.418 132.042 77.942 132.726 76.736ZM131.43 84.782L133.536 82.658L133.644 82.73V93.62H131.43V84.782ZM135.714 85.304H144.966V87.374H135.714V85.304ZM134.544 91.046H145.992V93.098H134.544V91.046ZM135.102 80.066H145.524V82.118H135.102V80.066ZM139.314 81.254H141.564V91.91H139.314V81.254ZM138.468 77.312L140.448 76.628C140.988 77.51 141.618 78.662 141.852 79.454L139.746 80.21C139.548 79.454 138.99 78.23 138.468 77.312ZM149.232 77.924H164.928V80.138H149.232V77.924ZM157.926 83.954L159.6 82.55C161.526 83.954 164.298 86.024 165.612 87.464L163.776 89.12C162.588 87.698 159.924 85.484 157.926 83.954ZM157.206 78.734L159.618 79.58C157.566 83.378 154.29 87.05 150.15 89.21C149.808 88.634 149.124 87.734 148.674 87.248C152.526 85.43 155.712 81.938 157.206 78.734ZM155.892 83.09L158.268 80.732V93.584H155.892V83.09ZM172.002 80.894H181.002V82.712H172.002V80.894ZM172.848 84.08H174.828V91.334H172.848V84.08ZM173.928 84.08H180.21V90.146H173.928V88.346H178.212V85.844H173.928V84.08ZM168.87 77.564H183.27V79.616H170.958V93.638H168.87V77.564ZM182.064 77.564H184.188V91.154C184.188 92.27 183.972 92.882 183.27 93.224C182.586 93.584 181.596 93.638 180.066 93.638C179.994 93.044 179.67 92.054 179.346 91.514C180.3 91.55 181.344 91.55 181.65 91.55C181.956 91.532 182.064 91.424 182.064 91.118V77.564ZM189.534 79.634H195.06V91.766H189.534V89.858H193.098V81.524H189.534V79.634ZM188.274 79.634H190.236V93.098H188.274V79.634ZM189.444 84.44H194.052V86.312H189.444V84.44ZM190.83 76.7L193.188 77.042C192.774 78.266 192.324 79.544 191.964 80.39L190.236 80.012C190.488 79.076 190.74 77.69 190.83 76.7ZM197.436 79.508H202.692V81.47H197.436V79.508ZM201.954 79.508H203.952C203.952 79.508 203.952 80.21 203.934 80.48C203.7 88.58 203.484 91.442 202.746 92.396C202.242 93.098 201.738 93.296 201 93.404C200.316 93.512 199.218 93.494 198.174 93.44C198.138 92.846 197.85 91.928 197.454 91.352C198.624 91.442 199.704 91.46 200.154 91.46C200.514 91.46 200.712 91.388 200.946 91.136C201.522 90.524 201.756 87.428 201.954 79.922V79.508ZM197.49 76.718L199.56 77.204C198.858 79.868 197.688 82.604 196.464 84.332C196.068 83.972 195.186 83.36 194.682 83.072C195.888 81.56 196.914 79.112 197.49 76.718ZM196.608 84.692L198.3 83.738C199.182 84.98 200.37 86.708 200.928 87.77L199.092 88.886C198.606 87.788 197.472 86.024 196.608 84.692ZM210.486 81.866H220.26V83.9H210.486V81.866ZM210.486 86.042H220.26V88.076H210.486V86.042ZM210.486 90.2H220.26V92.306H210.486V90.2ZM208.92 77.69H221.754V93.422H219.468V79.814H211.098V93.422H208.92V77.69ZM228.414 79.634H233.94V91.766H228.414V89.858H231.978V81.524H228.414V79.634ZM227.154 79.634H229.116V93.098H227.154V79.634ZM228.324 84.44H232.932V86.312H228.324V84.44ZM229.71 76.7L232.068 77.042C231.654 78.266 231.204 79.544 230.844 80.39L229.116 80.012C229.368 79.076 229.62 77.69 229.71 76.7ZM236.316 79.508H241.572V81.47H236.316V79.508ZM240.834 79.508H242.832C242.832 79.508 242.832 80.21 242.814 80.48C242.58 88.58 242.364 91.442 241.626 92.396C241.122 93.098 240.618 93.296 239.88 93.404C239.196 93.512 238.098 93.494 237.054 93.44C237.018 92.846 236.73 91.928 236.334 91.352C237.504 91.442 238.584 91.46 239.034 91.46C239.394 91.46 239.592 91.388 239.826 91.136C240.402 90.524 240.636 87.428 240.834 79.922V79.508ZM236.37 76.718L238.44 77.204C237.738 79.868 236.568 82.604 235.344 84.332C234.948 83.972 234.066 83.36 233.562 83.072C234.768 81.56 235.794 79.112 236.37 76.718ZM235.488 84.692L237.18 83.738C238.062 84.98 239.25 86.708 239.808 87.77L237.972 88.886C237.486 87.788 236.352 86.024 235.488 84.692ZM246.072 80.894H251.706V82.928H246.072V80.894ZM247.998 76.97H250.014V88.904H247.998V76.97ZM245.676 88.598C247.152 88.076 249.438 87.122 251.598 86.222L252.084 88.13C250.212 89.048 248.178 90.02 246.54 90.776L245.676 88.598ZM256.386 76.718H258.42V89.426H256.386V76.718ZM251.058 83.954L260.382 79.994L261.174 81.83L251.868 85.862L251.058 83.954ZM252.84 78.464H254.892V90.128C254.892 91.19 255.054 91.334 256.17 91.334C256.71 91.334 259.104 91.334 259.662 91.334C260.652 91.334 260.832 90.938 260.976 89.084C261.444 89.408 262.29 89.75 262.866 89.858C262.596 92.414 261.948 93.26 259.842 93.26C259.248 93.26 256.548 93.26 255.99 93.26C253.524 93.26 252.84 92.612 252.84 90.11V78.464ZM259.86 80.498H259.662L260.382 79.994L262.02 80.498L261.93 80.822C261.822 83.342 261.588 86.636 261.156 88.814L259.392 88.31C259.662 86.384 259.824 83.018 259.86 80.498ZM272.19 89.12L271.614 87.662C273.126 87.194 273.954 86.312 273.954 85.268L273.828 83.504L274.818 85.124C274.53 85.394 274.152 85.52 273.756 85.52C272.856 85.52 272.028 84.926 272.028 83.9C272.028 82.892 272.838 82.28 273.81 82.28C275.07 82.28 275.754 83.252 275.754 84.764C275.754 86.798 274.422 88.454 272.19 89.12ZM290.118 78.482H301.602V80.444H290.118V78.482ZM292.476 83.468V85.25H299.046V83.468H292.476ZM290.514 81.704H301.116V87.014H290.514V81.704ZM292.206 87.194C293.808 89.786 297.21 91.244 301.872 91.676C301.422 92.144 300.882 93.008 300.612 93.602C295.734 92.936 292.404 91.118 290.442 87.734L292.206 87.194ZM294.672 76.826H296.796V85.052C296.796 88.724 295.878 92.072 290.712 93.62C290.46 93.134 289.83 92.27 289.362 91.82C294.204 90.74 294.672 87.986 294.672 85.034V76.826ZM288.75 76.664L290.766 77.312C289.542 80.372 287.562 83.594 285.51 85.628C285.33 85.124 284.754 83.936 284.394 83.414C286.104 81.794 287.778 79.238 288.75 76.664ZM287.004 81.686L289.038 79.634L289.056 79.652V93.656H287.004V81.686ZM304.482 82.172H320.682V84.08H304.482V82.172ZM306.048 78.662H316.344V80.534H306.048V78.662ZM309.216 88.454H317.262V90.074H309.216V88.454ZM309.216 91.28H317.262V93.098H309.216V91.28ZM310.296 76.718H312.42V83.234H310.296V76.718ZM318.216 77.24L320.07 78.194C316.542 83.108 311.052 86.726 305.22 88.868C304.968 88.4 304.32 87.5 303.924 87.068C309.774 85.196 315.066 81.758 318.216 77.24ZM308.01 85.52H318.63V93.566H316.38V87.284H310.17V93.638H308.01V85.52ZM330.096 85.934H340.356V87.824H330.096V85.934ZM334.02 78.158H338.682L338.232 79.598H333.138L334.02 78.158ZM336.288 83.756H338.34V91.1C338.34 92.126 338.178 92.72 337.476 93.044C336.81 93.368 335.838 93.404 334.506 93.404C334.434 92.81 334.164 91.928 333.894 91.334C334.74 91.37 335.658 91.37 335.946 91.352C336.216 91.352 336.288 91.298 336.288 91.064V83.756ZM334.398 76.7L336.504 77.258C335.1 79.04 332.94 80.696 330.834 81.686C330.528 81.29 329.88 80.678 329.484 80.336C331.518 79.562 333.39 78.086 334.398 76.7ZM331.05 88.706L332.706 87.77C333.516 88.616 334.47 89.786 334.866 90.596L333.102 91.658C332.742 90.848 331.842 89.606 331.05 88.706ZM332.58 80.048L333.876 79.112C334.866 79.886 335.982 81.02 336.468 81.866L335.082 82.892C334.632 82.064 333.552 80.876 332.58 80.048ZM325.164 81.794H328.494V83.648H325.164V81.794ZM323.58 85.646H328.35V87.5H323.58V85.646ZM327.558 76.718H329.556V93.62H327.558V76.718ZM324.3 77.456H326.172V83.648H324.3V77.456ZM324.48 86.42H326.352V87.518C326.352 89.012 326.172 91.82 324.966 93.656C324.624 93.332 323.85 92.828 323.382 92.63C324.354 91.064 324.48 88.742 324.48 87.446V86.42ZM337.926 78.158H338.304L338.664 78.068L339.978 78.698C338.448 82.766 334.974 85.034 331.014 86.204C330.798 85.736 330.312 85.034 329.952 84.638C333.48 83.792 336.738 81.65 337.926 78.482V78.158ZM329.934 82.1C330.888 81.974 332.13 81.758 333.48 81.524L333.624 82.928C332.472 83.162 331.32 83.396 330.276 83.594L329.934 82.1ZM18.156 110.206H28.506V111.772H18.156V110.206ZM17.49 112.906H29.154V114.472H17.49V112.906ZM20.334 109.27H22.314V113.788H20.334V109.27ZM24.294 109.27H26.292V113.788H24.294V109.27ZM24.006 115.21L25.41 114.274C26.598 114.85 28.002 115.624 28.794 116.2L26.868 117.082C26.238 116.524 25.068 115.75 24.006 115.21ZM20.964 114.328L22.854 114.994C21.954 115.84 20.514 116.65 19.308 117.154C18.93 116.794 18.174 116.164 17.706 115.876C18.93 115.498 20.208 114.922 20.964 114.328ZM18.75 103.312H22.962V106.768H18.75V105.436H21.162V104.644H18.75V103.312ZM24.456 103.33H28.794V106.786H24.456V105.454H26.958V104.662H24.456V103.33ZM23.646 103.33H25.356V106.876C25.356 107.362 25.41 107.542 25.788 107.542C26.112 107.542 27.336 107.542 27.66 107.542C28.02 107.542 28.596 107.524 28.92 107.434C28.956 107.884 28.992 108.496 29.064 108.892C28.758 108.982 28.218 109.018 27.714 109.018C27.354 109.018 26.004 109.018 25.68 109.018C24.042 109.018 23.646 108.406 23.646 106.84V103.33ZM18.048 109.54L17.976 108.262L18.732 107.758L22.998 107.164C22.854 107.596 22.728 108.298 22.692 108.658C19.02 109.252 18.408 109.36 18.048 109.54ZM18.048 109.54C17.958 109.108 17.616 108.334 17.364 107.956C17.652 107.794 17.94 107.488 17.94 106.786V103.312H19.614V108.136C19.614 108.136 18.048 108.982 18.048 109.54ZM12.936 103.726L14.52 102.736C15.384 103.6 16.41 104.734 16.95 105.454L15.294 106.642C14.808 105.886 13.764 104.626 12.936 103.726ZM12.756 106.948H16.068V108.676H12.756V106.948ZM16.374 114.742C17.346 117.172 19.47 117.46 22.728 117.478C24.672 117.478 27.642 117.352 29.694 117.154C29.388 117.604 29.1 118.576 28.992 119.17C27.12 119.278 24.816 119.332 22.692 119.332C18.498 119.332 16.266 118.774 14.934 115.318L16.374 114.742ZM15.618 111.286H16.14L16.482 111.25L17.508 111.61C16.968 115.534 15.636 118.216 13.746 119.638C13.458 119.206 12.756 118.486 12.342 118.198C14.106 116.992 15.222 114.724 15.618 111.61V111.286ZM13.17 113.248V111.7L13.926 111.286H16.212V112.96H14.232C13.836 112.96 13.314 113.086 13.17 113.248ZM13.17 113.248C13.062 112.798 12.684 111.88 12.486 111.52C12.774 111.43 13.044 111.304 13.35 110.926C13.8 110.44 15.168 108.082 15.672 107.11V107.056L16.194 106.84L17.508 107.344C16.806 108.586 15.474 110.908 14.592 112.06C14.592 112.06 13.17 112.762 13.17 113.248ZM45.408 104.752V105.922H46.542V104.752H45.408ZM42.69 104.752V105.922H43.788V104.752H42.69ZM39.99 104.752V105.922H41.052V104.752H39.99ZM38.316 103.312H48.288V107.344H38.316V103.312ZM38.532 108.046H48.018V109.594H38.532V108.046ZM37.812 110.422H48.522V112.042H37.812V110.422ZM38.19 113.374H48.108V114.976H38.19V113.374ZM37.488 115.804H48.792V117.388H37.488V115.804ZM42.132 106.948H44.166V111.124H42.132V106.948ZM42.132 114.148H44.166V119.62H42.132V114.148ZM39.792 112.312L41.556 111.934C41.754 112.42 42.006 113.05 42.096 113.446L40.26 113.896C40.188 113.464 39.99 112.798 39.792 112.312ZM45.03 111.88L47.01 112.348C46.596 113.05 46.218 113.716 45.912 114.202L44.31 113.752C44.562 113.194 44.868 112.42 45.03 111.88ZM31.854 111.754C33.276 111.43 35.364 110.872 37.38 110.314L37.65 112.258C35.832 112.816 33.888 113.374 32.322 113.824L31.854 111.754ZM32.124 106.138H37.56V108.118H32.124V106.138ZM33.996 102.736H35.976V117.316C35.976 118.306 35.796 118.864 35.238 119.188C34.698 119.53 33.924 119.602 32.754 119.602C32.7 119.062 32.448 118.18 32.196 117.586C32.844 117.622 33.474 117.622 33.69 117.604C33.906 117.604 33.996 117.55 33.996 117.316V102.736ZM57.27 103.924H60.78V105.49H57.27V103.924ZM64.236 103.924H68.322V105.49H64.236V103.924ZM60.132 102.718H61.986V106.174H60.132V102.718ZM63.318 102.718H65.19V106.156H63.318V102.718ZM64.56 107.794V108.784H65.946V107.794H64.56ZM62.994 106.48H67.566V110.098H62.994V106.48ZM59.358 107.794V108.784H60.69V107.794H59.358ZM57.828 106.48H62.31V110.098H57.828V106.48ZM59.412 113.32H67.152V114.706H59.412V113.32ZM59.412 115.408H67.152V116.794H59.412V115.408ZM59.232 117.514H68.196V119.044H59.232V117.514ZM62.184 112.132H64.056V118.648H62.184V112.132ZM60.204 111.268H67.782V112.618H60.204V119.62H58.296V112.114L59.106 111.268H60.204ZM59.304 109.756L61.014 110.35C60.204 112.096 58.926 113.896 57.63 115.012C57.468 114.616 56.946 113.644 56.64 113.23C57.684 112.366 58.71 111.088 59.304 109.756ZM61.896 110.584L63.732 110.098C63.984 110.728 64.272 111.574 64.38 112.132L62.49 112.708C62.382 112.15 62.112 111.232 61.896 110.584ZM51.69 106.084H57.432V108.064H51.69V106.084ZM53.868 102.718H55.74V119.62H53.868V102.718ZM53.724 107.56L54.804 108.064C54.318 110.854 53.328 114.328 52.212 116.218C51.996 115.57 51.546 114.58 51.24 114.004C52.302 112.51 53.292 109.666 53.724 107.56ZM55.686 108.802C56.046 109.216 57.342 111.016 57.63 111.466L56.478 112.924C56.118 112.042 55.218 110.278 54.768 109.54L55.686 108.802ZM81.678 110.386L83.874 110.998C81.804 115.822 77.79 118.306 72.408 119.62C72.174 119.116 71.508 118.144 71.112 117.694C76.35 116.686 80.076 114.544 81.678 110.386ZM75.648 107.254L77.772 108.082C76.512 109.648 74.568 111.286 72.948 112.276C72.552 111.844 71.724 111.052 71.238 110.692C72.858 109.9 74.622 108.568 75.648 107.254ZM77.016 110.476C78.618 114.346 82.11 116.758 87.582 117.586C87.114 118.036 86.52 118.954 86.25 119.53C80.508 118.45 77.106 115.714 75.09 111.052L77.016 110.476ZM71.364 105.004H87.24V107.11H71.364V105.004ZM81.03 108.388L82.74 107.146C84.288 108.226 86.394 109.828 87.384 110.962L85.548 112.384C84.648 111.25 82.632 109.54 81.03 108.388ZM77.52 103.204L79.59 102.502C80.058 103.258 80.652 104.302 80.886 104.968L78.726 105.778C78.51 105.094 77.988 104.014 77.52 103.204ZM98.868 108.55H104.844V110.494H98.868V108.55ZM99.03 116.866H104.97V118.774H99.03V116.866ZM98.004 111.952H106.158V119.638H103.962V113.86H100.11V119.656H98.004V111.952ZM102.648 103.348C103.71 105.31 105.744 107.452 107.598 108.622C107.094 109.018 106.356 109.81 105.996 110.368C104.142 108.928 102.18 106.408 100.992 104.014L102.648 103.348ZM101.28 102.682L103.242 103.276C102.072 106.246 100.128 108.82 97.662 110.566C97.356 110.116 96.636 109.36 96.186 109C98.472 107.542 100.344 105.112 101.28 102.682ZM94.8 110.116L96.384 109.612C96.852 110.836 97.338 112.438 97.536 113.41L95.844 114.004C95.682 112.996 95.25 111.376 94.8 110.116ZM93.18 114.85L94.8 114.544C95.034 115.822 95.25 117.46 95.322 118.576L93.612 118.936C93.594 117.82 93.378 116.128 93.18 114.85ZM90.984 114.598L92.802 114.886C92.676 116.578 92.37 118.378 91.992 119.53C91.578 119.296 90.696 119.026 90.228 118.882C90.66 117.802 90.876 116.128 90.984 114.598ZM90.822 109.864C90.714 109.468 90.39 108.514 90.174 108.01C90.516 107.902 90.84 107.56 91.2 107.02C91.596 106.498 92.784 104.5 93.45 102.574L95.394 103.384C94.512 105.346 93.216 107.398 92.01 108.82V108.874C92.01 108.874 90.822 109.504 90.822 109.864ZM90.822 109.864L90.75 108.388L91.632 107.83L94.782 107.596C94.656 108.118 94.584 108.874 94.566 109.288C91.776 109.558 91.182 109.702 90.822 109.864ZM90.948 114.04C90.84 113.626 90.516 112.636 90.264 112.096C90.732 111.97 91.128 111.574 91.722 110.908C92.316 110.278 94.188 107.758 95.322 105.31L97.14 106.462C95.808 108.838 93.972 111.25 92.19 112.978V113.032C92.19 113.032 90.948 113.662 90.948 114.04ZM90.948 114.04L90.858 112.528L91.758 111.934L96.456 111.376C96.366 111.88 96.312 112.654 96.33 113.05C92.1 113.644 91.398 113.824 90.948 114.04ZM95.16 114.49L96.672 113.986C97.068 115.066 97.482 116.47 97.68 117.388L96.078 117.946C95.916 117.028 95.52 115.57 95.16 114.49ZM117.318 102.772L119.442 103.258C118.686 106.102 117.408 108.928 115.968 110.71C115.59 110.332 114.726 109.63 114.24 109.306C115.608 107.758 116.706 105.274 117.318 102.772ZM116.814 110.782L118.902 111.214C118.398 113.5 117.462 115.804 116.454 117.262C116.04 116.92 115.122 116.362 114.618 116.092C115.626 114.832 116.4 112.78 116.814 110.782ZM117.714 105.94H125.094V107.938H116.904L117.714 105.94ZM119.784 106.822H121.926V117.208C121.926 118.252 121.746 118.846 121.098 119.206C120.468 119.548 119.586 119.638 118.434 119.638C118.326 119.008 118.002 118.054 117.696 117.46C118.452 117.496 119.208 117.478 119.46 117.478C119.694 117.478 119.784 117.424 119.784 117.19V106.822ZM122.556 111.25L124.5 110.602C125.436 112.456 126.21 114.85 126.462 116.488L124.392 117.208C124.194 115.588 123.438 113.104 122.556 111.25ZM124.518 105.94H124.806L125.148 105.886L126.66 106.156C126.444 107.632 126.12 109.306 125.886 110.386L124.032 110.062C124.194 109.09 124.392 107.488 124.518 106.228V105.94ZM113.466 102.79L115.5 103.42C114.33 106.498 112.458 109.738 110.496 111.79C110.298 111.268 109.722 110.08 109.344 109.558C110.982 107.92 112.548 105.364 113.466 102.79ZM111.72 107.758L113.772 105.706L113.79 105.724V119.602H111.72V107.758ZM136.11 115.12L135.534 113.662C137.046 113.194 137.874 112.312 137.874 111.268L137.748 109.504L138.738 111.124C138.45 111.394 138.072 111.52 137.676 111.52C136.776 111.52 135.948 110.926 135.948 109.9C135.948 108.892 136.758 108.28 137.73 108.28C138.99 108.28 139.674 109.252 139.674 110.764C139.674 112.798 138.342 114.454 136.11 115.12ZM156.198 102.772L158.322 103.258C157.566 106.102 156.288 108.928 154.848 110.71C154.47 110.332 153.606 109.63 153.12 109.306C154.488 107.758 155.586 105.274 156.198 102.772ZM155.694 110.782L157.782 111.214C157.278 113.5 156.342 115.804 155.334 117.262C154.92 116.92 154.002 116.362 153.498 116.092C154.506 114.832 155.28 112.78 155.694 110.782ZM156.594 105.94H163.974V107.938H155.784L156.594 105.94ZM158.664 106.822H160.806V117.208C160.806 118.252 160.626 118.846 159.978 119.206C159.348 119.548 158.466 119.638 157.314 119.638C157.206 119.008 156.882 118.054 156.576 117.46C157.332 117.496 158.088 117.478 158.34 117.478C158.574 117.478 158.664 117.424 158.664 117.19V106.822ZM161.436 111.25L163.38 110.602C164.316 112.456 165.09 114.85 165.342 116.488L163.272 117.208C163.074 115.588 162.318 113.104 161.436 111.25ZM163.398 105.94H163.686L164.028 105.886L165.54 106.156C165.324 107.632 165 109.306 164.766 110.386L162.912 110.062C163.074 109.09 163.272 107.488 163.398 106.228V105.94ZM152.346 102.79L154.38 103.42C153.21 106.498 151.338 109.738 149.376 111.79C149.178 111.268 148.602 110.08 148.224 109.558C149.862 107.92 151.428 105.364 152.346 102.79ZM150.6 107.758L152.652 105.706L152.67 105.724V119.602H150.6V107.758ZM172.038 109.252V111.52H180.876V109.252H172.038ZM170.238 107.92H182.802V112.834H170.238V107.92ZM173.334 105.886H179.688V107.29H173.334V105.886ZM175.548 108.37H177.294V112.168H175.548V108.37ZM172.668 109.648L174.162 109.234C174.486 109.846 174.774 110.638 174.882 111.178L173.298 111.646C173.226 111.106 172.974 110.26 172.668 109.648ZM178.626 109.162L180.408 109.594C180.03 110.368 179.652 111.124 179.364 111.628L177.888 111.232C178.158 110.638 178.482 109.756 178.626 109.162ZM171.228 113.428H181.884V119.548H179.67V114.832H173.352V119.62H171.228V113.428ZM172.452 115.552H180.588V116.974H172.452V115.552ZM172.452 117.712H180.588V119.116H172.452V117.712ZM176.142 102.556L178.05 103.258C176.052 105.796 172.614 107.578 169.104 108.64C168.888 108.208 168.33 107.344 167.97 106.966C171.3 106.156 174.504 104.644 176.142 102.556ZM177.564 103.384C179.166 104.932 182.28 106.228 185.286 106.84C184.836 107.218 184.224 107.992 183.918 108.478C180.894 107.704 177.816 106.048 175.962 104.032L177.564 103.384ZM193.116 110.206H203.466V111.772H193.116V110.206ZM192.45 112.906H204.114V114.472H192.45V112.906ZM195.294 109.27H197.274V113.788H195.294V109.27ZM199.254 109.27H201.252V113.788H199.254V109.27ZM198.966 115.21L200.37 114.274C201.558 114.85 202.962 115.624 203.754 116.2L201.828 117.082C201.198 116.524 200.028 115.75 198.966 115.21ZM195.924 114.328L197.814 114.994C196.914 115.84 195.474 116.65 194.268 117.154C193.89 116.794 193.134 116.164 192.666 115.876C193.89 115.498 195.168 114.922 195.924 114.328ZM193.71 103.312H197.922V106.768H193.71V105.436H196.122V104.644H193.71V103.312ZM199.416 103.33H203.754V106.786H199.416V105.454H201.918V104.662H199.416V103.33ZM198.606 103.33H200.316V106.876C200.316 107.362 200.37 107.542 200.748 107.542C201.072 107.542 202.296 107.542 202.62 107.542C202.98 107.542 203.556 107.524 203.88 107.434C203.916 107.884 203.952 108.496 204.024 108.892C203.718 108.982 203.178 109.018 202.674 109.018C202.314 109.018 200.964 109.018 200.64 109.018C199.002 109.018 198.606 108.406 198.606 106.84V103.33ZM193.008 109.54L192.936 108.262L193.692 107.758L197.958 107.164C197.814 107.596 197.688 108.298 197.652 108.658C193.98 109.252 193.368 109.36 193.008 109.54ZM193.008 109.54C192.918 109.108 192.576 108.334 192.324 107.956C192.612 107.794 192.9 107.488 192.9 106.786V103.312H194.574V108.136C194.574 108.136 193.008 108.982 193.008 109.54ZM187.896 103.726L189.48 102.736C190.344 103.6 191.37 104.734 191.91 105.454L190.254 106.642C189.768 105.886 188.724 104.626 187.896 103.726ZM187.716 106.948H191.028V108.676H187.716V106.948ZM191.334 114.742C192.306 117.172 194.43 117.46 197.688 117.478C199.632 117.478 202.602 117.352 204.654 117.154C204.348 117.604 204.06 118.576 203.952 119.17C202.08 119.278 199.776 119.332 197.652 119.332C193.458 119.332 191.226 118.774 189.894 115.318L191.334 114.742ZM190.578 111.286H191.1L191.442 111.25L192.468 111.61C191.928 115.534 190.596 118.216 188.706 119.638C188.418 119.206 187.716 118.486 187.302 118.198C189.066 116.992 190.182 114.724 190.578 111.61V111.286ZM188.13 113.248V111.7L188.886 111.286H191.172V112.96H189.192C188.796 112.96 188.274 113.086 188.13 113.248ZM188.13 113.248C188.022 112.798 187.644 111.88 187.446 111.52C187.734 111.43 188.004 111.304 188.31 110.926C188.76 110.44 190.128 108.082 190.632 107.11V107.056L191.154 106.84L192.468 107.344C191.766 108.586 190.434 110.908 189.552 112.06C189.552 112.06 188.13 112.762 188.13 113.248ZM220.368 104.752V105.922H221.502V104.752H220.368ZM217.65 104.752V105.922H218.748V104.752H217.65ZM214.95 104.752V105.922H216.012V104.752H214.95ZM213.276 103.312H223.248V107.344H213.276V103.312ZM213.492 108.046H222.978V109.594H213.492V108.046ZM212.772 110.422H223.482V112.042H212.772V110.422ZM213.15 113.374H223.068V114.976H213.15V113.374ZM212.448 115.804H223.752V117.388H212.448V115.804ZM217.092 106.948H219.126V111.124H217.092V106.948ZM217.092 114.148H219.126V119.62H217.092V114.148ZM214.752 112.312L216.516 111.934C216.714 112.42 216.966 113.05 217.056 113.446L215.22 113.896C215.148 113.464 214.95 112.798 214.752 112.312ZM219.99 111.88L221.97 112.348C221.556 113.05 221.178 113.716 220.872 114.202L219.27 113.752C219.522 113.194 219.828 112.42 219.99 111.88ZM206.814 111.754C208.236 111.43 210.324 110.872 212.34 110.314L212.61 112.258C210.792 112.816 208.848 113.374 207.282 113.824L206.814 111.754ZM207.084 106.138H212.52V108.118H207.084V106.138ZM208.956 102.736H210.936V117.316C210.936 118.306 210.756 118.864 210.198 119.188C209.658 119.53 208.884 119.602 207.714 119.602C207.66 119.062 207.408 118.18 207.156 117.586C207.804 117.622 208.434 117.622 208.65 117.604C208.866 117.604 208.956 117.55 208.956 117.316V102.736ZM228.756 118.252C227.802 118.252 227.118 117.514 227.118 116.524C227.118 115.534 227.802 114.814 228.756 114.814C229.692 114.814 230.412 115.534 230.412 116.524C230.412 117.514 229.692 118.252 228.756 118.252ZM236.05 118.252C235.096 118.252 234.412 117.514 234.412 116.524C234.412 115.534 235.096 114.814 236.05 114.814C236.986 114.814 237.706 115.534 237.706 116.524C237.706 117.514 236.986 118.252 236.05 118.252ZM243.343 118.252C242.389 118.252 241.705 117.514 241.705 116.524C241.705 115.534 242.389 114.814 243.343 114.814C244.279 114.814 244.999 115.534 244.999 116.524C244.999 117.514 244.279 118.252 243.343 118.252ZM250.637 118.252C249.683 118.252 248.999 117.514 248.999 116.524C248.999 115.534 249.683 114.814 250.637 114.814C251.573 114.814 252.293 115.534 252.293 116.524C252.293 117.514 251.573 118.252 250.637 118.252ZM257.93 118.252C256.976 118.252 256.292 117.514 256.292 116.524C256.292 115.534 256.976 114.814 257.93 114.814C258.866 114.814 259.586 115.534 259.586 116.524C259.586 117.514 258.866 118.252 257.93 118.252ZM265.224 118.252C264.27 118.252 263.586 117.514 263.586 116.524C263.586 115.534 264.27 114.814 265.224 114.814C266.16 114.814 266.88 115.534 266.88 116.524C266.88 117.514 266.16 118.252 265.224 118.252Z" fill="black"/>
<defs>
<filter id="filter0_d_144_1178" x="0" y="0" width="362" height="153" filterUnits="userSpaceOnUse" color-interpolation-filters="sRGB">
<feFlood flood-opacity="0" result="BackgroundImageFix"/>
<feColorMatrix in="SourceAlpha" type="matrix" values="0 0 0 0 0 0 0 0 0 0 0 0 0 0 0 0 0 0 127 0" result="hardAlpha"/>
<feOffset dx="7" dy="7"/>
<feComposite in2="hardAlpha" operator="out"/>
<feColorMatrix type="matrix" values="0 0 0 0 0.5425 0 0 0 0 0 0 0 0 0 0.875 0 0 0 1 0"/>
<feBlend mode="normal" in2="BackgroundImageFix" result="effect1_dropShadow_144_1178"/>
<feBlend mode="normal" in="SourceGraphic" in2="effect1_dropShadow_144_1178" result="shape"/>
</filter>
</defs>
</svg>
