<svg width="362" height="125" viewBox="0 0 362 125" fill="none" xmlns="http://www.w3.org/2000/svg">
<g filter="url(#filter0_d_145_1179)">
<rect width="355" height="118" fill="white"/>
</g>
<path d="M50.82 17.4H65.26V24.08H62.3V19.4H53.62V24.08H50.82V17.4ZM54.14 19.92H61.8V21.58H54.14V19.92ZM54.14 22.1H61.72V23.84H54.14V22.1ZM48.94 24.36H67.04V26.64H48.94V24.36ZM58.3 27.1H64.52V29.28H58.3V27.1ZM52.3 27.12H56.64V29.08H52.3V27.12ZM52.3 29.62H56.64V31.58H52.3V29.62ZM60.96 29.06C62.06 31.26 64.32 32.92 67.42 33.62C66.84 34.14 66.08 35.2 65.72 35.88C62.3 34.88 60.04 32.74 58.64 29.7L60.96 29.06ZM63.88 27.1H64.4L64.88 27.02L66.66 27.68C65.5 31.92 62.86 34.46 59.16 35.86C58.84 35.18 58.14 34.14 57.62 33.6C60.74 32.66 63.08 30.42 63.88 27.5V27.1ZM48.76 32.58C50.8 32.48 53.84 32.26 56.74 32.04L56.78 34.24C54.06 34.54 51.18 34.8 49.02 35L48.76 32.58ZM55.16 25.1H57.94V35.9H55.16V25.1ZM50.46 25.16H53.1V33.36H50.46V25.16ZM80.74 29.48L82.34 27.66C83.8 28.18 85.54 29.1 86.54 29.82L84.9 31.84C83.94 31.06 82.18 30.04 80.74 29.48ZM78.58 32.92L80.24 30.9C82.8 31.58 85.82 32.86 87.7 33.86L86.02 36.12C84.26 35 81.14 33.68 78.58 32.92ZM80.98 16.9L83.78 17.36C82.76 19.96 81.34 22.44 79.04 24.52C78.62 23.92 77.68 23.02 77.06 22.64C79.06 20.98 80.32 18.8 80.98 16.9ZM81.72 18.7H86.42V21.16H80.5L81.72 18.7ZM85.66 18.7H86.2L86.66 18.6L88.44 19.6C86.64 24.18 82.94 27.42 78.94 29.02C78.6 28.36 77.74 27.2 77.18 26.72C81 25.42 84.36 22.7 85.66 19.18V18.7ZM81.5 20.52C82.98 23.26 85.96 25.62 89.5 26.72C88.9 27.28 88.06 28.36 87.66 29.08C83.94 27.62 81.04 24.84 79.2 21.32L81.5 20.52ZM74.6 25.4L76.62 24.82C77.08 26.2 77.54 27.98 77.68 29.08L75.52 29.78C75.4 28.66 75 26.82 74.6 25.4ZM73.24 30.64L75.24 30.24C75.5 31.64 75.72 33.4 75.78 34.58L73.68 35.02C73.66 33.84 73.46 32.02 73.24 30.64ZM70.8 30.3L73.04 30.66C72.94 32.48 72.66 34.38 72.24 35.6C71.74 35.32 70.66 35 70.08 34.84C70.54 33.7 70.72 31.92 70.8 30.3ZM70.78 25.1C70.64 24.58 70.22 23.36 69.92 22.68C70.36 22.56 70.7 22.2 71.1 21.6C71.5 21.04 72.74 18.86 73.4 16.74L75.96 17.8C75.04 19.92 73.6 22.2 72.3 23.76V23.82C72.3 23.82 70.78 24.64 70.78 25.1ZM70.78 25.1L70.72 23.24L71.78 22.52L75.26 22.32C75.1 22.98 74.98 23.94 74.96 24.48C71.9 24.74 71.2 24.9 70.78 25.1ZM70.94 29.82C70.8 29.3 70.36 27.98 70.04 27.28C70.62 27.12 71.04 26.7 71.68 25.96C72.36 25.24 74.42 22.38 75.62 19.64L78 21.14C76.58 23.76 74.5 26.48 72.5 28.44V28.52C72.5 28.52 70.94 29.36 70.94 29.82ZM70.94 29.82L70.8 27.88L71.86 27.14L76.48 26.54C76.38 27.2 76.32 28.16 76.34 28.68C72.22 29.34 71.42 29.56 70.94 29.82ZM75.42 30.3L77.3 29.64C77.76 30.78 78.26 32.26 78.5 33.22L76.54 33.98C76.34 33 75.84 31.46 75.42 30.3ZM99.24 27.58L100.6 27.24C100.86 27.96 101.16 28.92 101.28 29.48L99.86 29.92C99.76 29.32 99.48 28.32 99.24 27.58ZM101.5 29.74H103.46V35.68H101.5V29.74ZM96.32 30.1H98.04V31.74H100.04V33.28H96.32V30.1ZM98.86 29.74H100.78V31.76C100.78 33.4 100.38 34.96 97.8 35.82C97.58 35.38 96.98 34.62 96.58 34.28C98.58 33.7 98.86 32.72 98.86 31.7V29.74ZM94.1 20.14H98.8V21.84H94.1V20.14ZM103.3 20.14H108V21.84H103.3V20.14ZM107.04 17.62H109.84V32.68C109.84 33.98 109.66 34.76 108.9 35.24C108.14 35.72 107.18 35.78 105.8 35.78C105.72 35 105.38 33.7 105.02 32.96C105.66 33 106.44 33 106.7 33C106.96 33 107.04 32.9 107.04 32.64V17.62ZM94.38 17.62H100.66V24.36H94.38V22.46H97.94V19.52H94.38V17.62ZM108.5 17.62V19.52H104.46V22.46H108.5V24.36H101.7V17.62H108.5ZM92.66 17.62H95.42V35.9H92.66V17.62ZM96.5 27.52C96.4 27.16 96.14 26.36 95.94 25.94C96.16 25.88 96.4 25.78 96.6 25.58C96.8 25.4 97.5 24.72 97.88 23.94L99.44 24.78C98.88 25.48 98.12 26.2 97.46 26.64V26.68C97.46 26.68 96.5 27.18 96.5 27.52ZM96.5 27.54L96.48 26.52L97.16 26.12L99.66 26.02C99.56 26.38 99.44 26.9 99.42 27.18C97.26 27.32 96.76 27.42 96.5 27.54ZM96.44 29.92C96.36 29.6 96.12 28.82 95.94 28.4C96.26 28.36 96.6 28.16 97 27.86C97.4 27.56 98.76 26.4 99.64 25.18L100.96 26.14C99.92 27.24 98.6 28.34 97.34 29.1V29.16C97.34 29.16 96.44 29.6 96.44 29.92ZM96.44 29.94L96.4 28.84L97.06 28.4L100.28 28.06C100.3 28.44 100.38 28.94 100.44 29.24C97.3 29.66 96.76 29.78 96.44 29.94ZM104.54 27.62L105.86 27.22C106.18 27.94 106.54 28.9 106.68 29.46L105.3 29.96C105.16 29.36 104.82 28.36 104.54 27.62ZM101.78 27.56C101.68 27.2 101.42 26.4 101.22 25.98C101.44 25.92 101.68 25.82 101.88 25.62C102.08 25.44 102.78 24.76 103.16 23.98L104.72 24.82C104.16 25.52 103.4 26.24 102.74 26.68V26.72C102.74 26.72 101.78 27.22 101.78 27.56ZM101.78 27.56L101.76 26.54L102.44 26.14L104.94 26.04C104.84 26.4 104.72 26.92 104.7 27.2C102.54 27.34 102.04 27.44 101.78 27.56ZM101.76 29.96C101.68 29.64 101.44 28.86 101.26 28.44C101.58 28.38 101.92 28.2 102.32 27.88C102.72 27.58 104.08 26.38 104.96 25.14L106.3 26.1C105.24 27.24 103.92 28.36 102.66 29.14V29.2C102.66 29.2 101.76 29.64 101.76 29.96ZM101.76 29.96L101.72 28.86L102.38 28.42L105.6 28.08C105.62 28.46 105.7 28.96 105.76 29.26C102.62 29.68 102.08 29.8 101.76 29.96ZM103.04 31.74H105.22V33.28H103.04V31.74ZM104.28 30.1H106.08V33.8H104.28V30.1ZM122.8 24C121.6 24 120.68 23.08 120.68 21.92C120.68 20.72 121.6 19.8 122.8 19.8C124 19.8 124.92 20.72 124.92 21.92C124.92 23.08 124 24 122.8 24ZM122.8 33.4C121.6 33.4 120.68 32.48 120.68 31.32C120.68 30.12 121.6 29.2 122.8 29.2C124 29.2 124.92 30.12 124.92 31.32C124.92 32.48 124 33.4 122.8 33.4ZM135.72 19.24H153.2V22.08H135.72V19.24ZM142.78 16.9H145.86V35.9H142.78V16.9ZM143.12 26.02L145.54 26.94C143.58 30.54 140.5 33.58 136.84 35.26C136.38 34.52 135.44 33.34 134.78 32.74C138.3 31.42 141.5 28.82 143.12 26.02ZM145.74 26.24C147.38 28.84 150.56 31.28 154 32.52C153.28 33.14 152.32 34.38 151.84 35.2C148.34 33.56 145.32 30.6 143.36 27.18L145.74 26.24ZM138 25.48L139.82 23.64C140.7 24.36 142.04 25.44 142.7 26.1L140.78 28.16C140.2 27.44 138.9 26.3 138 25.48ZM138.8 22L141.62 22.54C140.86 25.46 139.42 28.02 137.56 29.58C137.08 29.06 135.96 28.1 135.32 27.68C137.06 26.44 138.26 24.36 138.8 22ZM147.54 25.6L149.42 23.84C150.6 24.74 152.52 26.1 153.46 26.94L151.46 28.94C150.62 28.08 148.78 26.62 147.54 25.6ZM148.2 22L151.02 22.52C150.46 24.84 149.36 26.98 148.06 28.28C147.5 27.84 146.26 27.1 145.58 26.78C146.88 25.7 147.8 23.88 148.2 22ZM160.64 23.74H171.1V26.42H160.64V23.74ZM160.64 27.98H171.1V30.66H160.64V27.98ZM160.64 32.24H171.1V34.92H160.64V32.24ZM158.66 19.42H173.6V35.86H170.5V22.2H161.6V35.86H158.66V19.42ZM164.24 16.88L167.8 17.24C167.28 18.64 166.68 19.98 166.24 20.88L163.56 20.4C163.86 19.36 164.14 17.96 164.24 16.88ZM187.52 28.26H195.34V30.64H187.52V28.26ZM187.48 32.2H195.4V34.68H187.48V32.2ZM187.46 17.08H190.12V23.56H187.46V17.08ZM192.7 17.08H195.4V23.56H192.7V17.08ZM190.12 25.68H192.58V33.42H190.12V25.68ZM186.42 24.3H196.38V35.68H193.62V26.78H189.04V35.9H186.42V24.3ZM181.26 24.48L183.14 23.36C186.14 26.38 186.28 32.76 184.96 34.52C184.36 35.4 183.6 35.72 182.64 35.74C182.24 35.74 181.72 35.74 181.26 35.72C181.22 35 181.04 33.96 180.66 33.24C181.18 33.3 181.7 33.32 182.04 33.32C182.42 33.32 182.7 33.24 182.94 32.72C183.52 31.76 183.6 26.86 181.26 24.48ZM182.86 25.7L184.5 26.84C183.26 28.08 181.02 29.62 179.32 30.48C179.02 29.9 178.48 29 178.02 28.5C179.64 27.92 181.8 26.72 182.86 25.7ZM183.74 27.98L185.42 29.16C183.96 30.94 181.3 32.96 179.12 34.08C178.82 33.46 178.26 32.54 177.78 32.02C179.9 31.24 182.46 29.52 183.74 27.98ZM178.56 22.28L180.42 21.34C180.9 22.06 181.54 23.06 181.82 23.68L179.84 24.76C179.62 24.1 179.04 23.06 178.56 22.28ZM181.58 21.2L183.4 20.22C183.8 20.78 184.34 21.58 184.6 22.08L182.7 23.2C182.46 22.68 181.96 21.82 181.58 21.2ZM185.02 20.82L186.66 22.4C184.82 24.36 182.1 25.98 179.5 27.06C179.2 26.52 178.62 25.66 178.14 25.2C180.72 24.18 183.38 22.54 185.02 20.82ZM184.28 16.86L185.82 18.6C184.12 19.8 181.6 20.68 179.36 21.18C179.06 20.58 178.54 19.64 178.06 19.12C180.24 18.66 182.7 17.8 184.28 16.86ZM185.88 19.16H191.12V21.84H185.88V19.16ZM191.7 19.2H197.12V21.86H191.7V19.2ZM203.76 21.96H214.58V23.96H203.76V21.96ZM211.62 21.22L212.88 19.98C213.5 20.3 214.26 20.8 214.62 21.22L213.3 22.56C212.96 22.14 212.22 21.58 211.62 21.22ZM212.16 24.3L214.36 24.74C213.38 28.14 211.48 30.82 208.94 32.46C208.64 32.02 207.86 31.12 207.4 30.74C209.76 29.4 211.42 27.14 212.16 24.3ZM203.52 29.3C204.94 29.2 206.94 29.02 208.96 28.82L209.02 30.72C207.18 30.96 205.3 31.18 203.74 31.38L203.52 29.3ZM205.96 26.06V26.92H206.76V26.06H205.96ZM204.16 24.6H208.66V28.38H204.16V24.6ZM208.8 20.5H211.18C211.28 25.08 211.82 29.46 212.8 29.78C213 29.86 213.12 29.1 213.2 28C213.62 28.44 214.5 29.14 214.96 29.4C214.64 32.02 213.36 32.78 211.9 32.04C209.52 31.12 209.06 26 208.8 20.5ZM200.5 17.72H217.88V35.96H215V20.32H203.24V35.96H200.5V17.72ZM202.24 32.58H216.56V35.18H202.24V32.58ZM222.6 18.04H239V20.9H222.6V18.04ZM223.58 24.82H238.18V27.68H223.58V24.82ZM221.64 32.18H240.02V35.04H221.64V32.18ZM229.24 18.8H232.32V34.02H229.24V18.8ZM245.4 20.16H251.58V33.86H245.4V31.32H248.96V22.68H245.4V20.16ZM243.72 20.16H246.34V35.28H243.72V20.16ZM245.32 25.38H250.2V27.88H245.32V25.38ZM246.44 16.9L249.62 17.34C249.14 18.76 248.62 20.2 248.22 21.16L245.9 20.66C246.14 19.58 246.38 18.04 246.44 16.9ZM254.1 19.96H259.78V22.6H254.1V19.96ZM258.78 19.96H261.46C261.46 19.96 261.46 20.88 261.44 21.22C261.2 30.12 261 33.36 260.16 34.46C259.54 35.34 258.92 35.58 258.04 35.74C257.24 35.88 256 35.86 254.8 35.82C254.76 35.04 254.36 33.8 253.84 33C255.12 33.12 256.32 33.12 256.86 33.12C257.26 33.12 257.48 33.04 257.74 32.76C258.38 32.08 258.6 28.58 258.78 20.5V19.96ZM253.96 16.96L256.76 17.62C255.94 20.56 254.58 23.66 253.22 25.58C252.7 25.1 251.5 24.26 250.84 23.88C252.16 22.24 253.32 19.54 253.96 16.96ZM252.94 26.06L255.22 24.78C256.12 26.14 257.42 28.04 258.02 29.22L255.56 30.72C255.04 29.5 253.84 27.54 252.94 26.06ZM264.34 26.78C265.94 26.32 268.32 25.48 270.58 24.66L271.12 27.2C269.08 28.02 266.84 28.86 265.04 29.54L264.34 26.78ZM264.6 20.56H270.72V23.22H264.6V20.56ZM266.56 16.92H269.22V32.92C269.22 34.18 269.02 34.92 268.34 35.36C267.66 35.82 266.74 35.92 265.42 35.92C265.36 35.2 265.04 34 264.7 33.22C265.34 33.26 266 33.26 266.24 33.24C266.48 33.24 266.56 33.18 266.56 32.92V16.92ZM273.4 17.16H276.06V25.88C276.06 29.9 275.56 33.6 271.68 35.82C271.24 35.2 270.24 34.22 269.62 33.78C272.98 31.98 273.4 29.14 273.4 25.86V17.16ZM276.9 17.16H279.64V32.02C279.64 33.02 279.68 33.16 280.02 33.16C280.16 33.16 280.64 33.16 280.78 33.16C281.12 33.16 281.2 32.6 281.26 30.7C281.88 31.16 282.92 31.66 283.68 31.82C283.42 34.62 282.74 35.74 281.04 35.74C280.64 35.74 279.86 35.74 279.48 35.74C277.46 35.74 276.9 34.9 276.9 32V17.16ZM270.34 20.64L272.48 19.46C273.24 20.68 274.1 22.26 274.52 23.3L272.28 24.66C271.9 23.58 271.04 21.9 270.34 20.64ZM278.58 27.12L280.32 25.4C281.58 26.46 283.02 27.9 283.74 28.9L281.9 30.9C281.24 29.88 279.8 28.26 278.58 27.12ZM269.78 28.62C270.66 28.12 271.98 27.26 273.28 26.38L274.22 28.58C273.28 29.42 272.2 30.3 271.24 31.06L269.78 28.62ZM280.74 19.18L283.32 20.5C282.46 21.98 281.64 23.64 280.94 24.7L278.96 23.6C279.58 22.42 280.36 20.58 280.74 19.18ZM288.6 19.14V20.06H289.22V19.14H288.6ZM286.6 17.38H291.32V21.84H286.6V17.38ZM293.92 19.14V20.06H294.54V19.14H293.92ZM291.92 17.38H296.64V21.84H291.92V17.38ZM296.66 22.66L304.92 21.68L305.22 24.36L296.98 25.38L296.66 22.66ZM301.06 18.26L303.26 17.14C303.96 18.2 304.76 19.6 305.04 20.54L302.7 21.8C302.44 20.86 301.74 19.36 301.06 18.26ZM289.18 27.18V27.88H294V27.18H289.18ZM289.18 24.52V25.22H294V24.52H289.18ZM286.82 22.42H296.48V29.98H286.82V22.42ZM286.04 30.74H296.94V33.28H286.04V30.74ZM290.36 23.12H292.78V29.12H292.96V35.9H290.18V29.12H290.36V23.12ZM297.98 17.02H300.72C300.76 25.28 301.7 32.3 302.8 32.4C303.06 32.42 303.24 31.56 303.32 29.86C303.78 30.48 304.96 31.26 305.4 31.52C304.84 35.2 303.66 35.92 302.78 35.9C299.18 35.74 298.22 28.5 297.98 17.02ZM302.64 24.64L304.82 25.86C303.52 29.84 300.82 33.74 297.48 35.7C297 35.04 296.12 34.2 295.38 33.68C298.86 32.04 301.44 28.44 302.64 24.64Z" fill="black"/>
<path d="M17.958 52.482H29.442V54.444H17.958V52.482ZM20.316 57.468V59.25H26.886V57.468H20.316ZM18.354 55.704H28.956V61.014H18.354V55.704ZM20.046 61.194C21.648 63.786 25.05 65.244 29.712 65.676C29.262 66.144 28.722 67.008 28.452 67.602C23.574 66.936 20.244 65.118 18.282 61.734L20.046 61.194ZM22.512 50.826H24.636V59.052C24.636 62.724 23.718 66.072 18.552 67.62C18.3 67.134 17.67 66.27 17.202 65.82C22.044 64.74 22.512 61.986 22.512 59.034V50.826ZM16.59 50.664L18.606 51.312C17.382 54.372 15.402 57.594 13.35 59.628C13.17 59.124 12.594 57.936 12.234 57.414C13.944 55.794 15.618 53.238 16.59 50.664ZM14.844 55.686L16.878 53.634L16.896 53.652V67.656H14.844V55.686ZM32.322 56.172H48.522V58.08H32.322V56.172ZM33.888 52.662H44.184V54.534H33.888V52.662ZM37.056 62.454H45.102V64.074H37.056V62.454ZM37.056 65.28H45.102V67.098H37.056V65.28ZM38.136 50.718H40.26V57.234H38.136V50.718ZM46.056 51.24L47.91 52.194C44.382 57.108 38.892 60.726 33.06 62.868C32.808 62.4 32.16 61.5 31.764 61.068C37.614 59.196 42.906 55.758 46.056 51.24ZM35.85 59.52H46.47V67.566H44.22V61.284H38.01V67.638H35.85V59.52ZM52.068 57.864H67.818V61.788H65.712V59.61H54.066V61.788H52.068V57.864ZM57.288 50.898H59.16V55.56H60.618V50.898H62.58V57.162H57.288V50.898ZM51.852 52.68H67.962V54.354H51.852V52.68ZM54.3 50.916H56.262V53.346C56.262 54.966 55.65 56.712 53.202 57.792C52.95 57.36 52.392 56.73 51.978 56.388C54.012 55.686 54.3 54.372 54.3 53.346V50.916ZM58.728 59.898H60.87V67.602H58.728V59.898ZM53.832 60.96H64.794V62.67H55.92V66.558H53.832V60.96ZM63.966 60.96H66.09V64.614C66.09 65.532 65.892 66.072 65.208 66.36C64.506 66.648 63.57 66.666 62.292 66.666C62.202 66.108 61.896 65.316 61.626 64.794C62.418 64.83 63.39 64.83 63.624 64.83C63.894 64.83 63.966 64.776 63.966 64.578V60.96ZM63.606 50.862H65.532V55.002C65.532 55.524 65.586 55.704 65.874 55.704C66.072 55.704 66.72 55.704 66.954 55.704C67.242 55.704 67.71 55.668 67.962 55.596C67.998 56.082 68.052 56.784 68.124 57.234C67.836 57.324 67.386 57.342 66.972 57.342C66.684 57.342 65.946 57.342 65.694 57.342C63.966 57.342 63.606 56.658 63.606 54.984V50.862ZM71.274 57.918H87.438V59.79H71.274V57.918ZM72.768 55.146H83.226V56.91H72.768V55.146ZM76.206 63.246H84.216V64.596H76.206V63.246ZM76.206 65.496H84.216V67.134H76.206V65.496ZM77.106 54.156H79.248V59.07H77.106V54.156ZM85.602 54.696L87.204 55.686C83.532 59.412 77.538 61.752 71.706 63.084C71.508 62.634 71.04 61.77 70.734 61.356C76.566 60.276 82.38 58.044 85.602 54.696ZM74.694 60.744H85.908V67.584H83.694V62.364H76.8V67.584H74.694V60.744ZM71.256 51.69H78.978V53.544H71.256V51.69ZM74.532 50.7H76.674V54.624H74.532V50.7ZM82.092 50.7H84.234V54.624H82.092V50.7ZM79.626 51.69H87.366V53.544H79.626V51.69ZM97.878 50.772L100.002 51.258C99.246 54.102 97.968 56.928 96.528 58.71C96.15 58.332 95.286 57.63 94.8 57.306C96.168 55.758 97.266 53.274 97.878 50.772ZM97.374 58.782L99.462 59.214C98.958 61.5 98.022 63.804 97.014 65.262C96.6 64.92 95.682 64.362 95.178 64.092C96.186 62.832 96.96 60.78 97.374 58.782ZM98.274 53.94H105.654V55.938H97.464L98.274 53.94ZM100.344 54.822H102.486V65.208C102.486 66.252 102.306 66.846 101.658 67.206C101.028 67.548 100.146 67.638 98.994 67.638C98.886 67.008 98.562 66.054 98.256 65.46C99.012 65.496 99.768 65.478 100.02 65.478C100.254 65.478 100.344 65.424 100.344 65.19V54.822ZM103.116 59.25L105.06 58.602C105.996 60.456 106.77 62.85 107.022 64.488L104.952 65.208C104.754 63.588 103.998 61.104 103.116 59.25ZM105.078 53.94H105.366L105.708 53.886L107.22 54.156C107.004 55.632 106.68 57.306 106.446 58.386L104.592 58.062C104.754 57.09 104.952 55.488 105.078 54.228V53.94ZM94.026 50.79L96.06 51.42C94.89 54.498 93.018 57.738 91.056 59.79C90.858 59.268 90.282 58.08 89.904 57.558C91.542 55.92 93.108 53.364 94.026 50.79ZM92.28 55.758L94.332 53.706L94.35 53.724V67.602H92.28V55.758ZM110.424 52.968H126.084V55.074H110.424V52.968ZM116.994 50.718H119.262V67.62H116.994V50.718ZM117.246 58.854L119.046 59.538C117.282 62.724 114.384 65.478 111.18 66.954C110.838 66.414 110.136 65.532 109.65 65.1C112.764 63.894 115.734 61.446 117.246 58.854ZM119.172 58.998C120.684 61.482 123.636 63.822 126.732 64.956C126.192 65.424 125.49 66.324 125.13 66.936C121.998 65.496 119.154 62.778 117.39 59.7L119.172 58.998ZM112.602 58.206L113.97 56.838C114.78 57.522 115.95 58.512 116.526 59.124L115.104 60.636C114.564 59.988 113.43 58.944 112.602 58.206ZM113.322 55.182L115.428 55.578C114.762 58.206 113.484 60.456 111.81 61.86C111.45 61.464 110.622 60.762 110.136 60.438C111.72 59.286 112.818 57.378 113.322 55.182ZM121.206 58.278L122.61 56.982C123.726 57.828 125.436 59.106 126.264 59.88L124.77 61.374C124.014 60.564 122.358 59.232 121.206 58.278ZM121.818 55.182L123.906 55.56C123.42 57.72 122.43 59.628 121.224 60.834C120.81 60.492 119.892 59.934 119.388 59.7C120.594 58.674 121.44 57 121.818 55.182ZM130.152 60.042H138.738V61.914H130.152V60.042ZM133.464 58.44H135.498V65.712H133.464V58.44ZM129.558 64.956C131.916 64.632 135.57 64.02 138.954 63.426L139.062 65.28C135.894 65.892 132.474 66.504 130.026 66.954L129.558 64.956ZM129.738 51.78H139.134V53.634H129.738V51.78ZM135.012 54.534L136.56 53.598C137.514 54.804 138.648 56.424 139.098 57.486L137.46 58.548C137.028 57.468 135.948 55.776 135.012 54.534ZM139.836 52.392H141.834V63.318H139.836V52.392ZM143.292 50.916H145.398V64.92C145.398 66.036 145.164 66.612 144.498 66.936C143.796 67.278 142.77 67.35 141.366 67.35C141.276 66.774 140.934 65.838 140.628 65.28C141.582 65.316 142.554 65.316 142.86 65.316C143.184 65.316 143.292 65.208 143.292 64.902V50.916ZM130.746 58.386C130.62 57.954 130.296 56.982 130.062 56.424C130.35 56.352 130.62 56.064 130.908 55.65C131.196 55.254 132.042 53.778 132.51 52.302L134.616 53.094C133.932 54.588 132.852 56.226 131.916 57.306V57.342C131.916 57.342 130.746 57.99 130.746 58.386ZM130.746 58.386L130.71 56.874L131.682 56.262L137.154 55.92C137.388 56.46 137.784 57.162 138.018 57.594C132.15 58.08 131.322 58.134 130.746 58.386ZM156.018 57.072H158.304V65.154C158.304 66.378 158.016 66.972 157.116 67.296C156.216 67.62 154.92 67.656 153.192 67.638C153.066 67.008 152.67 66.054 152.328 65.46C153.606 65.514 155.082 65.514 155.496 65.496C155.892 65.496 156.018 65.406 156.018 65.1V57.072ZM149.754 51.978H162.336V54.102H149.754V51.978ZM161.688 51.978H162.3L162.786 51.852L164.496 53.13C162.66 55.11 159.96 57.306 157.458 58.62C157.134 58.152 156.45 57.432 156.018 57.072C158.178 55.92 160.662 53.868 161.688 52.5V51.978ZM176.322 60.978H183.522V62.76H176.322V60.978ZM176.286 64.65H183.558V66.522H176.286V64.65ZM176.628 50.88H178.608V56.64H176.628V50.88ZM181.182 50.88H183.198V56.64H181.182V50.88ZM178.932 58.332H180.768V65.604H178.932V58.332ZM175.494 57.306H184.26V67.44H182.208V59.178H177.438V67.602H175.494V57.306ZM171.012 57.234L172.416 56.388C175.152 59.232 175.188 65.028 173.964 66.504C173.442 67.206 172.83 67.458 172.02 67.476C171.678 67.476 171.174 67.476 170.742 67.44C170.706 66.9 170.58 66.126 170.292 65.586C170.778 65.64 171.282 65.658 171.588 65.658C171.948 65.658 172.218 65.586 172.452 65.172C173.136 64.308 173.262 59.61 171.012 57.234ZM172.398 58.458L173.64 59.322C172.542 60.438 170.544 61.806 169.05 62.58C168.816 62.13 168.402 61.464 168.06 61.086C169.5 60.528 171.444 59.412 172.398 58.458ZM173.19 60.6L174.45 61.482C173.154 63.084 170.796 64.92 168.852 65.91C168.618 65.442 168.204 64.758 167.826 64.362C169.716 63.624 172.038 62.022 173.19 60.6ZM168.564 55.236L169.968 54.534C170.436 55.218 171.03 56.154 171.282 56.748L169.788 57.576C169.59 56.946 169.032 55.974 168.564 55.236ZM171.21 54.246L172.578 53.508C172.974 54.066 173.46 54.822 173.676 55.326L172.254 56.154C172.038 55.65 171.588 54.84 171.21 54.246ZM174.234 54.102L175.476 55.29C173.892 57 171.498 58.458 169.176 59.448C168.942 59.034 168.51 58.386 168.15 58.044C170.454 57.108 172.83 55.632 174.234 54.102ZM173.532 50.736L174.684 52.032C173.244 53.058 171.03 53.85 169.032 54.336C168.798 53.886 168.42 53.184 168.042 52.788C169.986 52.374 172.2 51.564 173.532 50.736ZM174.99 52.824H179.598V54.822H174.99V52.824ZM180.174 52.842H184.98V54.822H180.174V52.842ZM190.92 55.236H200.964V56.748H190.92V55.236ZM198.156 54.264L199.11 53.328C199.722 53.616 200.46 54.084 200.82 54.48L199.83 55.506C199.47 55.11 198.75 54.606 198.156 54.264ZM198.894 57.252L200.568 57.576C199.668 60.762 197.922 63.21 195.564 64.722C195.348 64.398 194.754 63.714 194.394 63.426C196.644 62.148 198.192 60.006 198.894 57.252ZM190.722 62.112C192.036 61.968 193.926 61.734 195.816 61.482L195.87 62.922C194.124 63.192 192.36 63.462 190.92 63.678L190.722 62.112ZM192.774 58.674V59.826H193.98V58.674H192.774ZM191.388 57.522H195.42V60.96H191.388V57.522ZM195.744 53.688H197.544C197.67 58.17 198.282 62.4 199.47 62.688C199.668 62.742 199.812 62.04 199.902 60.978C200.226 61.32 200.874 61.824 201.234 62.004C200.964 64.236 199.992 64.92 198.804 64.38C196.554 63.66 196.014 58.872 195.744 53.688ZM188.238 51.492H203.664V67.674H201.522V53.436H190.272V67.674H188.238V51.492ZM189.516 64.992H202.692V66.918H189.516V64.992ZM208.092 51.816H222.69V53.94H208.092V51.816ZM208.938 57.99H221.988V60.114H208.938V57.99ZM207.21 64.704H223.608V66.828H207.21V64.704ZM214.23 52.374H216.516V66.072H214.23V52.374ZM228.414 53.634H233.94V65.766H228.414V63.858H231.978V55.524H228.414V53.634ZM227.154 53.634H229.116V67.098H227.154V53.634ZM228.324 58.44H232.932V60.312H228.324V58.44ZM229.71 50.7L232.068 51.042C231.654 52.266 231.204 53.544 230.844 54.39L229.116 54.012C229.368 53.076 229.62 51.69 229.71 50.7ZM236.316 53.508H241.572V55.47H236.316V53.508ZM240.834 53.508H242.832C242.832 53.508 242.832 54.21 242.814 54.48C242.58 62.58 242.364 65.442 241.626 66.396C241.122 67.098 240.618 67.296 239.88 67.404C239.196 67.512 238.098 67.494 237.054 67.44C237.018 66.846 236.73 65.928 236.334 65.352C237.504 65.442 238.584 65.46 239.034 65.46C239.394 65.46 239.592 65.388 239.826 65.136C240.402 64.524 240.636 61.428 240.834 53.922V53.508ZM236.37 50.718L238.44 51.204C237.738 53.868 236.568 56.604 235.344 58.332C234.948 57.972 234.066 57.36 233.562 57.072C234.768 55.56 235.794 53.112 236.37 50.718ZM235.488 58.692L237.18 57.738C238.062 58.98 239.25 60.708 239.808 61.77L237.972 62.886C237.486 61.788 236.352 60.024 235.488 58.692ZM251.76 58.656H256.386V60.348H251.76V58.656ZM251.76 61.68H256.404V63.372H251.76V61.68ZM248.268 64.722H260.418V66.702H248.268V64.722ZM246.918 55.416H261.624V67.62H259.428V57.396H248.988V67.62H246.918V55.416ZM250.842 56.73H252.768V65.604H250.842V56.73ZM255.54 56.73H257.484V65.586H255.54V56.73ZM252.876 52.68L255.432 53.22C255 54.552 254.604 55.956 254.244 56.892L252.264 56.37C252.516 55.326 252.804 53.814 252.876 52.68ZM246.162 51.744H262.434V53.796H246.162V51.744ZM265.53 53.382H281.91V55.344H265.53V53.382ZM267.654 59.52H272.334V61.104H267.654V59.52ZM267.654 62.274H272.334V63.876H267.654V62.274ZM275.196 56.766H277.194V64.146H275.196V56.766ZM271.578 56.586H273.666V65.496C273.666 66.414 273.486 66.918 272.874 67.224C272.28 67.548 271.452 67.566 270.336 67.566C270.228 67.026 269.922 66.234 269.652 65.73C270.318 65.766 271.056 65.766 271.272 65.748C271.506 65.748 271.578 65.676 271.578 65.46V56.586ZM278.814 56.28H280.938V65.262C280.938 66.306 280.74 66.864 280.02 67.188C279.336 67.512 278.364 67.584 277.032 67.566C276.924 66.99 276.582 66.072 276.276 65.514C277.194 65.568 278.13 65.568 278.436 65.55C278.724 65.55 278.814 65.478 278.814 65.226V56.28ZM268.014 51.42L270.066 50.7C270.714 51.402 271.434 52.356 271.74 53.04L269.562 53.814C269.31 53.166 268.644 52.14 268.014 51.42ZM277.248 50.664L279.606 51.366C278.868 52.518 278.076 53.67 277.446 54.462L275.502 53.796C276.114 52.95 276.852 51.636 277.248 50.664ZM266.664 56.586H268.608V60.762C268.608 62.868 268.374 65.802 267.042 67.62C266.718 67.278 265.872 66.648 265.422 66.414C266.556 64.794 266.664 62.49 266.664 60.726V56.586ZM267.924 56.586H272.604V58.278H267.924V56.586ZM291.63 63.12L291.054 61.662C292.566 61.194 293.394 60.312 293.394 59.268L293.268 57.504L294.258 59.124C293.97 59.394 293.592 59.52 293.196 59.52C292.296 59.52 291.468 58.926 291.468 57.9C291.468 56.892 292.278 56.28 293.25 56.28C294.51 56.28 295.194 57.252 295.194 58.764C295.194 60.798 293.862 62.454 291.63 63.12ZM307.56 55.236H317.604V56.748H307.56V55.236ZM314.796 54.264L315.75 53.328C316.362 53.616 317.1 54.084 317.46 54.48L316.47 55.506C316.11 55.11 315.39 54.606 314.796 54.264ZM315.534 57.252L317.208 57.576C316.308 60.762 314.562 63.21 312.204 64.722C311.988 64.398 311.394 63.714 311.034 63.426C313.284 62.148 314.832 60.006 315.534 57.252ZM307.362 62.112C308.676 61.968 310.566 61.734 312.456 61.482L312.51 62.922C310.764 63.192 309 63.462 307.56 63.678L307.362 62.112ZM309.414 58.674V59.826H310.62V58.674H309.414ZM308.028 57.522H312.06V60.96H308.028V57.522ZM312.384 53.688H314.184C314.31 58.17 314.922 62.4 316.11 62.688C316.308 62.742 316.452 62.04 316.542 60.978C316.866 61.32 317.514 61.824 317.874 62.004C317.604 64.236 316.632 64.92 315.444 64.38C313.194 63.66 312.654 58.872 312.384 53.688ZM304.878 51.492H320.304V67.674H318.162V53.436H306.912V67.674H304.878V51.492ZM306.156 64.992H319.332V66.918H306.156V64.992ZM324.732 51.816H339.33V53.94H324.732V51.816ZM325.578 57.99H338.628V60.114H325.578V57.99ZM323.85 64.704H340.248V66.828H323.85V64.704ZM330.87 52.374H333.156V66.072H330.87V52.374ZM19.056 85.934H29.316V87.824H19.056V85.934ZM22.98 78.158H27.642L27.192 79.598H22.098L22.98 78.158ZM25.248 83.756H27.3V91.1C27.3 92.126 27.138 92.72 26.436 93.044C25.77 93.368 24.798 93.404 23.466 93.404C23.394 92.81 23.124 91.928 22.854 91.334C23.7 91.37 24.618 91.37 24.906 91.352C25.176 91.352 25.248 91.298 25.248 91.064V83.756ZM23.358 76.7L25.464 77.258C24.06 79.04 21.9 80.696 19.794 81.686C19.488 81.29 18.84 80.678 18.444 80.336C20.478 79.562 22.35 78.086 23.358 76.7ZM20.01 88.706L21.666 87.77C22.476 88.616 23.43 89.786 23.826 90.596L22.062 91.658C21.702 90.848 20.802 89.606 20.01 88.706ZM21.54 80.048L22.836 79.112C23.826 79.886 24.942 81.02 25.428 81.866L24.042 82.892C23.592 82.064 22.512 80.876 21.54 80.048ZM14.124 81.794H17.454V83.648H14.124V81.794ZM12.54 85.646H17.31V87.5H12.54V85.646ZM16.518 76.718H18.516V93.62H16.518V76.718ZM13.26 77.456H15.132V83.648H13.26V77.456ZM13.44 86.42H15.312V87.518C15.312 89.012 15.132 91.82 13.926 93.656C13.584 93.332 12.81 92.828 12.342 92.63C13.314 91.064 13.44 88.742 13.44 87.446V86.42ZM26.886 78.158H27.264L27.624 78.068L28.938 78.698C27.408 82.766 23.934 85.034 19.974 86.204C19.758 85.736 19.272 85.034 18.912 84.638C22.44 83.792 25.698 81.65 26.886 78.482V78.158ZM18.894 82.1C19.848 81.974 21.09 81.758 22.44 81.524L22.584 82.928C21.432 83.162 20.28 83.396 19.236 83.594L18.894 82.1ZM32.34 78.374H39.918V80.156H32.34V78.374ZM32.016 82.622H40.296V84.422H32.016V82.622ZM33.276 80.624L34.968 80.282C35.202 80.858 35.436 81.668 35.526 82.172L33.78 82.586C33.708 82.064 33.492 81.236 33.276 80.624ZM37.488 80.21L39.414 80.57C39.072 81.542 38.766 82.532 38.478 83.198L36.84 82.856C37.074 82.1 37.362 80.984 37.488 80.21ZM42.636 82.1V83.234H46.02V82.1H42.636ZM42.636 84.908V86.042H46.02V84.908H42.636ZM42.636 79.328V80.426H46.02V79.328H42.636ZM40.692 77.438H48.054V87.914H40.692V77.438ZM44.418 87.428H46.362V90.956C46.362 91.424 46.398 91.478 46.614 91.478C46.686 91.478 46.974 91.478 47.082 91.478C47.334 91.478 47.388 91.262 47.424 89.318C47.802 89.642 48.648 89.966 49.17 90.092C49.008 92.684 48.504 93.332 47.316 93.332C47.01 93.332 46.542 93.332 46.254 93.332C44.724 93.332 44.418 92.72 44.418 90.992V87.428ZM41.664 87.5H43.644C43.428 90.398 42.834 92.45 39.846 93.656C39.63 93.17 39.09 92.414 38.676 92.054C41.142 91.172 41.52 89.696 41.664 87.5ZM32.178 85.664H40.008V87.464H32.178V85.664ZM33.42 87.932L35.148 88.4C34.716 89.768 34.032 91.352 33.456 92.324C33.114 92.054 32.376 91.586 31.962 91.352C32.52 90.452 33.078 89.138 33.42 87.932ZM34.716 77.276L36.75 76.736C37.11 77.42 37.542 78.392 37.74 78.986L35.58 79.616C35.436 79.022 35.04 78.014 34.716 77.276ZM37.704 88.526L39.054 87.788C39.558 88.562 40.152 89.57 40.44 90.236L39.018 91.082C38.766 90.398 38.172 89.318 37.704 88.526ZM35.454 84.008H37.416V93.476H35.454V84.008ZM54.93 82.982H64.722V84.98H54.93V82.982ZM54.93 86.834H64.722V88.832H54.93V86.834ZM54.93 90.704H64.722V92.702H54.93V90.704ZM53.454 79.058H66.54V93.566H64.236V81.128H55.65V93.602H53.454V79.058ZM58.566 76.7L61.176 76.97C60.744 78.176 60.222 79.364 59.826 80.156L57.846 79.796C58.134 78.896 58.44 77.636 58.566 76.7ZM71.94 83.036H77.034V84.944H71.94V83.036ZM72.696 77.042L74.748 77.384C74.334 80.084 73.488 82.604 72.156 84.206C71.85 83.828 71.076 83.072 70.608 82.748C71.76 81.434 72.408 79.31 72.696 77.042ZM76.368 83.036H78.33C78.33 83.036 78.312 83.612 78.312 83.864C78.222 89.39 78.132 91.424 77.7 92.054C77.376 92.54 77.034 92.702 76.566 92.792C76.116 92.882 75.468 92.9 74.766 92.864C74.73 92.306 74.532 91.514 74.244 90.992C74.766 91.046 75.216 91.064 75.468 91.064C75.702 91.064 75.846 90.992 75.972 90.794C76.224 90.398 76.296 88.652 76.368 83.414V83.036ZM73.002 84.17H74.946C74.82 87.77 74.424 91.1 72.192 93.152C71.922 92.666 71.328 91.964 70.86 91.622C72.714 89.966 72.912 87.14 73.002 84.17ZM78.996 77.438H87.708V79.256H78.996V77.438ZM81.48 84.728V85.88H84.954V84.728H81.48ZM81.48 87.356V88.526H84.954V87.356H81.48ZM81.48 82.118V83.27H84.954V82.118H81.48ZM79.5 80.534H87.024V90.092H79.5V80.534ZM82.128 78.338L84.504 78.608C84.144 79.742 83.766 80.876 83.46 81.65L81.642 81.308C81.84 80.462 82.056 79.22 82.128 78.338ZM81.228 90.11L82.992 91.244C82.02 92.144 80.364 93.134 78.978 93.656C78.654 93.26 78.024 92.648 77.574 92.27C78.924 91.802 80.472 90.848 81.228 90.11ZM83.46 91.28L85.098 90.254C86.07 90.884 87.438 91.856 88.14 92.504L86.412 93.638C85.8 92.99 84.468 91.964 83.46 91.28ZM75.072 77.384L76.854 76.754C77.772 78.572 78.564 80.912 78.834 82.478L76.908 83.162C76.71 81.614 75.936 79.202 75.072 77.384ZM96.978 83.828H105.186V85.772H98.994V91.388H96.978V83.828ZM104.538 83.828H106.608V89.21C106.608 90.11 106.482 90.632 105.906 90.956C105.348 91.262 104.592 91.28 103.602 91.28C103.548 90.722 103.314 89.93 103.062 89.39C103.584 89.408 104.124 89.408 104.304 89.408C104.484 89.39 104.538 89.354 104.538 89.174V83.828ZM95.25 79.382H107.202V81.344H95.25V79.382ZM100.632 81.848H102.738V93.62H100.632V81.848ZM99.228 76.628L101.316 77.024C100.272 81.47 98.418 85.304 95.646 87.68C95.376 87.212 94.656 86.294 94.224 85.862C96.762 83.882 98.382 80.534 99.228 76.628ZM94.026 76.79L96.06 77.42C94.89 80.498 93.018 83.738 91.056 85.79C90.858 85.268 90.282 84.08 89.904 83.558C91.542 81.92 93.108 79.364 94.026 76.79ZM92.28 81.758L94.332 79.706L94.35 79.724V93.602H92.28V81.758ZM111.9 77.258H124.554V83.09H122.358V78.77H113.988V83.09H111.9V77.258ZM114.564 79.472H121.782V80.75H114.564V79.472ZM114.564 81.434H121.728V82.784H114.564V81.434ZM110.1 83.504H126.246V85.232H110.1V83.504ZM118.308 85.898H124.23V87.554H118.308V85.898ZM112.872 85.934H116.958V87.428H112.872V85.934ZM112.872 88.166H116.958V89.66H112.872V88.166ZM120.558 87.392C121.584 89.588 123.708 91.244 126.588 91.928C126.156 92.306 125.598 93.098 125.31 93.602C122.214 92.702 120.072 90.686 118.83 87.878L120.558 87.392ZM123.744 85.898H124.122L124.482 85.826L125.814 86.33C124.716 90.11 122.16 92.396 118.902 93.584C118.668 93.08 118.146 92.306 117.75 91.892C120.594 91.046 122.934 88.994 123.744 86.204V85.898ZM109.92 90.866C111.72 90.758 114.42 90.542 117.012 90.308L117.048 91.964C114.6 92.252 112.026 92.504 110.118 92.684L109.92 90.866ZM115.86 84.062H117.912V93.62H115.86V84.062ZM111.522 84.098H113.484V91.424H111.522V84.098ZM138.288 84.044L140.25 84.602C139.134 87.014 137.298 89.228 135.372 90.614C135.084 90.2 134.364 89.408 133.95 89.03C135.768 87.896 137.406 86.06 138.288 84.044ZM141.672 82.01L143.328 81.182C144.246 82.37 145.47 84.062 146.046 85.106L144.282 86.114C143.76 85.034 142.59 83.288 141.672 82.01ZM136.056 85.916C137.694 89.03 141.096 91.082 145.83 91.802C145.38 92.252 144.822 93.116 144.552 93.674C139.62 92.72 136.29 90.344 134.292 86.474L136.056 85.916ZM138.378 86.06H143.202V87.77H136.83L138.378 86.06ZM142.5 86.06H142.896L143.256 85.97L144.606 86.582C142.95 90.704 139.134 92.756 134.634 93.71C134.436 93.188 133.986 92.342 133.626 91.892C137.712 91.208 141.258 89.408 142.5 86.348V86.06ZM132.942 80.588L134.868 81.272C133.734 83.468 131.952 85.79 130.242 87.248C130.062 86.78 129.468 85.7 129.108 85.232C130.566 84.116 132.06 82.37 132.942 80.588ZM132.618 76.718L134.526 77.456C133.464 79.04 131.844 80.768 130.386 81.902C130.134 81.47 129.594 80.714 129.252 80.318C130.512 79.418 131.916 77.906 132.618 76.718ZM131.394 84.476L133.248 82.64L133.428 82.712V93.656H131.394V84.476ZM135.336 81.938C135.228 81.488 134.886 80.462 134.652 79.904C135.03 79.832 135.408 79.598 135.858 79.292C136.326 78.986 137.802 77.924 138.774 76.736L140.934 77.69C139.62 78.932 137.982 80.174 136.506 80.912V80.984C136.506 80.984 135.336 81.56 135.336 81.938ZM135.336 81.938L135.318 80.588L136.29 80.048L141.006 79.958C140.7 80.426 140.358 81.164 140.196 81.56C136.416 81.668 135.75 81.776 135.336 81.938ZM134.94 85.448C134.85 85.052 134.544 84.026 134.328 83.468C134.922 83.378 135.498 83.09 136.344 82.604C137.28 82.136 140.322 80.246 142.338 78.284L144.336 79.382C141.798 81.506 138.846 83.306 136.128 84.494V84.566C136.128 84.566 134.94 85.088 134.94 85.448ZM134.94 85.448L134.904 83.99L135.984 83.396L143.94 82.964C143.976 83.486 144.084 84.206 144.174 84.602C136.578 85.106 135.606 85.178 134.94 85.448ZM148.764 83.81H165.432V86.168H148.764V83.81ZM168.33 78.662H174.522V80.66H168.33V78.662ZM170.346 79.814H172.524V88.328H170.346V79.814ZM167.844 88.328C169.536 87.86 172.236 87.014 174.72 86.204L175.08 88.076C172.902 88.904 170.544 89.75 168.726 90.398L167.844 88.328ZM174.756 77.438H184.998V79.256H174.756V77.438ZM177.492 84.692V85.844H182.208V84.692H177.492ZM177.492 87.32V88.472H182.208V87.32H177.492ZM177.492 82.082V83.234H182.208V82.082H177.492ZM175.476 80.498H184.332V90.056H175.476V80.498ZM178.662 78.446L181.182 78.734C180.804 79.868 180.372 81.02 180.066 81.794L178.14 81.434C178.356 80.57 178.572 79.346 178.662 78.446ZM177.402 90.002L179.148 91.244C177.942 92.144 176.052 93.098 174.468 93.62C174.162 93.188 173.568 92.54 173.136 92.126C174.648 91.658 176.484 90.74 177.402 90.002ZM180.12 91.262L181.722 90.11C182.856 90.722 184.458 91.694 185.304 92.378L183.594 93.638C182.856 92.972 181.29 91.946 180.12 91.262ZM194.142 86.258L195.186 85.988C195.474 86.636 195.798 87.482 195.942 87.986L194.844 88.346C194.718 87.806 194.412 86.924 194.142 86.258ZM196.32 88.238H197.814V93.404H196.32V88.238ZM191.604 88.526H192.936V90.092H194.88V91.28H191.604V88.526ZM194.016 88.238H195.474V89.984C195.474 91.406 195.132 92.756 192.828 93.53C192.666 93.188 192.216 92.63 191.892 92.36C193.764 91.802 194.016 90.884 194.016 89.93V88.238ZM189.444 79.706H193.962V81.002H189.444V79.706ZM197.724 79.706H202.296V81.002H197.724V79.706ZM201.558 77.402H203.646V91.154C203.646 92.18 203.484 92.774 202.872 93.134C202.26 93.494 201.432 93.53 200.244 93.53C200.172 92.954 199.902 91.982 199.632 91.424C200.298 91.46 201.018 91.46 201.252 91.46C201.486 91.46 201.558 91.37 201.558 91.136V77.402ZM189.642 77.402H195.348V83.288H189.642V81.83H193.314V78.86H189.642V77.402ZM202.638 77.402V78.86H198.57V81.83H202.638V83.288H196.518V77.402H202.638ZM188.364 77.402H190.416V93.62H188.364V77.402ZM191.586 86.15C191.514 85.862 191.316 85.232 191.154 84.908C191.352 84.854 191.55 84.764 191.748 84.584C191.928 84.404 192.594 83.738 192.972 83L194.178 83.648C193.656 84.332 192.972 85.016 192.378 85.448V85.466C192.378 85.466 191.586 85.862 191.586 86.15ZM191.586 86.168L191.568 85.34L192.144 85.016L194.448 84.926C194.358 85.214 194.25 85.628 194.232 85.844C192.234 85.97 191.802 86.06 191.586 86.168ZM191.514 88.292C191.46 88.04 191.262 87.428 191.118 87.104C191.406 87.068 191.712 86.888 192.09 86.6C192.45 86.33 193.728 85.232 194.556 84.116L195.6 84.854C194.61 85.916 193.422 86.942 192.27 87.644V87.68C192.27 87.68 191.514 88.022 191.514 88.292ZM191.514 88.31L191.496 87.428L192.036 87.068L195.06 86.78C195.078 87.086 195.15 87.482 195.204 87.716C192.27 88.076 191.784 88.184 191.514 88.31ZM198.966 86.294L199.974 85.97C200.298 86.618 200.676 87.464 200.838 87.968L199.776 88.382C199.614 87.842 199.254 86.942 198.966 86.294ZM196.41 86.168C196.32 85.898 196.122 85.268 195.96 84.926C196.176 84.89 196.374 84.782 196.554 84.602C196.752 84.44 197.418 83.756 197.778 83.018L199.002 83.666C198.48 84.368 197.796 85.052 197.184 85.466V85.502C197.184 85.502 196.41 85.898 196.41 86.168ZM196.41 86.168L196.392 85.358L196.95 85.034L199.272 84.926C199.182 85.214 199.074 85.628 199.038 85.862C197.058 85.988 196.626 86.078 196.41 86.168ZM196.356 88.328C196.302 88.058 196.104 87.446 195.978 87.122C196.248 87.086 196.572 86.906 196.932 86.618C197.31 86.348 198.57 85.232 199.398 84.08L200.46 84.818C199.452 85.916 198.264 86.942 197.112 87.662V87.716C197.112 87.716 196.356 88.058 196.356 88.328ZM196.356 88.328L196.338 87.446L196.878 87.086L199.92 86.798C199.938 87.104 199.992 87.5 200.046 87.734C197.112 88.094 196.644 88.184 196.356 88.328ZM197.454 90.092H199.632V91.28H197.454V90.092ZM198.912 88.544H200.28V91.784H198.912V88.544ZM207.21 83.072H223.608V85.214H207.21V83.072ZM215.238 78.842H221.898V80.912H215.238V78.842ZM213.744 76.718H216.048V84.098H213.744V76.718ZM213.852 84.458H216.138V93.602H213.852V84.458ZM215.778 88.328L216.894 86.636C218.676 87.32 221.502 88.418 222.924 89.102L221.718 91.028C220.386 90.308 217.632 89.102 215.778 88.328ZM233.31 89.12L232.734 87.662C234.246 87.194 235.074 86.312 235.074 85.268L234.948 83.504L235.938 85.124C235.65 85.394 235.272 85.52 234.876 85.52C233.976 85.52 233.148 84.926 233.148 83.9C233.148 82.892 233.958 82.28 234.93 82.28C236.19 82.28 236.874 83.252 236.874 84.764C236.874 86.798 235.542 88.454 233.31 89.12ZM253.398 76.772L255.522 77.258C254.766 80.102 253.488 82.928 252.048 84.71C251.67 84.332 250.806 83.63 250.32 83.306C251.688 81.758 252.786 79.274 253.398 76.772ZM252.894 84.782L254.982 85.214C254.478 87.5 253.542 89.804 252.534 91.262C252.12 90.92 251.202 90.362 250.698 90.092C251.706 88.832 252.48 86.78 252.894 84.782ZM253.794 79.94H261.174V81.938H252.984L253.794 79.94ZM255.864 80.822H258.006V91.208C258.006 92.252 257.826 92.846 257.178 93.206C256.548 93.548 255.666 93.638 254.514 93.638C254.406 93.008 254.082 92.054 253.776 91.46C254.532 91.496 255.288 91.478 255.54 91.478C255.774 91.478 255.864 91.424 255.864 91.19V80.822ZM258.636 85.25L260.58 84.602C261.516 86.456 262.29 88.85 262.542 90.488L260.472 91.208C260.274 89.588 259.518 87.104 258.636 85.25ZM260.598 79.94H260.886L261.228 79.886L262.74 80.156C262.524 81.632 262.2 83.306 261.966 84.386L260.112 84.062C260.274 83.09 260.472 81.488 260.598 80.228V79.94ZM249.546 76.79L251.58 77.42C250.41 80.498 248.538 83.738 246.576 85.79C246.378 85.268 245.802 84.08 245.424 83.558C247.062 81.92 248.628 79.364 249.546 76.79ZM247.8 81.758L249.852 79.706L249.87 79.724V93.602H247.8V81.758ZM265.656 82.568H281.766V84.458H265.656V82.568ZM278.274 76.646L280.074 77.852C276.834 79.904 271.722 81.308 267.51 82.136C267.168 81.65 266.52 80.75 266.052 80.336C270.534 79.724 275.484 78.392 278.274 76.646ZM273.27 84.746H275.376V93.62H273.27V84.746ZM268.572 86.222H279.156V88.112H270.714V92.702H268.572V86.222ZM278.202 86.222H280.362V90.506C280.362 91.46 280.182 91.964 279.498 92.27C278.85 92.558 277.95 92.576 276.726 92.576C276.636 92 276.348 91.226 276.096 90.722C276.816 90.758 277.644 90.758 277.878 90.74C278.112 90.74 278.202 90.686 278.202 90.488V86.222ZM267.258 78.158L268.752 76.88C272.496 77.744 277.77 79.4 280.668 80.732L279.012 82.226C276.42 80.948 271.182 79.148 267.258 78.158ZM271.704 80.516L273.9 81.11C272.46 84.566 270.012 87.896 266.574 89.822C266.25 89.336 265.584 88.58 265.134 88.184C268.374 86.528 270.678 83.45 271.704 80.516ZM284.808 78.428H292.926V80.246H284.808V78.428ZM286.086 88.868H300.324V90.596H286.086V88.868ZM285.096 91.55H301.188V93.314H285.096V91.55ZM292.026 86.906H294.204V92.504H292.026V86.906ZM287.742 77.186L289.65 76.664C290.046 77.384 290.442 78.356 290.622 78.968L288.624 79.616C288.48 78.95 288.084 77.942 287.742 77.186ZM286.158 79.202H288.12V82.802C288.12 83.342 288.21 83.54 288.66 83.54C289.038 83.54 290.568 83.54 290.964 83.54C291.396 83.54 292.062 83.486 292.404 83.414C292.44 83.918 292.512 84.728 292.584 85.178C292.242 85.304 291.594 85.322 291.018 85.322C290.568 85.322 289.002 85.322 288.66 85.322C286.662 85.322 286.158 84.656 286.158 82.766V79.202ZM299.37 85.34L300.252 87.086C296.508 87.77 291.072 88.058 286.554 88.076C286.518 87.554 286.284 86.798 286.104 86.348C290.694 86.276 296.004 85.934 299.37 85.34ZM294.51 79.976L295.68 79.166C296.778 79.886 298.218 80.948 298.956 81.632L297.732 82.55C297.048 81.848 295.608 80.732 294.51 79.976ZM292.998 81.272L294.348 80.57C295.194 81.362 296.328 82.514 296.886 83.216L295.464 84.044C294.96 83.306 293.862 82.118 292.998 81.272ZM295.212 76.772L297.264 77.114C296.364 79.022 295.086 80.822 293.088 82.316C292.746 81.866 292.08 81.218 291.594 80.948C293.412 79.778 294.6 78.176 295.212 76.772ZM299.568 77.942H299.964L300.36 77.888L301.656 78.32C300.576 82.91 297.786 84.908 293.754 85.916C293.52 85.412 293.088 84.692 292.728 84.278C296.22 83.612 298.758 81.758 299.568 78.248V77.942ZM296.04 77.942H300V79.58H294.564L296.04 77.942ZM304.644 84.404H320.592V86.312H304.644V84.404ZM312.708 87.662H319.44V89.516H312.708V87.662ZM311.7 85.376H313.878V92.036H311.7V85.376ZM308.91 88.256C309.9 90.884 312.186 91.298 315.336 91.316C316.326 91.334 319.8 91.316 321.096 91.28C320.79 91.748 320.466 92.702 320.358 93.332H315.21C311.07 93.332 308.604 92.594 307.128 88.832L308.91 88.256ZM307.344 86.69L309.504 86.996C308.91 89.966 307.614 92.234 305.616 93.656C305.292 93.26 304.464 92.468 303.996 92.144C305.832 91.01 306.93 89.102 307.344 86.69ZM308.406 81.182V82.082H316.668V81.182H308.406ZM308.406 78.86V79.76H316.668V78.86H308.406ZM306.318 77.33H318.864V83.612H306.318V77.33ZM330.654 87.374C330.276 84.548 334.11 83.918 334.11 82.172C334.11 81.074 333.246 80.462 331.824 80.462C330.726 80.462 329.826 80.966 328.944 81.884L327.468 80.534C328.62 79.202 330.204 78.32 332.13 78.32C334.74 78.32 336.648 79.544 336.648 81.938C336.648 84.566 332.706 84.89 332.994 87.374H330.654ZM331.842 92.18C330.906 92.18 330.24 91.514 330.24 90.578C330.24 89.642 330.924 88.994 331.842 88.994C332.742 88.994 333.426 89.642 333.426 90.578C333.426 91.514 332.742 92.18 331.842 92.18Z" fill="black"/>
<defs>
<filter id="filter0_d_145_1179" x="0" y="0" width="362" height="125" filterUnits="userSpaceOnUse" color-interpolation-filters="sRGB">
<feFlood flood-opacity="0" result="BackgroundImageFix"/>
<feColorMatrix in="SourceAlpha" type="matrix" values="0 0 0 0 0 0 0 0 0 0 0 0 0 0 0 0 0 0 127 0" result="hardAlpha"/>
<feOffset dx="7" dy="7"/>
<feComposite in2="hardAlpha" operator="out"/>
<feColorMatrix type="matrix" values="0 0 0 0 0.5425 0 0 0 0 0 0 0 0 0 0.875 0 0 0 1 0"/>
<feBlend mode="normal" in2="BackgroundImageFix" result="effect1_dropShadow_145_1179"/>
<feBlend mode="normal" in="SourceGraphic" in2="effect1_dropShadow_145_1179" result="shape"/>
</filter>
</defs>
</svg>
