<svg width="21" height="21" viewBox="0 0 21 21" fill="none" xmlns="http://www.w3.org/2000/svg">
<g opacity="0.5">
<path d="M6.41036 19.7248C6.45174 19.7262 6.49407 19.7261 6.53602 19.7248C8.21939 19.5112 9.22216 17.7625 9.42965 16.1886C9.69182 14.7638 9.15636 12.8914 7.62032 12.4969C7.39758 12.4428 7.16259 12.4516 6.93976 12.5018C5.04222 13.0493 4.1003 15.2552 4.28215 17.1276C4.30417 18.3325 5.13465 19.6811 6.41036 19.7248ZM13.4921 19.9822C14.5315 20.0054 15.3906 18.9749 15.6026 17.978C16.0437 16.004 15.2683 13.4887 13.2554 12.7631C13.0661 12.7118 12.8683 12.6981 12.6733 12.7193C11.2817 12.8877 10.6224 14.4314 10.6206 15.7026C10.5829 17.3779 11.3476 19.3532 13.0376 19.9046C13.1923 19.9541 13.3436 19.9789 13.4921 19.9822ZM2.15758 13.7812C3.95854 13.7569 5.27582 11.9962 5.53156 10.3061C5.82698 9.0924 5.26117 7.42367 3.88879 7.26088C1.96735 7.19421 0.559314 9.21478 0.420136 11.0041C0.242747 12.1834 0.862868 13.6544 2.15758 13.7812ZM17.8955 14.1199C18.6593 14.1627 19.4327 13.7337 19.7198 12.9571C20.4854 10.8797 19.2737 8.14551 17.0941 7.59857C16.1835 7.39568 15.3429 8.07348 15.0743 8.92406C14.5047 10.7436 15.3948 12.9296 17.0328 13.845C17.2986 14.0136 17.5969 14.1032 17.8955 14.1199ZM10.0233 9.95818C11.521 10.0257 13.0791 9.326 14.103 8.2233C15.2137 6.93414 16.1456 5.41687 16.561 3.74329C17.0263 2.54657 16.1681 1.1035 14.8878 1.03466C13.3492 0.91834 11.9743 1.92968 10.4387 1.93697C9.1292 2.07662 7.99755 1.33534 6.8503 0.830979C5.87555 0.352396 4.49295 0.452896 3.93351 1.51554C3.48171 2.60487 4.0141 3.81387 4.4551 4.82058C5.37305 6.46446 6.35842 8.19312 7.94085 9.2671C8.5743 9.70884 9.29159 9.92525 10.0233 9.95818Z" fill="#DDDDDD"/>
</g>
</svg>
