<svg width="22" height="21" viewBox="0 0 22 21" fill="none" xmlns="http://www.w3.org/2000/svg">
<g opacity="0.9">
<path d="M7.32305 19.7197C7.36443 19.7211 7.40676 19.7211 7.44871 19.7197C9.13208 19.5061 10.1348 17.7574 10.3423 16.1835C10.6045 14.7587 10.069 12.8863 8.53301 12.4918C8.31027 12.4377 8.07528 12.4465 7.85245 12.4967C5.95491 13.0442 5.01299 15.2501 5.19484 17.1225C5.21686 18.3274 6.04734 19.676 7.32305 19.7197ZM14.4048 19.9771C15.4442 20.0003 16.3033 18.9698 16.5153 17.9729C16.9564 15.9989 16.181 13.4836 14.1681 12.758C13.9787 12.7067 13.781 12.693 13.586 12.7142C12.1944 12.8826 11.5351 14.4263 11.5333 15.6975C11.4956 17.3728 12.2603 19.3481 13.9503 19.8995C14.105 19.949 14.2563 19.9738 14.4048 19.9771ZM3.07027 13.7761C4.87123 13.7518 6.18851 11.9911 6.44425 10.301C6.73967 9.08731 6.17386 7.41858 4.80148 7.25579C2.88004 7.18912 1.472 9.20969 1.33283 10.999C1.15544 12.1783 1.77556 13.6493 3.07027 13.7761ZM18.8082 14.1148C19.572 14.1576 20.3454 13.7286 20.6325 12.952C21.3981 10.8746 20.1864 8.14041 18.0068 7.59347C17.0962 7.39059 16.2556 8.06839 15.987 8.91897C15.4174 10.7385 16.3075 12.9245 17.9455 13.8399C18.2113 14.0085 18.5096 14.0981 18.8082 14.1148ZM10.936 9.95309C12.4337 10.0206 13.9918 9.32091 15.0157 8.21821C16.1264 6.92905 17.0583 5.41178 17.4737 3.7382C17.939 2.54148 17.0808 1.0984 15.8005 1.02956C14.2619 0.913248 12.887 1.92459 11.3514 1.93187C10.0419 2.07152 8.91024 1.33024 7.76299 0.825886C6.78824 0.347303 5.40564 0.447804 4.8462 1.51045C4.3944 2.59977 4.92679 3.80878 5.36779 4.81549C6.28574 6.45936 7.27111 8.18803 8.85354 9.26201C9.48699 9.70374 10.2043 9.92016 10.936 9.95309Z" fill="#DDDDDD" fill-opacity="0.9"/>
</g>
</svg>
