<svg width="22" height="21" viewBox="0 0 22 21" fill="none" xmlns="http://www.w3.org/2000/svg">
<path d="M7.22149 20.1821C7.26286 20.1836 7.3052 20.1835 7.34715 20.1822C9.03051 19.9685 10.0333 18.2198 10.2408 16.6459C10.5029 15.2212 9.96748 13.3488 8.43145 12.9542C8.2087 12.9001 7.97372 12.9089 7.75089 12.9591C5.85335 13.5066 4.91143 15.7125 5.09328 17.5849C5.1153 18.7898 5.94578 20.1384 7.22149 20.1821ZM14.3032 20.4396C15.3427 20.4627 16.2018 19.4322 16.4137 18.4353C16.8548 16.4614 16.0795 13.946 14.0666 13.2204C13.8772 13.1692 13.6794 13.1555 13.4844 13.1766C12.0929 13.345 11.4335 14.8887 11.4317 16.16C11.394 17.8353 12.1588 19.8105 13.8488 20.3619C14.0034 20.4114 14.1548 20.4363 14.3032 20.4396ZM2.96871 14.2385C4.76967 14.2143 6.08694 12.4536 6.34269 10.7635C6.6381 9.54975 6.0723 7.88101 4.69992 7.71823C2.77847 7.65156 1.37044 9.67213 1.23126 11.4614C1.05387 12.6407 1.67399 14.1118 2.96871 14.2385ZM18.7066 14.5773C19.4704 14.6201 20.2438 14.191 20.5309 13.4145C21.2966 11.3371 20.0849 8.60285 17.9052 8.05591C16.9946 7.85303 16.154 8.53083 15.8854 9.38141C15.3158 11.2009 16.206 13.3869 17.8439 14.3024C18.1098 14.471 18.408 14.5606 18.7066 14.5773ZM10.8344 10.4155C12.3321 10.483 13.8903 9.78335 14.9141 8.68065C16.0248 7.39149 16.9567 5.87422 17.3722 4.20063C17.8374 3.00392 16.9792 1.56084 15.6989 1.492C14.1604 1.37569 12.7854 2.38703 11.2498 2.39431C9.94033 2.53396 8.80868 1.79268 7.66143 1.28832C6.68668 0.809741 5.30408 0.910241 4.74463 1.97288C4.29284 3.06221 4.82523 4.27121 5.26622 5.27793C6.18417 6.9218 7.16955 8.65046 8.75197 9.72445C9.38543 10.1662 10.1027 10.3826 10.8344 10.4155Z" fill="#DDDDDD"/>
</svg>
